font.ufo
<glyph name="quotedbl" format="1">
  <advance width="387"/>
  <unicode hex="0022"/>
  <outline>
    <contour>
      <point x="40" y="420" type="line"/>
      <point x="162" y="420" type="line"/>
      <point x="162" y="681" type="line"/>
      <point x="40" y="681" type="line"/>
    </contour>
    <contour>
      <point x="225" y="420" type="line"/>
      <point x="347" y="420" type="line"/>
      <point x="347" y="681" type="line"/>
      <point x="225" y="681" type="line"/>
    </contour>
  </outline>
</glyph>
<glyph name="dollar" format="1">
  <advance width="514"/>
  <unicode hex="0024"/>
  <outline>
    <contour>
      <point x="349" y="591" type="line"/>
      <point x="349" y="790" type="line"/>
      <point x="227" y="790" type="line"/>
      <point x="227" y="591" type="line"/>
    </contour>
    <contour>
      <point x="178" y="92" type="line"/>
      <point x="178" y="-118" type="line"/>
      <point x="299" y="-118" type="line"/>
      <point x="299" y="92" type="line"/>
    </contour>
    <contour>
      <point x="449" y="644" type="line"/>
      <point x="395" y="669"/>
      <point x="331" y="678"/>
      <point x="275" y="678" type="curve" smooth="yes"/>
      <point x="122" y="678"/>
      <point x="34" y="598"/>
      <point x="34" y="484" type="curve" smooth="yes"/>
      <point x="34" y="376"/>
      <point x="107" y="326"/>
      <point x="178" y="293" type="curve" smooth="yes"/>
      <point x="255" y="257"/>
      <point x="315" y="239"/>
      <point x="315" y="190" type="curve" smooth="yes"/>
      <point x="315" y="150"/>
      <point x="280" y="123"/>
      <point x="234" y="123" type="curve" smooth="yes"/>
      <point x="171" y="123"/>
      <point x="106" y="141"/>
      <point x="40" y="189" type="curve"/>
      <point x="40" y="34" type="line"/>
      <point x="90" y="6"/>
      <point x="164" y="-8"/>
      <point x="234" y="-8" type="curve" smooth="yes"/>
      <point x="382" y="-8"/>
      <point x="479" y="75"/>
      <point x="479" y="196" type="curve" smooth="yes"/>
      <point x="479" y="319"/>
      <point x="385" y="367"/>
      <point x="301" y="404" type="curve" smooth="yes"/>
      <point x="244" y="429"/>
      <point x="201" y="453"/>
      <point x="201" y="490" type="curve" smooth="yes"/>
      <point x="201" y="522"/>
      <point x="227" y="547"/>
      <point x="281" y="547" type="curve" smooth="yes"/>
      <point x="338" y="547"/>
      <point x="399" y="529"/>
      <point x="449" y="500" type="curve"/>
    </contour>
  </outline>
</glyph>
<glyph name="percent" format="1">
  <advance width="973"/>
  <unicode hex="0025"/>
  <outline>
    <contour>
      <point x="227" y="-1" type="line"/>
      <point x="358" y="-1" type="line"/>
      <point x="738" y="707" type="line"/>
      <point x="606" y="707" type="line"/>
    </contour>
    <contour>
      <point x="548" y="182" type="curve" smooth="yes"/>
      <point x="548" y="77"/>
      <point x="633" y="-8"/>
      <point x="738" y="-8" type="curve" smooth="yes"/>
      <point x="843" y="-8"/>
      <point x="928" y="77"/>
      <point x="928" y="182" type="curve" smooth="yes"/>
      <point x="928" y="287"/>
      <point x="843" y="372"/>
      <point x="738" y="372" type="curve" smooth="yes"/>
      <point x="633" y="372"/>
      <point x="548" y="287"/>
    </contour>
    <contour>
      <point x="45" y="532" type="curve" smooth="yes"/>
      <point x="45" y="427"/>
      <point x="130" y="342"/>
      <point x="235" y="342" type="curve" smooth="yes"/>
      <point x="340" y="342"/>
      <point x="425" y="427"/>
      <point x="425" y="532" type="curve" smooth="yes"/>
      <point x="425" y="637"/>
      <point x="340" y="722"/>
      <point x="235" y="722" type="curve" smooth="yes"/>
      <point x="130" y="722"/>
      <point x="45" y="637"/>
    </contour>
    <contour>
      <point x="162" y="532" type="curve" smooth="yes"/>
      <point x="162" y="572"/>
      <point x="195" y="605"/>
      <point x="235" y="605" type="curve" smooth="yes"/>
      <point x="275" y="605"/>
      <point x="308" y="572"/>
      <point x="308" y="532" type="curve" smooth="yes"/>
      <point x="308" y="492"/>
      <point x="275" y="459"/>
      <point x="235" y="459" type="curve" smooth="yes"/>
      <point x="195" y="459"/>
      <point x="162" y="492"/>
    </contour>
    <contour>
      <point x="665" y="182" type="curve" smooth="yes"/>
      <point x="665" y="222"/>
      <point x="698" y="255"/>
      <point x="738" y="255" type="curve" smooth="yes"/>
      <point x="778" y="255"/>
      <point x="811" y="222"/>
      <point x="811" y="182" type="curve" smooth="yes"/>
      <point x="811" y="142"/>
      <point x="778" y="109"/>
      <point x="738" y="109" type="curve" smooth="yes"/>
      <point x="698" y="109"/>
      <point x="665" y="142"/>
    </contour>
  </outline>
</glyph>
<glyph name="quotesingle" format="1">
  <advance width="202"/>
  <unicode hex="0027"/>
  <outline>
    <contour>
      <point x="40" y="420" type="line"/>
      <point x="162" y="420" type="line"/>
      <point x="162" y="681" type="line"/>
      <point x="40" y="681" type="line"/>
    </contour>
  </outline>
</glyph>
<glyph name="parenleft" format="1">
  <advance width="338"/>
  <unicode hex="0028"/>
  <outline>
    <contour>
      <point x="197" y="707" type="curve"/>
      <point x="348" y="707" type="line"/>
      <point x="246" y="582"/>
      <point x="194" y="390"/>
      <point x="194" y="255" type="curve" smooth="yes"/>
      <point x="194" y="125"/>
      <point x="245" y="-58"/>
      <point x="358" y="-196" type="curve"/>
      <point x="203" y="-196" type="line"/>
      <point x="96" y="-63"/>
      <point x="40" y="83"/>
      <point x="40" y="259" type="curve" smooth="yes"/>
      <point x="40" y="439"/>
      <point x="97" y="587"/>
    </contour>
  </outline>
</glyph>
<glyph name="parenright" format="1">
  <advance width="338"/>
  <unicode hex="0029"/>
  <outline>
    <contour>
      <point x="141" y="707" type="curve"/>
      <point x="-10" y="707" type="line"/>
      <point x="92" y="582"/>
      <point x="144" y="390"/>
      <point x="144" y="255" type="curve" smooth="yes"/>
      <point x="144" y="125"/>
      <point x="93" y="-58"/>
      <point x="-20" y="-196" type="curve"/>
      <point x="135" y="-196" type="line"/>
      <point x="242" y="-63"/>
      <point x="298" y="83"/>
      <point x="298" y="259" type="curve" smooth="yes"/>
      <point x="298" y="439"/>
      <point x="241" y="587"/>
    </contour>
  </outline>
</glyph>
<glyph name="plus" format="1">
  <advance width="589"/>
  <unicode hex="002B"/>
  <outline>
    <contour>
      <point x="45" y="274" type="line"/>
      <point x="544" y="274" type="line"/>
      <point x="544" y="404" type="line"/>
      <point x="45" y="404" type="line"/>
    </contour>
    <contour>
      <point x="361" y="94" type="line"/>
      <point x="361" y="585" type="line"/>
      <point x="227" y="585" type="line"/>
      <point x="227" y="94" type="line"/>
    </contour>
  </outline>
</glyph>
<glyph name="period" format="1">
  <advance width="258"/>
  <unicode hex="002E"/>
  <outline>
    <contour>
      <point x="40" y="81" type="curve" smooth="yes"/>
      <point x="40" y="32"/>
      <point x="80" y="-8"/>
      <point x="129" y="-8" type="curve" smooth="yes"/>
      <point x="178" y="-8"/>
      <point x="218" y="32"/>
      <point x="218" y="81" type="curve" smooth="yes"/>
      <point x="218" y="130"/>
      <point x="178" y="170"/>
      <point x="129" y="170" type="curve" smooth="yes"/>
      <point x="80" y="170"/>
      <point x="40" y="130"/>
    </contour>
  </outline>
</glyph>
<glyph name="three" format="1">
  <advance width="483"/>
  <unicode hex="0033"/>
  <outline>
    <contour>
      <point x="164" y="392" type="line"/>
      <point x="229" y="392"/>
      <point x="285" y="413"/>
      <point x="285" y="464" type="curve" smooth="yes"/>
      <point x="285" y="513"/>
      <point x="248" y="533"/>
      <point x="195" y="533" type="curve" smooth="yes"/>
      <point x="146" y="533"/>
      <point x="90" y="511"/>
      <point x="56" y="490" type="curve"/>
      <point x="56" y="626" type="line"/>
      <point x="92" y="644"/>
      <point x="149" y="663"/>
      <point x="205" y="663" type="curve" smooth="yes"/>
      <point x="348" y="663"/>
      <point x="435" y="587"/>
      <point x="435" y="481" type="curve" smooth="yes"/>
      <point x="435" y="383"/>
      <point x="369" y="318"/>
      <point x="251" y="311" type="curve"/>
      <point x="251" y="335" type="line"/>
      <point x="372" y="342"/>
      <point x="448" y="287"/>
      <point x="448" y="180" type="curve" smooth="yes"/>
      <point x="448" y="71"/>
      <point x="362" y="-5"/>
      <point x="207" y="-5" type="curve" smooth="yes"/>
      <point x="145" y="-5"/>
      <point x="75" y="7"/>
      <point x="30" y="29" type="curve"/>
      <point x="30" y="169" type="line"/>
      <point x="77" y="143"/>
      <point x="129" y="125"/>
      <point x="195" y="125" type="curve" smooth="yes"/>
      <point x="263" y="125"/>
      <point x="299" y="158"/>
      <point x="299" y="199" type="curve" smooth="yes"/>
      <point x="299" y="238"/>
      <point x="269" y="272"/>
      <point x="164" y="272" type="curve"/>
    </contour>
    <contour>
      <point x="288" y="272" type="line"/>
      <point x="129" y="272" type="line"/>
      <point x="129" y="392" type="line"/>
      <point x="288" y="392" type="line"/>
    </contour>
  </outline>
</glyph>
<glyph name="four" format="1">
  <advance width="562"/>
  <unicode hex="0034"/>
  <outline>
    <contour>
      <point x="30" y="263" type="line"/>
      <point x="542" y="263" type="line"/>
      <point x="542" y="139" type="line"/>
      <point x="30" y="139" type="line"/>
    </contour>
    <contour>
      <point x="230" y="656" type="line"/>
      <point x="364" y="656" type="line"/>
      <point x="173" y="263" type="line"/>
      <point x="30" y="263" type="line"/>
    </contour>
    <contour>
      <point x="317" y="656" type="line"/>
      <point x="462" y="656" type="line"/>
      <point x="462" y="0" type="line"/>
      <point x="317" y="0" type="line"/>
    </contour>
  </outline>
</glyph>
<glyph name="five" format="1">
  <advance width="500"/>
  <unicode hex="0035"/>
  <outline>
    <contour>
      <point x="63" y="266" type="curve"/>
      <point x="63" y="370" type="line"/>
      <point x="114" y="400"/>
      <point x="185" y="424"/>
      <point x="249" y="424" type="curve" smooth="yes"/>
      <point x="394" y="424"/>
      <point x="470" y="343"/>
      <point x="470" y="219" type="curve" smooth="yes"/>
      <point x="470" y="87"/>
      <point x="381" y="-6"/>
      <point x="211" y="-6" type="curve" smooth="yes"/>
      <point x="148" y="-6"/>
      <point x="85" y="3"/>
      <point x="35" y="29" type="curve"/>
      <point x="35" y="167" type="line"/>
      <point x="72" y="144"/>
      <point x="130" y="125"/>
      <point x="187" y="125" type="curve" smooth="yes"/>
      <point x="280" y="125"/>
      <point x="321" y="163"/>
      <point x="321" y="221" type="curve" smooth="yes"/>
      <point x="321" y="268"/>
      <point x="286" y="299"/>
      <point x="211" y="299" type="curve" smooth="yes"/>
      <point x="154" y="299"/>
      <point x="91" y="279"/>
    </contour>
    <contour>
      <point x="430" y="532" type="line"/>
      <point x="63" y="532" type="line"/>
      <point x="63" y="656" type="line"/>
      <point x="430" y="656" type="line"/>
    </contour>
    <contour>
      <point x="63" y="617" type="line"/>
      <point x="205" y="617" type="line"/>
      <point x="205" y="338" type="line"/>
      <point x="63" y="338" type="line"/>
    </contour>
  </outline>
</glyph>
<glyph name="six" format="1">
  <advance width="537"/>
  <unicode hex="0036"/>
  <outline>
    <contour>
      <point x="135" y="295" type="line"/>
      <point x="160" y="364"/>
      <point x="228" y="422"/>
      <point x="321" y="422" type="curve" smooth="yes"/>
      <point x="435" y="422"/>
      <point x="512" y="341"/>
      <point x="512" y="212" type="curve" smooth="yes"/>
      <point x="512" y="85"/>
      <point x="428" y="-20"/>
      <point x="279" y="-20" type="curve" smooth="yes"/>
      <point x="112" y="-20"/>
      <point x="35" y="112"/>
      <point x="35" y="299" type="curve" smooth="yes"/>
      <point x="35" y="527"/>
      <point x="175" y="666"/>
      <point x="358" y="666" type="curve" smooth="yes"/>
      <point x="396" y="666"/>
      <point x="436" y="658"/>
      <point x="461" y="650" type="curve"/>
      <point x="461" y="515" type="line"/>
      <point x="433" y="530"/>
      <point x="404" y="536"/>
      <point x="370" y="536" type="curve" smooth="yes"/>
      <point x="245" y="536"/>
      <point x="184" y="427"/>
      <point x="184" y="299" type="curve" smooth="yes"/>
      <point x="184" y="157"/>
      <point x="229" y="110"/>
      <point x="280" y="110" type="curve" smooth="yes"/>
      <point x="332" y="110"/>
      <point x="363" y="149"/>
      <point x="363" y="209" type="curve" smooth="yes"/>
      <point x="363" y="262"/>
      <point x="334" y="299"/>
      <point x="281" y="299" type="curve" smooth="yes"/>
      <point x="216" y="299"/>
      <point x="175" y="252"/>
      <point x="141" y="196" type="curve"/>
    </contour>
  </outline>
</glyph>
<glyph name="seven" format="1">
  <advance width="480"/>
  <unicode hex="0037"/>
  <outline>
    <contour>
      <point x="206" y="0" type="line"/>
      <point x="52" y="0" type="line"/>
      <point x="307" y="531" type="line"/>
      <point x="460" y="531" type="line"/>
    </contour>
    <contour>
      <point x="460" y="531" type="line"/>
      <point x="20" y="531" type="line"/>
      <point x="20" y="655" type="line"/>
      <point x="460" y="655" type="line"/>
    </contour>
  </outline>
</glyph>
<glyph name="nine" format="1">
  <advance width="533"/>
  <unicode hex="0039"/>
  <outline>
    <contour>
      <point x="379" y="431" type="curve"/>
      <point x="385" y="333" type="line"/>
      <point x="360" y="265"/>
      <point x="313" y="228"/>
      <point x="217" y="228" type="curve" smooth="yes"/>
      <point x="101" y="228"/>
      <point x="20" y="308"/>
      <point x="20" y="435" type="curve" smooth="yes"/>
      <point x="20" y="561"/>
      <point x="103" y="663"/>
      <point x="248" y="663" type="curve" smooth="yes"/>
      <point x="405" y="663"/>
      <point x="498" y="542"/>
      <point x="498" y="348" type="curve" smooth="yes"/>
      <point x="498" y="98"/>
      <point x="365" y="-8"/>
      <point x="186" y="-8" type="curve" smooth="yes"/>
      <point x="140" y="-8"/>
      <point x="94" y="1"/>
      <point x="67" y="11" type="curve"/>
      <point x="67" y="149" type="line"/>
      <point x="92" y="137"/>
      <point x="135" y="124"/>
      <point x="170" y="124" type="curve" smooth="yes"/>
      <point x="297" y="124"/>
      <point x="353" y="192"/>
      <point x="353" y="348" type="curve" smooth="yes"/>
      <point x="353" y="489"/>
      <point x="305" y="533"/>
      <point x="255" y="533" type="curve" smooth="yes"/>
      <point x="203" y="533"/>
      <point x="169" y="498"/>
      <point x="169" y="438" type="curve" smooth="yes"/>
      <point x="169" y="386"/>
      <point x="201" y="346"/>
      <point x="254" y="346" type="curve" smooth="yes"/>
      <point x="318" y="346"/>
      <point x="345" y="376"/>
    </contour>
  </outline>
</glyph>
<glyph name="colon" format="1">
  <advance width="286"/>
  <unicode hex="003A"/>
  <outline>
    <contour>
      <point x="55" y="419" type="curve" smooth="yes"/>
      <point x="55" y="370"/>
      <point x="94" y="331"/>
      <point x="143" y="331" type="curve" smooth="yes"/>
      <point x="192" y="331"/>
      <point x="231" y="370"/>
      <point x="231" y="419" type="curve" smooth="yes"/>
      <point x="231" y="468"/>
      <point x="192" y="507"/>
      <point x="143" y="507" type="curve" smooth="yes"/>
      <point x="94" y="507"/>
      <point x="55" y="468"/>
    </contour>
    <contour>
      <point x="55" y="88" type="curve" smooth="yes"/>
      <point x="55" y="39"/>
      <point x="94" y="0"/>
      <point x="143" y="0" type="curve" smooth="yes"/>
      <point x="192" y="0"/>
      <point x="231" y="39"/>
      <point x="231" y="88" type="curve" smooth="yes"/>
      <point x="231" y="137"/>
      <point x="192" y="176"/>
      <point x="143" y="176" type="curve" smooth="yes"/>
      <point x="94" y="176"/>
      <point x="55" y="137"/>
    </contour>
  </outline>
</glyph>
<glyph name="less" format="1">
  <advance width="589"/>
  <unicode hex="003C"/>
  <outline>
    <contour>
      <point x="45" y="271" type="line"/>
      <point x="544" y="93" type="line"/>
      <point x="544" y="237" type="line"/>
      <point x="190" y="340" type="line"/>
      <point x="544" y="443" type="line"/>
      <point x="544" y="587" type="line"/>
      <point x="45" y="409" type="line"/>
    </contour>
  </outline>
</glyph>
<glyph name="greater" format="1">
  <advance width="589"/>
  <unicode hex="003E"/>
  <outline>
    <contour>
      <point x="544" y="409" type="line"/>
      <point x="45" y="587" type="line"/>
      <point x="45" y="443" type="line"/>
      <point x="399" y="340" type="line"/>
      <point x="45" y="237" type="line"/>
      <point x="45" y="93" type="line"/>
      <point x="544" y="271" type="line"/>
    </contour>
  </outline>
</glyph>
<glyph name="at" format="1">
  <advance width="977"/>
  <unicode hex="0040"/>
  <outline>
    <contour>
      <point x="589" y="442" type="curve"/>
      <point x="705" y="442" type="line"/>
      <point x="704" y="422" type="line" smooth="yes"/>
      <point x="696" y="302"/>
      <point x="692" y="247"/>
      <point x="692" y="221" type="curve" smooth="yes"/>
      <point x="692" y="137"/>
      <point x="715" y="113"/>
      <point x="743" y="113" type="curve" smooth="yes"/>
      <point x="789" y="113"/>
      <point x="822" y="170"/>
      <point x="822" y="267" type="curve" smooth="yes"/>
      <point x="822" y="466"/>
      <point x="682" y="553"/>
      <point x="514" y="553" type="curve" smooth="yes"/>
      <point x="301" y="553"/>
      <point x="168" y="378"/>
      <point x="168" y="196" type="curve" smooth="yes"/>
      <point x="168" y="9"/>
      <point x="305" y="-98"/>
      <point x="467" y="-98" type="curve" smooth="yes"/>
      <point x="528" y="-98"/>
      <point x="603" y="-83"/>
      <point x="668" y="-52" type="curve"/>
      <point x="664" y="-175" type="line"/>
      <point x="599" y="-204"/>
      <point x="526" y="-216"/>
      <point x="468" y="-216" type="curve" smooth="yes"/>
      <point x="190" y="-216"/>
      <point x="40" y="-21"/>
      <point x="40" y="200" type="curve" smooth="yes"/>
      <point x="40" y="464"/>
      <point x="258" y="671"/>
      <point x="519" y="671" type="curve" smooth="yes"/>
      <point x="741" y="671"/>
      <point x="942" y="523"/>
      <point x="942" y="277" type="curve" smooth="yes"/>
      <point x="942" y="117"/>
      <point x="849" y="0"/>
      <point x="739" y="0" type="curve" smooth="yes"/>
      <point x="618" y="0"/>
      <point x="576" y="94"/>
      <point x="576" y="177" type="curve" smooth="yes"/>
      <point x="576" y="267"/>
      <point x="584" y="355"/>
    </contour>
    <contour>
      <point x="613" y="267" type="curve"/>
      <point x="578" y="238" type="line"/>
      <point x="571" y="308"/>
      <point x="530" y="340"/>
      <point x="488" y="340" type="curve" smooth="yes"/>
      <point x="436" y="340"/>
      <point x="387" y="295"/>
      <point x="387" y="207" type="curve" smooth="yes"/>
      <point x="387" y="143"/>
      <point x="430" y="105"/>
      <point x="476" y="105" type="curve" smooth="yes"/>
      <point x="518" y="105"/>
      <point x="564" y="138"/>
      <point x="577" y="208" type="curve"/>
      <point x="602" y="172" type="line"/>
      <point x="587" y="57"/>
      <point x="517" y="1"/>
      <point x="434" y="1" type="curve" smooth="yes"/>
      <point x="322" y="1"/>
      <point x="259" y="99"/>
      <point x="259" y="213" type="curve" smooth="yes"/>
      <point x="259" y="357"/>
      <point x="358" y="444"/>
      <point x="464" y="444" type="curve" smooth="yes"/>
      <point x="541" y="444"/>
      <point x="601" y="390"/>
    </contour>
  </outline>
</glyph>
<glyph name="A" format="1">
  <advance width="690"/>
  <unicode hex="0041"/>
  <outline>
    <contour>
      <point x="23" y="0" type="line"/>
      <point x="184" y="0" type="line"/>
      <point x="269" y="286" type="line" smooth="yes"/>
      <point x="335" y="507"/>
      <point x="343" y="562"/>
      <point x="343" y="562" type="curve"/>
      <point x="343" y="562"/>
      <point x="351" y="507"/>
      <point x="417" y="286" type="curve" smooth="yes"/>
      <point x="502" y="0" type="line"/>
      <point x="667" y="0" type="line"/>
      <point x="442" y="674" type="line"/>
      <point x="248" y="674" type="line"/>
    </contour>
    <contour>
      <point x="199" y="138" type="line"/>
      <point x="514" y="138" type="line"/>
      <point x="514" y="262" type="line"/>
      <point x="199" y="262" type="line"/>
    </contour>
  </outline>
</glyph>
<glyph name="F" format="1">
  <advance width="506"/>
  <unicode hex="0046"/>
  <outline>
    <contour>
      <point x="65" y="0" type="line"/>
      <point x="220" y="0" type="line"/>
      <point x="220" y="674" type="line"/>
      <point x="65" y="674" type="line"/>
    </contour>
    <contour>
      <point x="123" y="254" type="line"/>
      <point x="443" y="254" type="line"/>
      <point x="443" y="377" type="line"/>
      <point x="123" y="377" type="line"/>
    </contour>
    <contour>
      <point x="123" y="551" type="line"/>
      <point x="476" y="551" type="line"/>
      <point x="476" y="674" type="line"/>
      <point x="123" y="674" type="line"/>
    </contour>
  </outline>
</glyph>
<glyph name="G" format="1">
  <advance width="706"/>
  <unicode hex="0047"/>
  <outline>
    <contour>
      <point x="610" y="490" type="line"/>
      <point x="530" y="536"/>
      <point x="463" y="545"/>
      <point x="413" y="545" type="curve" smooth="yes"/>
      <point x="286" y="545"/>
      <point x="206" y="463"/>
      <point x="206" y="338" type="curve" smooth="yes"/>
      <point x="206" y="212"/>
      <point x="283" y="131"/>
      <point x="411" y="131" type="curve" smooth="yes"/>
      <point x="520" y="131"/>
      <point x="603" y="193"/>
      <point x="646" y="235" type="curve"/>
      <point x="646" y="62" type="line"/>
      <point x="602" y="30"/>
      <point x="522" y="-8"/>
      <point x="404" y="-8" type="curve" smooth="yes"/>
      <point x="191" y="-8"/>
      <point x="40" y="122"/>
      <point x="40" y="338" type="curve" smooth="yes"/>
      <point x="40" y="553"/>
      <point x="201" y="686"/>
      <point x="413" y="686" type="curve" smooth="yes"/>
      <point x="475" y="686"/>
      <point x="545" y="677"/>
      <point x="610" y="644" type="curve"/>
    </contour>
    <contour>
      <point x="496" y="402" type="line"/>
      <point x="646" y="402" type="line"/>
      <point x="646" y="77" type="line"/>
      <point x="496" y="37" type="line"/>
    </contour>
    <contour>
      <point x="387" y="402" type="line"/>
      <point x="646" y="402" type="line"/>
      <point x="646" y="271" type="line"/>
      <point x="387" y="271" type="line"/>
    </contour>
  </outline>
</glyph>
<glyph name="I" format="1">
  <advance width="304"/>
  <unicode hex="0049"/>
  <outline>
    <contour>
      <point x="75" y="0" type="line"/>
      <point x="229" y="0" type="line"/>
      <point x="229" y="674" type="line"/>
      <point x="75" y="674" type="line"/>
    </contour>
  </outline>
</glyph>
<glyph name="J" format="1">
  <advance width="392"/>
  <unicode hex="004A"/>
  <outline>
    <contour>
      <point x="30" y="19" type="line"/>
      <point x="55" y="6"/>
      <point x="100" y="-1"/>
      <point x="137" y="-1" type="curve" smooth="yes"/>
      <point x="260" y="-1"/>
      <point x="332" y="74"/>
      <point x="332" y="204" type="curve"/>
      <point x="332" y="673" type="line"/>
      <point x="178" y="673" type="line"/>
      <point x="178" y="208" type="line" smooth="yes"/>
      <point x="178" y="155"/>
      <point x="152" y="132"/>
      <point x="107" y="132" type="curve" smooth="yes"/>
      <point x="78" y="132"/>
      <point x="51" y="142"/>
      <point x="30" y="155" type="curve"/>
    </contour>
  </outline>
</glyph>
<glyph name="L" format="1">
  <advance width="488"/>
  <unicode hex="004C"/>
  <outline>
    <contour>
      <point x="65" y="674" type="line"/>
      <point x="219" y="674" type="line"/>
      <point x="219" y="0" type="line"/>
      <point x="65" y="0" type="line"/>
    </contour>
    <contour>
      <point x="123" y="135" type="line"/>
      <point x="468" y="135" type="line"/>
      <point x="468" y="0" type="line"/>
      <point x="123" y="0" type="line"/>
    </contour>
  </outline>
</glyph>
<glyph name="N" format="1">
  <advance width="697"/>
  <unicode hex="004E"/>
  <outline>
    <contour>
      <point x="65" y="0" type="line"/>
      <point x="219" y="0" type="line"/>
      <point x="219" y="279" type="line" smooth="yes"/>
      <point x="219" y="398"/>
      <point x="204" y="488"/>
      <point x="204" y="488" type="curve"/>
      <point x="204" y="488"/>
      <point x="231" y="401"/>
      <point x="302" y="279" type="curve" smooth="yes"/>
      <point x="463" y="0" type="line"/>
      <point x="632" y="0" type="line"/>
      <point x="632" y="674" type="line"/>
      <point x="478" y="674" type="line"/>
      <point x="478" y="395" type="line" smooth="yes"/>
      <point x="478" y="264"/>
      <point x="488" y="190"/>
      <point x="488" y="190" type="curve"/>
      <point x="488" y="190"/>
      <point x="466" y="262"/>
      <point x="391" y="395" type="curve" smooth="yes"/>
      <point x="234" y="674" type="line"/>
      <point x="65" y="674" type="line"/>
    </contour>
  </outline>
</glyph>
<glyph name="P" format="1">
  <advance width="563"/>
  <unicode hex="0050"/>
  <outline>
    <contour>
      <point x="297" y="218" type="line"/>
      <point x="430" y="218"/>
      <point x="548" y="295"/>
      <point x="548" y="451" type="curve"/>
      <point x="548" y="578"/>
      <point x="449" y="674"/>
      <point x="297" y="674" type="curve" smooth="yes"/>
      <point x="65" y="674" type="line"/>
      <point x="65" y="551" type="line"/>
      <point x="279" y="551" type="line" smooth="yes"/>
      <point x="359" y="551"/>
      <point x="392" y="511"/>
      <point x="392" y="451" type="curve" smooth="yes"/>
      <point x="392" y="384"/>
      <point x="359" y="340"/>
      <point x="270" y="340" type="curve" smooth="yes"/>
      <point x="65" y="340" type="line"/>
      <point x="65" y="218" type="line"/>
    </contour>
    <contour>
      <point x="65" y="0" type="line"/>
      <point x="219" y="0" type="line"/>
      <point x="219" y="674" type="line"/>
      <point x="65" y="674" type="line"/>
    </contour>
  </outline>
</glyph>
<glyph name="T" format="1">
  <advance width="544"/>
  <unicode hex="0054"/>
  <outline>
    <contour>
      <point x="195" y="0" type="line"/>
      <point x="350" y="0" type="line"/>
      <point x="350" y="653" type="line"/>
      <point x="195" y="653" type="line"/>
    </contour>
    <contour>
      <point x="30" y="550" type="line"/>
      <point x="514" y="550" type="line"/>
      <point x="514" y="674" type="line"/>
      <point x="30" y="674" type="line"/>
    </contour>
  </outline>
</glyph>
<glyph name="X" format="1">
  <advance width="663"/>
  <unicode hex="0058"/>
  <outline>
    <contour>
      <point x="37" y="674" type="line"/>
      <point x="216" y="674" type="line"/>
      <point x="328" y="477" type="line"/>
      <point x="363" y="543"/>
      <point x="400" y="609"/>
      <point x="435" y="674" type="curve"/>
      <point x="623" y="674" type="line"/>
      <point x="419" y="341" type="line"/>
      <point x="636" y="0" type="line"/>
      <point x="453" y="0" type="line"/>
      <point x="331" y="210" type="line"/>
      <point x="292" y="138"/>
      <point x="252" y="70"/>
      <point x="213" y="0" type="curve"/>
      <point x="27" y="0" type="line"/>
      <point x="240" y="342" type="line"/>
    </contour>
  </outline>
</glyph>
<glyph name="bracketleft" format="1">
  <advance width="363"/>
  <unicode hex="005B"/>
  <outline>
    <contour>
      <point x="65" y="-196" type="line"/>
      <point x="203" y="-196" type="line"/>
      <point x="203" y="707" type="line"/>
      <point x="65" y="707" type="line"/>
    </contour>
    <contour>
      <point x="65" y="580" type="line"/>
      <point x="348" y="580" type="line"/>
      <point x="348" y="707" type="line"/>
      <point x="65" y="707" type="line"/>
    </contour>
    <contour>
      <point x="65" y="-196" type="line"/>
      <point x="348" y="-196" type="line"/>
      <point x="348" y="-68" type="line"/>
      <point x="65" y="-68" type="line"/>
    </contour>
  </outline>
</glyph>
<glyph name="bracketright" format="1">
  <advance width="363"/>
  <unicode hex="005D"/>
  <outline>
    <contour>
      <point x="298" y="-196" type="line"/>
      <point x="160" y="-196" type="line"/>
      <point x="160" y="707" type="line"/>
      <point x="298" y="707" type="line"/>
    </contour>
    <contour>
      <point x="298" y="580" type="line"/>
      <point x="15" y="580" type="line"/>
      <point x="15" y="707" type="line"/>
      <point x="298" y="707" type="line"/>
    </contour>
    <contour>
      <point x="298" y="-196" type="line"/>
      <point x="15" y="-196" type="line"/>
      <point x="15" y="-68" type="line"/>
      <point x="298" y="-68" type="line"/>
    </contour>
  </outline>
</glyph>
<glyph name="underscore" format="1">
  <advance width="546"/>
  <unicode hex="005F"/>
  <outline>
    <contour>
      <point x="20" y="-166" type="line"/>
      <point x="526" y="-166" type="line"/>
      <point x="526" y="-45" type="line"/>
      <point x="20" y="-45" type="line"/>
    </contour>
  </outline>
</glyph>
<glyph name="grave" format="1">
  <advance width="500"/>
  <unicode hex="0060"/>
  <outline>
    <contour>
      <point x="280" y="798" type="line"/>
      <point x="134" y="798" type="line"/>
      <point x="245" y="621" type="line"/>
      <point x="366" y="621" type="line"/>
    </contour>
  </outline>
</glyph>
<glyph name="a" format="1">
  <advance width="516"/>
  <unicode hex="0061"/>
  <outline>
    <contour>
      <point x="311" y="171" type="line"/>
      <point x="311" y="128"/>
      <point x="288" y="100"/>
      <point x="246" y="100" type="curve" smooth="yes"/>
      <point x="206" y="100"/>
      <point x="187" y="118"/>
      <point x="187" y="151" type="curve" smooth="yes"/>
      <point x="187" y="184"/>
      <point x="214" y="208"/>
      <point x="264" y="208" type="curve" smooth="yes"/>
      <point x="328" y="208" type="line"/>
      <point x="328" y="298" type="line"/>
      <point x="247" y="298" type="line" smooth="yes"/>
      <point x="103" y="298"/>
      <point x="35" y="238"/>
      <point x="35" y="144" type="curve" smooth="yes"/>
      <point x="35" y="63"/>
      <point x="90" y="-3"/>
      <point x="192" y="-3" type="curve" smooth="yes"/>
      <point x="266" y="-3"/>
      <point x="302" y="30"/>
      <point x="318" y="62" type="curve"/>
      <point x="318" y="0" type="line"/>
      <point x="461" y="0" type="line"/>
      <point x="461" y="325" type="line" smooth="yes"/>
      <point x="461" y="456"/>
      <point x="390" y="516"/>
      <point x="247" y="516" type="curve" smooth="yes"/>
      <point x="168" y="516"/>
      <point x="104" y="499"/>
      <point x="74" y="482" type="curve"/>
      <point x="74" y="351" type="line"/>
      <point x="112" y="376"/>
      <point x="167" y="397"/>
      <point x="226" y="397" type="curve" smooth="yes"/>
      <point x="291" y="397"/>
      <point x="311" y="371"/>
      <point x="311" y="333" type="curve" smooth="yes"/>
    </contour>
  </outline>
</glyph>
<glyph name="b" format="1">
  <advance width="611"/>
  <unicode hex="0062"/>
  <outline>
    <contour>
      <point x="60" y="0" type="line"/>
      <point x="206" y="0" type="line"/>
      <point x="206" y="707" type="line"/>
      <point x="60" y="707" type="line"/>
    </contour>
    <contour>
      <point x="206" y="259" type="curve" smooth="yes"/>
      <point x="206" y="349"/>
      <point x="263" y="392"/>
      <point x="319" y="392" type="curve" smooth="yes"/>
      <point x="377" y="392"/>
      <point x="428" y="344"/>
      <point x="428" y="252" type="curve" smooth="yes"/>
      <point x="428" y="168"/>
      <point x="378" y="116"/>
      <point x="318" y="116" type="curve" smooth="yes"/>
      <point x="252" y="116"/>
      <point x="206" y="171"/>
    </contour>
    <contour>
      <point x="165" y="258" type="curve" smooth="yes"/>
      <point x="165" y="66"/>
      <point x="257" y="-6"/>
      <point x="358" y="-6" type="curve" smooth="yes"/>
      <point x="496" y="-6"/>
      <point x="576" y="119"/>
      <point x="576" y="255" type="curve" smooth="yes"/>
      <point x="576" y="420"/>
      <point x="480" y="513"/>
      <point x="357" y="513" type="curve" smooth="yes"/>
      <point x="253" y="513"/>
      <point x="165" y="434"/>
    </contour>
  </outline>
</glyph>
<glyph name="f" format="1">
  <advance width="346"/>
  <unicode hex="0066"/>
  <outline>
    <contour>
      <point x="366" y="592" type="line"/>
      <point x="346" y="600"/>
      <point x="330" y="603"/>
      <point x="314" y="603" type="curve" smooth="yes"/>
      <point x="268" y="603"/>
      <point x="241" y="587"/>
      <point x="241" y="526" type="curve" smooth="yes"/>
      <point x="241" y="0" type="line"/>
      <point x="96" y="0" type="line"/>
      <point x="96" y="526" type="line" smooth="yes"/>
      <point x="96" y="650"/>
      <point x="169" y="720"/>
      <point x="290" y="720" type="curve" smooth="yes"/>
      <point x="316" y="720"/>
      <point x="340" y="719"/>
      <point x="366" y="710" type="curve"/>
    </contour>
    <contour>
      <point x="30" y="507" type="line"/>
      <point x="336" y="507" type="line"/>
      <point x="336" y="400" type="line"/>
      <point x="30" y="400" type="line"/>
    </contour>
  </outline>
</glyph>
<glyph name="g" format="1">
  <advance width="585"/>
  <unicode hex="0067"/>
  <outline>
    <contour>
      <point x="87" y="-158" type="line"/>
      <point x="146" y="-186"/>
      <point x="212" y="-196"/>
      <point x="274" y="-196" type="curve" smooth="yes"/>
      <point x="410" y="-196"/>
      <point x="530" y="-123"/>
      <point x="530" y="49" type="curve" smooth="yes"/>
      <point x="530" y="507" type="line"/>
      <point x="385" y="507" type="line"/>
      <point x="385" y="51" type="line" smooth="yes"/>
      <point x="385" y="-28"/>
      <point x="348" y="-65"/>
      <point x="259" y="-65" type="curve" smooth="yes"/>
      <point x="195" y="-65"/>
      <point x="132" y="-45"/>
      <point x="87" y="-9" type="curve"/>
    </contour>
    <contour>
      <point x="252" y="512" type="curve" smooth="yes"/>
      <point x="123" y="512"/>
      <point x="40" y="405"/>
      <point x="40" y="263" type="curve" smooth="yes"/>
      <point x="40" y="89"/>
      <point x="144" y="17"/>
      <point x="245" y="17" type="curve" smooth="yes"/>
      <point x="362" y="17"/>
      <point x="423" y="92"/>
      <point x="423" y="253" type="curve" smooth="yes"/>
      <point x="423" y="259" type="line" smooth="yes"/>
      <point x="423" y="404"/>
      <point x="379" y="512"/>
    </contour>
    <contour>
      <point x="285" y="133" type="curve" smooth="yes"/>
      <point x="226" y="133"/>
      <point x="192" y="177"/>
      <point x="192" y="262" type="curve" smooth="yes"/>
      <point x="192" y="342"/>
      <point x="228" y="390"/>
      <point x="286" y="390" type="curve" smooth="yes"/>
      <point x="345" y="390"/>
      <point x="385" y="352"/>
      <point x="385" y="254" type="curve" smooth="yes"/>
      <point x="385" y="191"/>
      <point x="351" y="133"/>
    </contour>
  </outline>
</glyph>
<glyph name="h" format="1">
  <advance width="580"/>
  <unicode hex="0068"/>
  <outline>
    <contour>
      <point x="60" y="0" type="line"/>
      <point x="206" y="0" type="line"/>
      <point x="206" y="707" type="line"/>
      <point x="60" y="707" type="line"/>
    </contour>
    <contour>
      <point x="379" y="0" type="line"/>
      <point x="525" y="0" type="line"/>
      <point x="525" y="323" type="line" smooth="yes"/>
      <point x="525" y="456"/>
      <point x="451" y="512"/>
      <point x="358" y="512" type="curve" smooth="yes"/>
      <point x="237" y="512"/>
      <point x="189" y="430"/>
      <point x="186" y="321" type="curve"/>
      <point x="206" y="268" type="line"/>
      <point x="206" y="380"/>
      <point x="269" y="394"/>
      <point x="300" y="394" type="curve" smooth="yes"/>
      <point x="346" y="394"/>
      <point x="379" y="360"/>
      <point x="379" y="300" type="curve" smooth="yes"/>
    </contour>
  </outline>
</glyph>
<glyph name="m" format="1">
  <advance width="859"/>
  <unicode hex="006D"/>
  <outline>
    <contour>
      <point x="60" y="0" type="line"/>
      <point x="206" y="0" type="line"/>
      <point x="206" y="507" type="line"/>
      <point x="60" y="507" type="line"/>
    </contour>
    <contour>
      <point x="359" y="0" type="line"/>
      <point x="505" y="0" type="line"/>
      <point x="505" y="325" type="line" smooth="yes"/>
      <point x="505" y="448"/>
      <point x="445" y="512"/>
      <point x="349" y="512" type="curve" smooth="yes"/>
      <point x="244" y="512"/>
      <point x="179" y="431"/>
      <point x="186" y="321" type="curve"/>
      <point x="206" y="268" type="line"/>
      <point x="206" y="374"/>
      <point x="259" y="394"/>
      <point x="293" y="394" type="curve" smooth="yes"/>
      <point x="336" y="394"/>
      <point x="359" y="358"/>
      <point x="359" y="301" type="curve" smooth="yes"/>
    </contour>
    <contour>
      <point x="658" y="0" type="line"/>
      <point x="804" y="0" type="line"/>
      <point x="804" y="325" type="line" smooth="yes"/>
      <point x="804" y="450"/>
      <point x="740" y="512"/>
      <point x="642" y="512" type="curve" smooth="yes"/>
      <point x="541" y="512"/>
      <point x="472" y="440"/>
      <point x="479" y="334" type="curve"/>
      <point x="505" y="268" type="line"/>
      <point x="505" y="374"/>
      <point x="558" y="394"/>
      <point x="592" y="394" type="curve" smooth="yes"/>
      <point x="635" y="394"/>
      <point x="658" y="358"/>
      <point x="658" y="301" type="curve" smooth="yes"/>
    </contour>
  </outline>
</glyph>
<glyph name="u" format="1">
  <advance width="580"/>
  <unicode hex="0075"/>
  <outline>
    <contour>
      <point x="520" y="507" type="line"/>
      <point x="374" y="507" type="line"/>
      <point x="374" y="0" type="line"/>
      <point x="520" y="0" type="line"/>
    </contour>
    <contour>
      <point x="201" y="507" type="line"/>
      <point x="55" y="507" type="line"/>
      <point x="55" y="168" type="line" smooth="yes"/>
      <point x="55" y="53"/>
      <point x="118" y="-4"/>
      <point x="220" y="-4" type="curve" smooth="yes"/>
      <point x="335" y="-4"/>
      <point x="396" y="68"/>
      <point x="391" y="177" type="curve"/>
      <point x="374" y="239" type="line"/>
      <point x="374" y="143"/>
      <point x="335" y="112"/>
      <point x="279" y="112" type="curve" smooth="yes"/>
      <point x="230" y="112"/>
      <point x="201" y="142"/>
      <point x="201" y="201" type="curve" smooth="yes"/>
    </contour>
  </outline>
</glyph>
<glyph name="y" format="1">
  <advance width="532"/>
  <unicode hex="0079"/>
  <outline>
    <contour>
      <point x="5" y="507" type="line"/>
      <point x="164" y="507" type="line"/>
      <point x="219" y="349" type="line" smooth="yes"/>
      <point x="267" y="212"/>
      <point x="273" y="172"/>
      <point x="273" y="172" type="curve"/>
      <point x="273" y="172"/>
      <point x="284" y="212"/>
      <point x="327" y="349" type="curve" smooth="yes"/>
      <point x="377" y="507" type="line"/>
      <point x="527" y="507" type="line"/>
      <point x="344" y="15" type="line" smooth="yes"/>
      <point x="290" y="-130"/>
      <point x="209" y="-198"/>
      <point x="103" y="-198" type="curve" smooth="yes"/>
      <point x="78" y="-198"/>
      <point x="67" y="-197"/>
      <point x="47" y="-193" type="curve"/>
      <point x="47" y="-77" type="line"/>
      <point x="59" y="-80"/>
      <point x="70" y="-81"/>
      <point x="81" y="-81" type="curve" smooth="yes"/>
      <point x="141" y="-81"/>
      <point x="176" y="-52"/>
      <point x="201" y="8" type="curve"/>
    </contour>
  </outline>
</glyph>
<glyph name="z" format="1">
  <advance width="479"/>
  <unicode hex="007A"/>
  <outline>
    <contour>
      <point x="427" y="507" type="line"/>
      <point x="49" y="507" type="line"/>
      <point x="49" y="395" type="line"/>
      <point x="262" y="395" type="line"/>
      <point x="40" y="105" type="line"/>
      <point x="40" y="0" type="line"/>
      <point x="439" y="0" type="line"/>
      <point x="439" y="113" type="line"/>
      <point x="205" y="113" type="line"/>
      <point x="427" y="406" type="line"/>
    </contour>
  </outline>
</glyph>
<glyph name="asciitilde" format="1">
  <advance width="654"/>
  <unicode hex="007E"/>
  <outline>
    <contour>
      <point x="524" y="379" type="line"/>
      <point x="494" y="344"/>
      <point x="469" y="320"/>
      <point x="421" y="320" type="curve" smooth="yes"/>
      <point x="359" y="320"/>
      <point x="318" y="369"/>
      <point x="200" y="369" type="curve" smooth="yes"/>
      <point x="124" y="369"/>
      <point x="61" y="307"/>
      <point x="28" y="260" type="curve"/>
      <point x="129" y="180" type="line"/>
      <point x="159" y="215"/>
      <point x="184" y="238"/>
      <point x="232" y="238" type="curve" smooth="yes"/>
      <point x="308" y="238"/>
      <point x="345" y="189"/>
      <point x="452" y="189" type="curve" smooth="yes"/>
      <point x="536" y="189"/>
      <point x="592" y="251"/>
      <point x="625" y="298" type="curve"/>
    </contour>
  </outline>
</glyph>
<glyph name="cent" format="1">
  <advance width="478"/>
  <unicode hex="00A2"/>
  <outline>
    <contour>
      <point x="178" y="252" type="curve" smooth="yes"/>
      <point x="179" y="347"/>
      <point x="242" y="394"/>
      <point x="320" y="394" type="curve" smooth="yes"/>
      <point x="360" y="394"/>
      <point x="403" y="383"/>
      <point x="438" y="361" type="curve"/>
      <point x="438" y="483" type="line"/>
      <point x="392" y="507"/>
      <point x="345" y="515"/>
      <point x="305" y="515" type="curve" smooth="yes"/>
      <point x="133" y="515"/>
      <point x="32" y="398"/>
      <point x="30" y="252" type="curve" smooth="yes"/>
      <point x="30" y="98"/>
      <point x="145" y="-8"/>
      <point x="296" y="-8" type="curve" smooth="yes"/>
      <point x="348" y="-8"/>
      <point x="399" y="3"/>
      <point x="438" y="24" type="curve"/>
      <point x="438" y="146" type="line"/>
      <point x="400" y="123"/>
      <point x="357" y="111"/>
      <point x="317" y="111" type="curve" smooth="yes"/>
      <point x="238" y="111"/>
      <point x="183" y="163"/>
    </contour>
    <contour>
      <point x="359" y="421" type="line"/>
      <point x="359" y="620" type="line"/>
      <point x="237" y="620" type="line"/>
      <point x="237" y="421" type="line"/>
    </contour>
    <contour>
      <point x="238" y="99" type="line"/>
      <point x="238" y="-111" type="line"/>
      <point x="359" y="-111" type="line"/>
      <point x="359" y="99" type="line"/>
    </contour>
  </outline>
</glyph>
<glyph name="sterling" format="1">
  <advance width="540"/>
  <unicode hex="00A3"/>
  <outline>
    <contour>
      <point x="45" y="121" type="line"/>
      <point x="103" y="151"/>
      <point x="118" y="199"/>
      <point x="118" y="251" type="curve"/>
      <point x="118" y="307"/>
      <point x="101" y="368"/>
      <point x="101" y="420" type="curve"/>
      <point x="101" y="567"/>
      <point x="176" y="660"/>
      <point x="335" y="660" type="curve" smooth="yes"/>
      <point x="394" y="660"/>
      <point x="441" y="647"/>
      <point x="472" y="628" type="curve"/>
      <point x="472" y="490" type="line"/>
      <point x="444" y="510"/>
      <point x="405" y="523"/>
      <point x="368" y="523" type="curve" smooth="yes"/>
      <point x="298" y="523"/>
      <point x="263" y="490"/>
      <point x="263" y="414" type="curve"/>
      <point x="263" y="361"/>
      <point x="276" y="301"/>
      <point x="276" y="250" type="curve"/>
      <point x="276" y="200"/>
      <point x="264" y="154"/>
      <point x="215" y="123" type="curve"/>
      <point x="507" y="123" type="line"/>
      <point x="507" y="0" type="line"/>
      <point x="45" y="0" type="line"/>
    </contour>
    <contour>
      <point x="44" y="373" type="line"/>
      <point x="431" y="373" type="line"/>
      <point x="431" y="267" type="line"/>
      <point x="44" y="267" type="line"/>
    </contour>
  </outline>
</glyph>
<glyph name="yen" format="1">
  <advance width="635"/>
  <unicode hex="00A5"/>
  <outline>
    <contour>
      <point x="283" y="271" type="line"/>
      <point x="66" y="271" type="line"/>
      <point x="66" y="361" type="line"/>
      <point x="283" y="361" type="line"/>
    </contour>
    <contour>
      <point x="66" y="207" type="line"/>
      <point x="568" y="207" type="line"/>
      <point x="568" y="117" type="line"/>
      <point x="66" y="117" type="line"/>
    </contour>
    <contour>
      <point x="254" y="226" type="line"/>
      <point x="9" y="655" type="line"/>
      <point x="189" y="655" type="line"/>
      <point x="315" y="409" type="line"/>
      <point x="447" y="655" type="line"/>
      <point x="626" y="655" type="line"/>
      <point x="378" y="226" type="line"/>
    </contour>
    <contour>
      <point x="239" y="253" type="line"/>
      <point x="393" y="253" type="line"/>
      <point x="393" y="0" type="line"/>
      <point x="239" y="0" type="line"/>
    </contour>
    <contour>
      <point x="568" y="271" type="line"/>
      <point x="347" y="271" type="line"/>
      <point x="347" y="361" type="line"/>
      <point x="568" y="361" type="line"/>
    </contour>
  </outline>
</glyph>
<glyph name="section" format="1">
  <advance width="599"/>
  <unicode hex="00A7"/>
  <outline>
    <contour>
      <point x="468" y="62" type="line"/>
      <point x="503" y="87"/>
      <point x="531" y="145"/>
      <point x="531" y="197" type="curve" smooth="yes"/>
      <point x="531" y="299"/>
      <point x="476" y="345"/>
      <point x="395" y="388" type="curve" smooth="yes"/>
      <point x="282" y="448"/>
      <point x="234" y="462"/>
      <point x="234" y="500" type="curve" smooth="yes"/>
      <point x="234" y="527"/>
      <point x="256" y="549"/>
      <point x="311" y="549" type="curve" smooth="yes"/>
      <point x="368" y="549"/>
      <point x="429" y="530"/>
      <point x="479" y="501" type="curve"/>
      <point x="479" y="645" type="line"/>
      <point x="425" y="670"/>
      <point x="361" y="680"/>
      <point x="305" y="680" type="curve" smooth="yes"/>
      <point x="157" y="680"/>
      <point x="73" y="606"/>
      <point x="73" y="499" type="curve" smooth="yes"/>
      <point x="73" y="407"/>
      <point x="148" y="364"/>
      <point x="228" y="322" type="curve" smooth="yes"/>
      <point x="324" y="272"/>
      <point x="383" y="257"/>
      <point x="383" y="200" type="curve" smooth="yes"/>
      <point x="383" y="182"/>
      <point x="376" y="162"/>
      <point x="353" y="140" type="curve"/>
    </contour>
    <contour>
      <point x="110" y="419" type="line"/>
      <point x="79" y="386"/>
      <point x="57" y="343"/>
      <point x="57" y="294" type="curve" smooth="yes"/>
      <point x="57" y="207"/>
      <point x="99" y="146"/>
      <point x="178" y="111" type="curve" smooth="yes"/>
      <point x="345" y="38"/>
      <point x="362" y="26"/>
      <point x="362" y="-8" type="curve" smooth="yes"/>
      <point x="362" y="-39"/>
      <point x="333" y="-56"/>
      <point x="280" y="-56" type="curve" smooth="yes"/>
      <point x="217" y="-56"/>
      <point x="152" y="-38"/>
      <point x="86" y="10" type="curve"/>
      <point x="86" y="-145" type="line"/>
      <point x="136" y="-173"/>
      <point x="210" y="-187"/>
      <point x="280" y="-187" type="curve" smooth="yes"/>
      <point x="428" y="-187"/>
      <point x="520" y="-119"/>
      <point x="520" y="-8" type="curve" smooth="yes"/>
      <point x="520" y="102"/>
      <point x="407" y="156"/>
      <point x="324" y="192" type="curve" smooth="yes"/>
      <point x="238" y="229"/>
      <point x="205" y="252"/>
      <point x="205" y="291" type="curve" smooth="yes"/>
      <point x="205" y="305"/>
      <point x="212" y="330"/>
      <point x="232" y="350" type="curve"/>
    </contour>
  </outline>
</glyph>
<glyph name="copyright" format="1">
  <advance width="761"/>
  <unicode hex="00A9"/>
  <outline>
    <contour>
      <point x="35" y="338" type="curve" smooth="yes"/>
      <point x="35" y="147"/>
      <point x="190" y="-8"/>
      <point x="381" y="-8" type="curve" smooth="yes"/>
      <point x="571" y="-8"/>
      <point x="726" y="147"/>
      <point x="726" y="338" type="curve" smooth="yes"/>
      <point x="726" y="528"/>
      <point x="571" y="683"/>
      <point x="381" y="683" type="curve" smooth="yes"/>
      <point x="190" y="683"/>
      <point x="35" y="528"/>
    </contour>
    <contour>
      <point x="132" y="337" type="curve" smooth="yes"/>
      <point x="132" y="480"/>
      <point x="237" y="585"/>
      <point x="381" y="585" type="curve" smooth="yes"/>
      <point x="524" y="585"/>
      <point x="629" y="480"/>
      <point x="629" y="337" type="curve" smooth="yes"/>
      <point x="629" y="192"/>
      <point x="524" y="88"/>
      <point x="381" y="88" type="curve" smooth="yes"/>
      <point x="237" y="88"/>
      <point x="132" y="192"/>
    </contour>
    <contour>
      <point x="334" y="337" type="curve" smooth="yes"/>
      <point x="335" y="390"/>
      <point x="375" y="412"/>
      <point x="407" y="412" type="curve" smooth="yes"/>
      <point x="435" y="412"/>
      <point x="463" y="405"/>
      <point x="487" y="390" type="curve"/>
      <point x="487" y="484" type="line"/>
      <point x="455" y="501"/>
      <point x="424" y="506"/>
      <point x="397" y="506" type="curve" smooth="yes"/>
      <point x="289" y="506"/>
      <point x="222" y="436"/>
      <point x="221" y="337" type="curve" smooth="yes"/>
      <point x="221" y="234"/>
      <point x="303" y="171"/>
      <point x="391" y="171" type="curve" smooth="yes"/>
      <point x="426" y="171"/>
      <point x="461" y="178"/>
      <point x="487" y="192" type="curve"/>
      <point x="487" y="287" type="line"/>
      <point x="461" y="271"/>
      <point x="432" y="263"/>
      <point x="405" y="263" type="curve" smooth="yes"/>
      <point x="369" y="263"/>
      <point x="337" y="289"/>
    </contour>
  </outline>
</glyph>
<glyph name="logicalnot" format="1">
  <advance width="603"/>
  <unicode hex="00AC"/>
  <outline>
    <contour>
      <point x="558" y="136" type="line"/>
      <point x="558" y="417" type="line"/>
      <point x="45" y="417" type="line"/>
      <point x="45" y="301" type="line"/>
      <point x="438" y="301" type="line"/>
      <point x="438" y="136" type="line"/>
    </contour>
  </outline>
</glyph>
<glyph name="softhyphen" format="1">
  <advance width="357"/>
  <unicode hex="00AD"/>
  <outline>
    <contour>
      <point x="45" y="202" type="line"/>
      <point x="312" y="202" type="line"/>
      <point x="312" y="322" type="line"/>
      <point x="45" y="322" type="line"/>
    </contour>
  </outline>
</glyph>
<glyph name="macron" format="1">
  <advance width="500"/>
  <unicode hex="00AF"/>
  <outline>
    <contour>
      <point x="428" y="651" type="line"/>
      <point x="428" y="750" type="line"/>
      <point x="72" y="750" type="line"/>
      <point x="72" y="651" type="line"/>
    </contour>
  </outline>
</glyph>
<glyph name="degree" format="1">
  <advance width="440"/>
  <unicode hex="00B0"/>
  <outline>
    <contour>
      <point x="30" y="495" type="curve" smooth="yes"/>
      <point x="30" y="390"/>
      <point x="115" y="305"/>
      <point x="220" y="305" type="curve" smooth="yes"/>
      <point x="325" y="305"/>
      <point x="410" y="390"/>
      <point x="410" y="495" type="curve" smooth="yes"/>
      <point x="410" y="600"/>
      <point x="325" y="685"/>
      <point x="220" y="685" type="curve" smooth="yes"/>
      <point x="115" y="685"/>
      <point x="30" y="600"/>
    </contour>
    <contour>
      <point x="132" y="495" type="curve" smooth="yes"/>
      <point x="132" y="543"/>
      <point x="172" y="583"/>
      <point x="220" y="583" type="curve" smooth="yes"/>
      <point x="268" y="583"/>
      <point x="308" y="543"/>
      <point x="308" y="495" type="curve" smooth="yes"/>
      <point x="308" y="447"/>
      <point x="268" y="407"/>
      <point x="220" y="407" type="curve" smooth="yes"/>
      <point x="172" y="407"/>
      <point x="132" y="447"/>
    </contour>
  </outline>
</glyph>
<glyph name="plusminus" format="1">
  <advance width="589"/>
  <unicode hex="00B1"/>
  <outline>
    <contour>
      <point x="227" y="186" type="line"/>
      <point x="361" y="186" type="line"/>
      <point x="361" y="585" type="line"/>
      <point x="227" y="585" type="line"/>
    </contour>
    <contour>
      <point x="45" y="326" type="line"/>
      <point x="544" y="326" type="line"/>
      <point x="544" y="446" type="line"/>
      <point x="45" y="446" type="line"/>
    </contour>
    <contour>
      <point x="45" y="28" type="line"/>
      <point x="544" y="28" type="line"/>
      <point x="544" y="148" type="line"/>
      <point x="45" y="148" type="line"/>
    </contour>
  </outline>
</glyph>
<glyph name="twosuperior" format="1">
  <advance width="365"/>
  <unicode hex="00B2"/>
  <outline>
    <contour>
      <point x="35" y="392" type="line"/>
      <point x="330" y="392" type="line"/>
      <point x="330" y="482" type="line"/>
      <point x="168" y="482" type="line"/>
      <point x="252" y="536"/>
      <point x="316" y="605"/>
      <point x="316" y="692" type="curve" smooth="yes"/>
      <point x="316" y="779"/>
      <point x="252" y="829"/>
      <point x="162" y="829" type="curve" smooth="yes"/>
      <point x="118" y="829"/>
      <point x="75" y="815"/>
      <point x="45" y="796" type="curve"/>
      <point x="45" y="691" type="line"/>
      <point x="76" y="713"/>
      <point x="115" y="728"/>
      <point x="144" y="728" type="curve" smooth="yes"/>
      <point x="185" y="728"/>
      <point x="205" y="708"/>
      <point x="205" y="677" type="curve" smooth="yes"/>
      <point x="205" y="613"/>
      <point x="119" y="530"/>
      <point x="35" y="469" type="curve"/>
    </contour>
  </outline>
</glyph>
<glyph name="paragraph" format="1">
  <advance width="592"/>
  <unicode hex="00B6"/>
  <outline>
    <contour>
      <point x="324" y="674" type="line"/>
      <point x="232" y="674" type="line"/>
      <point x="69" y="674"/>
      <point x="10" y="584"/>
      <point x="10" y="497" type="curve" smooth="yes"/>
      <point x="10" y="405"/>
      <point x="76" y="317"/>
      <point x="213" y="317" type="curve"/>
      <point x="213" y="-148" type="line"/>
      <point x="324" y="-148" type="line"/>
    </contour>
    <contour>
      <point x="416" y="-148" type="line"/>
      <point x="527" y="-148" type="line"/>
      <point x="527" y="674" type="line"/>
      <point x="417" y="674" type="line"/>
    </contour>
  </outline>
</glyph>
<glyph name="cedilla" format="1">
  <advance width="500"/>
  <unicode hex="00B8"/>
  <outline>
    <contour>
      <point x="339" y="-125" type="curve" smooth="yes"/>
      <point x="339" y="-99"/>
      <point x="334" y="-70"/>
      <point x="322" y="-51" type="curve"/>
      <point x="209" y="-51" type="line"/>
      <point x="219" y="-64"/>
      <point x="235" y="-87"/>
      <point x="235" y="-113" type="curve" smooth="yes"/>
      <point x="235" y="-152"/>
      <point x="209" y="-177"/>
      <point x="160" y="-177" type="curve"/>
      <point x="160" y="-268" type="line"/>
      <point x="284" y="-268"/>
      <point x="339" y="-203"/>
    </contour>
  </outline>
</glyph>
<glyph name="onesuperior" format="1">
  <advance width="279"/>
  <unicode hex="00B9"/>
  <outline>
    <contour>
      <point x="10" y="651" type="line"/>
      <point x="126" y="713" type="line"/>
      <point x="126" y="392" type="line"/>
      <point x="229" y="392" type="line"/>
      <point x="229" y="825" type="line"/>
      <point x="144" y="825" type="line"/>
      <point x="10" y="749" type="line"/>
    </contour>
  </outline>
</glyph>
<glyph name="guillemotright" format="1">
  <advance width="591"/>
  <unicode hex="00BB"/>
  <outline>
    <contour>
      <point x="565" y="253" type="line"/>
      <point x="413" y="415" type="line"/>
      <point x="261" y="415" type="line"/>
      <point x="407" y="253" type="line"/>
    </contour>
    <contour>
      <point x="407" y="253" type="line"/>
      <point x="261" y="91" type="line"/>
      <point x="413" y="91" type="line"/>
      <point x="565" y="253" type="line"/>
    </contour>
    <contour>
      <point x="345" y="253" type="line"/>
      <point x="193" y="415" type="line"/>
      <point x="41" y="415" type="line"/>
      <point x="187" y="253" type="line"/>
    </contour>
    <contour>
      <point x="187" y="253" type="line"/>
      <point x="41" y="91" type="line"/>
      <point x="193" y="91" type="line"/>
      <point x="345" y="253" type="line"/>
    </contour>
  </outline>
</glyph>
<glyph name="onequarter" format="1">
  <advance width="829"/>
  <unicode hex="00BC"/>
  <outline>
    <contour>
      <point x="667" y="430" type="line"/>
      <point x="667" y="0" type="line"/>
      <point x="769" y="0" type="line"/>
      <point x="769" y="430" type="line"/>
    </contour>
    <contour>
      <point x="473" y="171" type="line"/>
      <point x="473" y="86" type="line"/>
      <point x="821" y="86" type="line"/>
      <point x="821" y="171" type="line"/>
    </contour>
    <contour>
      <point x="606" y="430" type="line"/>
      <point x="473" y="171" type="line"/>
      <point x="578" y="171" type="line"/>
      <point x="705" y="430" type="line"/>
    </contour>
    <contour>
      <point x="10" y="537" type="line"/>
      <point x="126" y="599" type="line"/>
      <point x="126" y="278" type="line"/>
      <point x="229" y="278" type="line"/>
      <point x="229" y="711" type="line"/>
      <point x="144" y="711" type="line"/>
      <point x="10" y="635" type="line"/>
    </contour>
    <contour>
      <point x="123" y="0" type="line"/>
      <point x="232" y="0" type="line"/>
      <point x="660" y="711" type="line"/>
      <point x="552" y="711" type="line"/>
    </contour>
  </outline>
</glyph>
<glyph name="questiondown" format="1">
  <advance width="458"/>
  <unicode hex="00BF"/>
  <outline>
    <contour>
      <point x="428" y="-7" type="line"/>
      <point x="387" y="-34"/>
      <point x="343" y="-50"/>
      <point x="298" y="-50" type="curve" smooth="yes"/>
      <point x="240" y="-50"/>
      <point x="213" y="-17"/>
      <point x="213" y="29" type="curve" smooth="yes"/>
      <point x="213" y="89"/>
      <point x="255" y="123"/>
      <point x="367" y="123" type="curve"/>
      <point x="364" y="274" type="line"/>
      <point x="231" y="274" type="line"/>
      <point x="228" y="192" type="line"/>
      <point x="178" y="191"/>
      <point x="65" y="139"/>
      <point x="65" y="11" type="curve" smooth="yes"/>
      <point x="65" y="-103"/>
      <point x="152" y="-172"/>
      <point x="275" y="-172" type="curve" smooth="yes"/>
      <point x="337" y="-172"/>
      <point x="387" y="-163"/>
      <point x="428" y="-144" type="curve"/>
    </contour>
    <contour>
      <point x="390" y="427" type="curve" smooth="yes"/>
      <point x="390" y="478"/>
      <point x="350" y="518"/>
      <point x="299" y="518" type="curve" smooth="yes"/>
      <point x="248" y="518"/>
      <point x="208" y="478"/>
      <point x="208" y="427" type="curve" smooth="yes"/>
      <point x="208" y="376"/>
      <point x="248" y="336"/>
      <point x="299" y="336" type="curve" smooth="yes"/>
      <point x="350" y="336"/>
      <point x="390" y="376"/>
    </contour>
  </outline>
</glyph>
<glyph name="AE" format="1">
  <advance width="940"/>
  <unicode hex="00C6"/>
  <outline>
    <contour>
      <point x="8" y="0" type="line"/>
      <point x="169" y="0" type="line"/>
      <point x="313" y="286" type="line" smooth="yes"/>
      <point x="402" y="462"/>
      <point x="471" y="609"/>
      <point x="487" y="674" type="curve"/>
      <point x="333" y="674" type="line"/>
    </contour>
    <contour>
      <point x="214" y="138" type="line"/>
      <point x="529" y="138" type="line"/>
      <point x="529" y="262" type="line"/>
      <point x="214" y="262" type="line"/>
    </contour>
    <contour>
      <point x="519" y="0" type="line"/>
      <point x="880" y="0" type="line"/>
      <point x="880" y="123" type="line"/>
      <point x="519" y="123" type="line"/>
    </contour>
    <contour>
      <point x="467" y="0" type="line"/>
      <point x="616" y="0" type="line"/>
      <point x="616" y="674" type="line"/>
      <point x="467" y="674" type="line"/>
    </contour>
    <contour>
      <point x="519" y="276" type="line"/>
      <point x="848" y="276" type="line"/>
      <point x="848" y="398" type="line"/>
      <point x="519" y="398" type="line"/>
    </contour>
    <contour>
      <point x="519" y="551" type="line"/>
      <point x="876" y="551" type="line"/>
      <point x="876" y="674" type="line"/>
      <point x="519" y="674" type="line"/>
    </contour>
  </outline>
</glyph>
<glyph name="multiply" format="1">
  <advance width="530"/>
  <unicode hex="00D7"/>
  <outline>
    <contour>
      <point x="395" y="117" type="line"/>
      <point x="487" y="209" type="line"/>
      <point x="134" y="561" type="line"/>
      <point x="42" y="469" type="line"/>
    </contour>
    <contour>
      <point x="138" y="119" type="line"/>
      <point x="485" y="466" type="line"/>
      <point x="390" y="560" type="line"/>
      <point x="43" y="213" type="line"/>
    </contour>
  </outline>
</glyph>
<glyph name="Thorn" format="1">
  <advance width="563"/>
  <unicode hex="00DE"/>
  <outline>
    <contour>
      <point x="297" y="110" type="line"/>
      <point x="430" y="110"/>
      <point x="548" y="186"/>
      <point x="548" y="342" type="curve" smooth="yes"/>
      <point x="548" y="469"/>
      <point x="449" y="564"/>
      <point x="297" y="564" type="curve" smooth="yes"/>
      <point x="65" y="564" type="line"/>
      <point x="65" y="441" type="line"/>
      <point x="285" y="441" type="line" smooth="yes"/>
      <point x="369" y="441"/>
      <point x="392" y="383"/>
      <point x="392" y="336" type="curve" smooth="yes"/>
      <point x="392" y="279"/>
      <point x="360" y="232"/>
      <point x="285" y="232" type="curve" smooth="yes"/>
      <point x="65" y="232" type="line"/>
      <point x="65" y="110" type="line"/>
    </contour>
    <contour>
      <point x="65" y="0" type="line"/>
      <point x="219" y="0" type="line"/>
      <point x="219" y="674" type="line"/>
      <point x="65" y="674" type="line"/>
    </contour>
  </outline>
</glyph>
<glyph name="ae" format="1">
  <advance width="808"/>
  <unicode hex="00E6"/>
  <outline>
    <contour>
      <point x="760" y="196" type="line"/>
      <point x="763" y="217"/>
      <point x="768" y="253"/>
      <point x="768" y="275" type="curve" smooth="yes"/>
      <point x="768" y="437"/>
      <point x="679" y="512"/>
      <point x="548" y="512" type="curve" smooth="yes"/>
      <point x="482" y="512"/>
      <point x="422" y="486"/>
      <point x="391" y="442" type="curve"/>
      <point x="370" y="486"/>
      <point x="315" y="516"/>
      <point x="242" y="516" type="curve" smooth="yes"/>
      <point x="163" y="516"/>
      <point x="109" y="499"/>
      <point x="79" y="482" type="curve"/>
      <point x="79" y="351" type="line"/>
      <point x="117" y="376"/>
      <point x="172" y="397"/>
      <point x="231" y="397" type="curve" smooth="yes"/>
      <point x="296" y="397"/>
      <point x="316" y="371"/>
      <point x="316" y="333" type="curve" smooth="yes"/>
      <point x="316" y="298" type="line"/>
      <point x="252" y="298" type="line" smooth="yes"/>
      <point x="108" y="298"/>
      <point x="40" y="238"/>
      <point x="40" y="144" type="curve" smooth="yes"/>
      <point x="40" y="56"/>
      <point x="102" y="-4"/>
      <point x="218" y="-4" type="curve" smooth="yes"/>
      <point x="323" y="-4"/>
      <point x="374" y="46"/>
      <point x="392" y="88" type="curve"/>
      <point x="432" y="21"/>
      <point x="518" y="-5"/>
      <point x="585" y="-5" type="curve" smooth="yes"/>
      <point x="637" y="-5"/>
      <point x="701" y="6"/>
      <point x="737" y="29" type="curve"/>
      <point x="737" y="151" type="line"/>
      <point x="705" y="127"/>
      <point x="663" y="108"/>
      <point x="603" y="108" type="curve" smooth="yes"/>
      <point x="535" y="108"/>
      <point x="482" y="139"/>
      <point x="461" y="196" type="curve"/>
    </contour>
    <contour>
      <point x="554" y="401" type="curve" smooth="yes"/>
      <point x="610" y="401"/>
      <point x="628" y="361"/>
      <point x="632" y="311" type="curve" smooth="yes"/>
      <point x="632" y="307"/>
      <point x="632" y="304"/>
      <point x="632" y="300" type="curve"/>
      <point x="456" y="300" type="line"/>
      <point x="469" y="369"/>
      <point x="511" y="401"/>
    </contour>
    <contour>
      <point x="316" y="171" type="line"/>
      <point x="316" y="128"/>
      <point x="293" y="100"/>
      <point x="251" y="100" type="curve" smooth="yes"/>
      <point x="211" y="100"/>
      <point x="192" y="118"/>
      <point x="192" y="151" type="curve" smooth="yes"/>
      <point x="192" y="184"/>
      <point x="219" y="208"/>
      <point x="269" y="208" type="curve" smooth="yes"/>
      <point x="316" y="208" type="line"/>
    </contour>
  </outline>
</glyph>
<glyph name="igrave" format="1">
  <advance width="276"/>
  <unicode hex="00EC"/>
  <outline>
    <contour>
      <point x="65" y="0" type="line"/>
      <point x="211" y="0" type="line"/>
      <point x="211" y="507" type="line"/>
      <point x="65" y="507" type="line"/>
    </contour>
    <component base="grave" xOffset="-177" yOffset="-67"/>
  </outline>
</glyph>
<glyph name="iacute" format="1">
  <advance width="276"/>
  <unicode hex="00ED"/>
  <outline>
    <contour>
      <point x="65" y="0" type="line"/>
      <point x="211" y="0" type="line"/>
      <point x="211" y="507" type="line"/>
      <point x="65" y="507" type="line"/>
    </contour>
    <component base="acute" xOffset="-49" yOffset="-67"/>
  </outline>
</glyph>
<glyph name="eth" format="1">
  <advance width="557"/>
  <unicode hex="00F0"/>
  <outline>
    <contour>
      <point x="312" y="674" type="line"/>
      <point x="441" y="586"/>
      <point x="510" y="418"/>
      <point x="510" y="289" type="curve" smooth="yes"/>
      <point x="510" y="116"/>
      <point x="431" y="-10"/>
      <point x="268" y="-10" type="curve" smooth="yes"/>
      <point x="116" y="-10"/>
      <point x="35" y="91"/>
      <point x="35" y="204" type="curve" smooth="yes"/>
      <point x="35" y="323"/>
      <point x="114" y="402"/>
      <point x="226" y="402" type="curve" smooth="yes"/>
      <point x="323" y="402"/>
      <point x="387" y="344"/>
      <point x="412" y="275" type="curve"/>
      <point x="406" y="176" type="line"/>
      <point x="372" y="232"/>
      <point x="333" y="279"/>
      <point x="266" y="279" type="curve" smooth="yes"/>
      <point x="213" y="279"/>
      <point x="184" y="247"/>
      <point x="184" y="194" type="curve" smooth="yes"/>
      <point x="184" y="151"/>
      <point x="215" y="120"/>
      <point x="267" y="120" type="curve" smooth="yes"/>
      <point x="318" y="120"/>
      <point x="366" y="147"/>
      <point x="366" y="289" type="curve" smooth="yes"/>
      <point x="366" y="451"/>
      <point x="282" y="574"/>
      <point x="128" y="674" type="curve"/>
    </contour>
    <contour>
      <point x="157" y="442" type="line"/>
      <point x="157" y="523" type="line"/>
      <point x="482" y="682" type="line"/>
      <point x="482" y="601" type="line"/>
    </contour>
  </outline>
</glyph>
<glyph name="dcroat" format="1">
  <advance width="611"/>
  <unicode hex="0111"/>
  <outline>
    <contour>
      <point x="608" y="564" type="line"/>
      <point x="608" y="646" type="line"/>
      <point x="254" y="646" type="line"/>
      <point x="254" y="564" type="line"/>
    </contour>
    <contour>
      <point x="551" y="707" type="line"/>
      <point x="405" y="707" type="line"/>
      <point x="405" y="0" type="line"/>
      <point x="551" y="0" type="line"/>
    </contour>
    <contour>
      <point x="405" y="259" type="curve" smooth="yes"/>
      <point x="405" y="171"/>
      <point x="359" y="116"/>
      <point x="293" y="116" type="curve" smooth="yes"/>
      <point x="233" y="116"/>
      <point x="183" y="168"/>
      <point x="183" y="252" type="curve" smooth="yes"/>
      <point x="183" y="344"/>
      <point x="234" y="392"/>
      <point x="292" y="392" type="curve" smooth="yes"/>
      <point x="348" y="392"/>
      <point x="405" y="349"/>
    </contour>
    <contour>
      <point x="446" y="258" type="curve" smooth="yes"/>
      <point x="446" y="434"/>
      <point x="358" y="513"/>
      <point x="254" y="513" type="curve" smooth="yes"/>
      <point x="131" y="513"/>
      <point x="35" y="420"/>
      <point x="35" y="255" type="curve" smooth="yes"/>
      <point x="35" y="119"/>
      <point x="115" y="-6"/>
      <point x="253" y="-6" type="curve" smooth="yes"/>
      <point x="354" y="-6"/>
      <point x="446" y="66"/>
    </contour>
  </outline>
</glyph>
<glyph name="imacron" format="1">
  <advance width="276"/>
  <unicode hex="012B"/>
  <outline>
    <contour>
      <point x="65" y="0" type="line"/>
      <point x="211" y="0" type="line"/>
      <point x="211" y="507" type="line"/>
      <point x="65" y="507" type="line"/>
    </contour>
    <component base="macron" xOffset="-112" yOffset="-58"/>
  </outline>
</glyph>
<glyph name="Lcommaaccent" format="1">
  <advance width="488"/>
  <unicode hex="013B"/>
  <outline>
    <contour>
      <point x="65" y="674" type="line"/>
      <point x="65" y="0" type="line"/>
      <point x="219" y="0" type="line"/>
      <point x="219" y="674" type="line"/>
    </contour>
    <contour>
      <point x="123" y="135" type="line"/>
      <point x="123" y="0" type="line"/>
      <point x="468" y="0" type="line"/>
      <point x="468" y="135" type="line"/>
    </contour>
    <contour>
      <point x="139" y="-262" type="line"/>
      <point x="245" y="-262" type="line"/>
      <point x="361" y="-51" type="line"/>
      <point x="210" y="-51" type="line"/>
    </contour>
  </outline>
</glyph>
<glyph name="Lslash" format="1">
  <advance width="563"/>
  <unicode hex="0141"/>
  <outline>
    <contour>
      <point x="125" y="674" type="line"/>
      <point x="279" y="674" type="line"/>
      <point x="279" y="0" type="line"/>
      <point x="125" y="0" type="line"/>
    </contour>
    <contour>
      <point x="183" y="135" type="line"/>
      <point x="528" y="135" type="line"/>
      <point x="528" y="0" type="line"/>
      <point x="183" y="0" type="line"/>
    </contour>
    <contour>
      <point x="45" y="160" type="line"/>
      <point x="45" y="281" type="line"/>
      <point x="443" y="504" type="line"/>
      <point x="443" y="383" type="line"/>
    </contour>
  </outline>
</glyph>
<glyph name="lslash" format="1">
  <advance width="341"/>
  <unicode hex="0142"/>
  <outline>
    <contour>
      <point x="331" y="419" type="line"/>
      <point x="331" y="540" type="line"/>
      <point x="25" y="331" type="line"/>
      <point x="25" y="210" type="line"/>
    </contour>
    <contour>
      <point x="102" y="0" type="line"/>
      <point x="248" y="0" type="line"/>
      <point x="248" y="707" type="line"/>
      <point x="102" y="707" type="line"/>
    </contour>
  </outline>
</glyph>
<glyph name="rcommaaccent" format="1">
  <advance width="370"/>
  <unicode hex="0157"/>
  <outline>
    <contour>
      <point x="59" y="0" type="line"/>
      <point x="205" y="0" type="line"/>
      <point x="205" y="507" type="line"/>
      <point x="60" y="507" type="line"/>
    </contour>
    <contour>
      <point x="365" y="506" type="line"/>
      <point x="351" y="510"/>
      <point x="340" y="510"/>
      <point x="327" y="510" type="curve" smooth="yes"/>
      <point x="246" y="510"/>
      <point x="193" y="436"/>
      <point x="196" y="346" type="curve"/>
      <point x="205" y="253" type="line"/>
      <point x="205" y="330"/>
      <point x="247" y="379"/>
      <point x="310" y="379" type="curve" smooth="yes"/>
      <point x="327" y="379"/>
      <point x="345" y="377"/>
      <point x="365" y="368" type="curve"/>
    </contour>
    <contour>
      <point x="-20" y="-262" type="line"/>
      <point x="86" y="-262" type="line"/>
      <point x="202" y="-51" type="line"/>
      <point x="51" y="-51" type="line"/>
    </contour>
  </outline>
</glyph>
<glyph name="caron" format="1">
  <advance width="500"/>
  <unicode hex="02C7"/>
  <outline>
    <contour>
      <point x="188" y="621" type="line"/>
      <point x="32" y="798" type="line"/>
      <point x="171" y="798" type="line"/>
      <point x="250" y="702" type="line"/>
      <point x="329" y="798" type="line"/>
      <point x="468" y="798" type="line"/>
      <point x="312" y="621" type="line"/>
    </contour>
  </outline>
</glyph>
<glyph name="macronmod" format="1">
  <advance width="500"/>
  <unicode hex="02C9"/>
  <outline>
    <contour>
      <point x="428" y="651" type="line"/>
      <point x="428" y="750" type="line"/>
      <point x="72" y="750" type="line"/>
      <point x="72" y="651" type="line"/>
    </contour>
  </outline>
</glyph>
<glyph name="hungarumlaut" format="1">
  <advance width="500"/>
  <unicode hex="02DD"/>
  <outline>
    <contour>
      <point x="224" y="621" type="line"/>
      <point x="332" y="621" type="line"/>
      <point x="463" y="798" type="line"/>
      <point x="318" y="798" type="line"/>
    </contour>
    <contour>
      <point x="37" y="621" type="line"/>
      <point x="145" y="621" type="line"/>
      <point x="256" y="798" type="line"/>
      <point x="123" y="798" type="line"/>
    </contour>
  </outline>
</glyph>
<glyph name="dvII" format="1">
  <advance width="529"/>
  <unicode hex="0908"/>
  <outline>
    <contour>
      <point x="445" y="813" type="curve" smooth="yes"/>
      <point x="484" y="813"/>
      <point x="524" y="800"/>
      <point x="549" y="782" type="curve"/>
      <point x="549" y="912" type="line"/>
      <point x="510" y="931"/>
      <point x="470" y="937"/>
      <point x="425" y="937" type="curve" smooth="yes"/>
      <point x="332" y="937"/>
      <point x="243" y="884"/>
      <point x="243" y="768" type="curve" smooth="yes"/>
      <point x="243" y="698"/>
      <point x="284" y="659"/>
      <point x="284" y="659" type="curve"/>
      <point x="426" y="659" type="line"/>
      <point x="426" y="659"/>
      <point x="387" y="708"/>
      <point x="387" y="755" type="curve" smooth="yes"/>
      <point x="387" y="786"/>
      <point x="408" y="813"/>
    </contour>
    <contour>
      <point x="499" y="164" type="curve" smooth="yes"/>
      <point x="499" y="274"/>
      <point x="434" y="329"/>
      <point x="273" y="329" type="curve" smooth="yes"/>
      <point x="224" y="329"/>
      <point x="201" y="339"/>
      <point x="201" y="365" type="curve" smooth="yes"/>
      <point x="201" y="393"/>
      <point x="227" y="402"/>
      <point x="252" y="402" type="curve" smooth="yes"/>
      <point x="444" y="402" type="line"/>
      <point x="423" y="514" type="line"/>
      <point x="258" y="514" type="line" smooth="yes"/>
      <point x="149" y="514"/>
      <point x="58" y="468"/>
      <point x="58" y="357" type="curve" smooth="yes"/>
      <point x="58" y="228"/>
      <point x="179" y="210"/>
      <point x="273" y="210" type="curve" smooth="yes"/>
      <point x="313" y="210"/>
      <point x="360" y="207"/>
      <point x="360" y="160" type="curve" smooth="yes"/>
      <point x="360" y="127"/>
      <point x="331" y="102"/>
      <point x="295" y="102" type="curve" smooth="yes"/>
      <point x="240" y="102"/>
      <point x="197" y="135"/>
      <point x="180" y="181" type="curve"/>
      <point x="137" y="66" type="line"/>
      <point x="176" y="22"/>
      <point x="238" y="-3"/>
      <point x="311" y="-3" type="curve" smooth="yes"/>
      <point x="424" y="-3"/>
      <point x="499" y="75"/>
    </contour>
    <contour>
      <point x="-30" y="559" type="line"/>
      <point x="304" y="559" type="line"/>
      <point x="304" y="405" type="line"/>
      <point x="444" y="405" type="line"/>
      <point x="444" y="559" type="line"/>
      <point x="559" y="559" type="line"/>
      <point x="559" y="671" type="line"/>
      <point x="-30" y="671" type="line"/>
    </contour>
    <contour>
      <point x="50" y="-71" type="line"/>
      <point x="190" y="-71" type="line"/>
      <point x="190" y="130" type="line"/>
      <point x="180" y="181" type="line"/>
      <point x="50" y="181" type="line"/>
    </contour>
  </outline>
</glyph>
<glyph name="dvvR" format="1">
  <advance width="913"/>
  <unicode hex="090B"/>
  <outline>
    <contour>
      <point x="522" y="671" type="move" name="abvm.bindu"/>
    </contour>
    <contour>
      <point x="522" y="671" type="move" name="abvm.candra"/>
    </contour>
    <contour>
      <point x="943" y="559" type="line"/>
      <point x="943" y="671" type="line"/>
      <point x="-30" y="671" type="line"/>
      <point x="-30" y="559" type="line"/>
    </contour>
    <contour>
      <point x="521" y="0" type="line"/>
      <point x="521" y="612" type="line"/>
      <point x="378" y="612" type="line"/>
      <point x="378" y="0" type="line"/>
    </contour>
    <contour>
      <point x="741" y="505" type="line"/>
      <point x="606" y="505" type="line"/>
      <point x="606" y="403" type="line" smooth="yes"/>
      <point x="606" y="321"/>
      <point x="660" y="262"/>
      <point x="746" y="262" type="curve"/>
      <point x="807" y="337" type="line"/>
      <point x="761" y="337"/>
      <point x="741" y="372"/>
      <point x="741" y="420" type="curve" smooth="yes"/>
    </contour>
    <contour>
      <point x="863" y="162" type="line"/>
      <point x="826" y="137"/>
      <point x="776" y="135"/>
      <point x="759" y="135" type="curve" smooth="yes"/>
      <point x="733" y="135"/>
      <point x="709" y="149"/>
      <point x="709" y="174" type="curve" smooth="yes"/>
      <point x="709" y="206"/>
      <point x="732" y="225"/>
      <point x="795" y="225" type="curve" smooth="yes"/>
      <point x="841" y="225" type="line"/>
      <point x="841" y="337" type="line"/>
      <point x="773" y="337" type="line"/>
      <point x="746" y="291" type="line"/>
      <point x="653" y="291"/>
      <point x="572" y="252"/>
      <point x="572" y="163" type="curve" smooth="yes"/>
      <point x="572" y="62"/>
      <point x="669" y="24"/>
      <point x="761" y="24" type="curve" smooth="yes"/>
      <point x="797" y="24"/>
      <point x="842" y="32"/>
      <point x="863" y="44" type="curve"/>
    </contour>
    <contour>
      <point x="432" y="214" type="line"/>
      <point x="720" y="378" type="line"/>
      <point x="659" y="471" type="line"/>
      <point x="432" y="341" type="line"/>
    </contour>
    <contour>
      <point x="140" y="366" type="curve"/>
      <point x="221" y="366"/>
      <point x="240" y="310"/>
      <point x="240" y="242" type="curve"/>
      <point x="352" y="302" type="line"/>
      <point x="336" y="438"/>
      <point x="258" y="487"/>
      <point x="154" y="487" type="curve" smooth="yes"/>
      <point x="134" y="487"/>
      <point x="98" y="483"/>
      <point x="74" y="475" type="curve"/>
      <point x="74" y="352" type="line"/>
      <point x="105" y="365"/>
      <point x="127" y="366"/>
    </contour>
    <contour>
      <point x="384" y="328" type="line"/>
      <point x="75" y="159" type="line"/>
      <point x="75" y="26" type="line"/>
      <point x="384" y="198" type="line"/>
    </contour>
  </outline>
</glyph>
<glyph name="dvvL" format="1">
  <advance width="823"/>
  <unicode hex="090C"/>
  <outline>
    <contour>
      <point x="175" y="264" type="curve" smooth="yes"/>
      <point x="175" y="336"/>
      <point x="202" y="363"/>
      <point x="241" y="363" type="curve" smooth="yes"/>
      <point x="278" y="363"/>
      <point x="308" y="340"/>
      <point x="308" y="278" type="curve" smooth="yes"/>
      <point x="308" y="211" type="line"/>
      <point x="451" y="211" type="line"/>
      <point x="451" y="276" type="line" smooth="yes"/>
      <point x="451" y="346"/>
      <point x="478" y="377"/>
      <point x="542" y="377" type="curve" smooth="yes"/>
      <point x="590" y="377"/>
      <point x="627" y="353"/>
      <point x="627" y="353" type="curve"/>
      <point x="627" y="460" type="line"/>
      <point x="627" y="460"/>
      <point x="583" y="488"/>
      <point x="534" y="488" type="curve" smooth="yes"/>
      <point x="459" y="488"/>
      <point x="399" y="460"/>
      <point x="379" y="391" type="curve"/>
      <point x="368" y="438"/>
      <point x="311" y="480"/>
      <point x="226" y="480" type="curve" smooth="yes"/>
      <point x="104" y="480"/>
      <point x="35" y="395"/>
      <point x="35" y="266" type="curve" smooth="yes"/>
      <point x="35" y="106"/>
      <point x="143" y="1"/>
      <point x="315" y="1" type="curve" smooth="yes"/>
      <point x="334" y="1"/>
      <point x="354" y="2"/>
      <point x="374" y="5" type="curve"/>
      <point x="374" y="120" type="line"/>
      <point x="359" y="118"/>
      <point x="345" y="117"/>
      <point x="331" y="117" type="curve" smooth="yes"/>
      <point x="222" y="117"/>
      <point x="175" y="172"/>
    </contour>
    <contour>
      <point x="732" y="182" type="curve"/>
      <point x="732" y="619" type="line"/>
      <point x="589" y="619" type="line"/>
      <point x="589" y="238" type="line"/>
      <point x="518" y="217"/>
      <point x="480" y="161"/>
      <point x="480" y="103" type="curve" smooth="yes"/>
      <point x="480" y="-1"/>
      <point x="565" y="-53"/>
      <point x="676" y="-53" type="curve" smooth="yes"/>
      <point x="720" y="-53"/>
      <point x="762" y="-45"/>
      <point x="793" y="-31" type="curve"/>
      <point x="793" y="78" type="line"/>
      <point x="761" y="62"/>
      <point x="727" y="55"/>
      <point x="693" y="55" type="curve" smooth="yes"/>
      <point x="649" y="55"/>
      <point x="621" y="74"/>
      <point x="621" y="111" type="curve" smooth="yes"/>
      <point x="621" y="155"/>
      <point x="662" y="182"/>
    </contour>
    <contour>
      <point x="-30" y="559" type="line"/>
      <point x="853" y="559" type="line"/>
      <point x="853" y="671" type="line"/>
      <point x="-30" y="671" type="line"/>
    </contour>
  </outline>
</glyph>
<glyph name="dvE" format="1">
  <advance width="577"/>
  <unicode hex="090F"/>
  <outline>
    <contour>
      <point x="365" y="671" type="move" name="abvm.bindu"/>
    </contour>
    <contour>
      <point x="365" y="671" type="move" name="abvm.candra"/>
    </contour>
    <contour>
      <point x="297" y="275" type="line"/>
      <point x="325" y="268"/>
      <point x="338" y="268"/>
      <point x="364" y="268" type="curve" smooth="yes"/>
      <point x="455" y="268"/>
      <point x="532" y="319"/>
      <point x="532" y="438" type="curve" smooth="yes"/>
      <point x="532" y="619" type="line"/>
      <point x="393" y="619" type="line"/>
      <point x="393" y="450" type="line" smooth="yes"/>
      <point x="393" y="398"/>
      <point x="372" y="381"/>
      <point x="332" y="381" type="curve" smooth="yes"/>
      <point x="318" y="381"/>
      <point x="311" y="383"/>
      <point x="297" y="385" type="curve"/>
    </contour>
    <contour>
      <point x="206" y="619" type="line"/>
      <point x="65" y="619" type="line"/>
      <point x="65" y="264" type="line" smooth="yes"/>
      <point x="65" y="98"/>
      <point x="185" y="25"/>
      <point x="343" y="25" type="curve" smooth="yes"/>
      <point x="418" y="25"/>
      <point x="468" y="37"/>
      <point x="511" y="52" type="curve"/>
      <point x="511" y="179" type="line"/>
      <point x="468" y="160"/>
      <point x="416" y="146"/>
      <point x="354" y="146" type="curve" smooth="yes"/>
      <point x="264" y="146"/>
      <point x="206" y="185"/>
      <point x="206" y="263" type="curve" smooth="yes"/>
    </contour>
    <contour>
      <point x="607" y="671" type="line"/>
      <point x="-30" y="671" type="line"/>
      <point x="-30" y="559" type="line"/>
      <point x="607" y="559" type="line"/>
    </contour>
  </outline>
</glyph>
<glyph name="dvOcandra" format="1">
  <advance width="983"/>
  <unicode hex="0911"/>
  <outline>
    <contour>
      <point x="786" y="870" type="move" name="abvm.bindu"/>
    </contour>
    <contour>
      <point x="715" y="733" type="curve" smooth="yes"/>
      <point x="838" y="733"/>
      <point x="938" y="802"/>
      <point x="938" y="922" type="curve"/>
      <point x="802" y="922" type="line"/>
      <point x="802" y="870"/>
      <point x="774" y="833"/>
      <point x="715" y="833" type="curve" smooth="yes"/>
      <point x="653" y="833"/>
      <point x="624" y="870"/>
      <point x="624" y="922" type="curve"/>
      <point x="488" y="922" type="line"/>
      <point x="488" y="796"/>
      <point x="576" y="733"/>
    </contour>
    <component base="dvA"/>
    <component base="dvmAA" xOffset="702"/>
  </outline>
</glyph>
<glyph name="dvNYA" format="1">
  <advance width="690"/>
  <unicode hex="091E"/>
  <outline>
    <contour>
      <point x="336" y="234" type="line"/>
      <point x="560" y="234" type="line"/>
      <point x="560" y="346" type="line"/>
      <point x="281" y="346" type="line"/>
    </contour>
    <contour>
      <point x="-30" y="559" type="line"/>
      <point x="461" y="559" type="line"/>
      <point x="461" y="671" type="line"/>
      <point x="-30" y="671" type="line"/>
    </contour>
    <contour>
      <point x="377" y="559" type="line"/>
      <point x="478" y="559" type="line"/>
      <point x="478" y="0" type="line"/>
      <point x="620" y="0" type="line"/>
      <point x="620" y="559" type="line"/>
      <point x="720" y="559" type="line"/>
      <point x="720" y="671" type="line"/>
      <point x="377" y="671" type="line"/>
    </contour>
    <contour>
      <point x="30" y="90" type="line"/>
      <point x="64" y="72"/>
      <point x="113" y="53"/>
      <point x="188" y="53" type="curve" smooth="yes"/>
      <point x="334" y="62"/>
      <point x="422" y="151"/>
      <point x="422" y="275" type="curve" smooth="yes"/>
      <point x="422" y="401"/>
      <point x="341" y="483"/>
      <point x="202" y="483" type="curve" smooth="yes"/>
      <point x="164" y="483"/>
      <point x="121" y="475"/>
      <point x="99" y="466" type="curve"/>
      <point x="99" y="347" type="line"/>
      <point x="122" y="357"/>
      <point x="158" y="366"/>
      <point x="189" y="366" type="curve" smooth="yes"/>
      <point x="246" y="366"/>
      <point x="281" y="330"/>
      <point x="281" y="275" type="curve" smooth="yes"/>
      <point x="281" y="217"/>
      <point x="248" y="174"/>
      <point x="177" y="174" type="curve" smooth="yes"/>
      <point x="115" y="174"/>
      <point x="67" y="195"/>
      <point x="30" y="217" type="curve"/>
    </contour>
  </outline>
</glyph>
<glyph name="dvTTA" format="1">
  <advance width="520"/>
  <unicode hex="091F"/>
  <outline>
    <contour>
      <point x="453" y="671" type="move" name="abvm.candra"/>
    </contour>
    <contour>
      <point x="453" y="671" type="move" name="abvm.e"/>
    </contour>
    <contour>
      <point x="453" y="671" type="move" name="abvm.bindu"/>
    </contour>
    <contour>
      <point x="255" y="0" type="move" name="blwm.virama"/>
    </contour>
    <contour>
      <point x="453" y="671" type="move" name="abvm.reph"/>
    </contour>
    <contour>
      <point x="255" y="-26" type="move" name="blwm.u"/>
    </contour>
    <contour>
      <point x="342" y="130" type="curve" smooth="yes"/>
      <point x="252" y="130"/>
      <point x="187" y="168"/>
      <point x="187" y="245" type="curve" smooth="yes"/>
      <point x="187" y="317"/>
      <point x="244" y="364"/>
      <point x="358" y="364" type="curve" smooth="yes"/>
      <point x="374" y="364"/>
      <point x="435" y="361"/>
      <point x="453" y="357" type="curve"/>
      <point x="453" y="559" type="line"/>
      <point x="550" y="559" type="line"/>
      <point x="550" y="671" type="line"/>
      <point x="-30" y="671" type="line"/>
      <point x="-30" y="559" type="line"/>
      <point x="313" y="559" type="line"/>
      <point x="313" y="476" type="line"/>
      <point x="310" y="476"/>
      <point x="306" y="476"/>
      <point x="303" y="476" type="curve" smooth="yes"/>
      <point x="132" y="471"/>
      <point x="44" y="368"/>
      <point x="44" y="250" type="curve" smooth="yes"/>
      <point x="44" y="100"/>
      <point x="151" y="9"/>
      <point x="331" y="9" type="curve" smooth="yes"/>
      <point x="382" y="9"/>
      <point x="450" y="24"/>
      <point x="489" y="44" type="curve"/>
      <point x="489" y="171" type="line"/>
      <point x="459" y="151"/>
      <point x="397" y="130"/>
    </contour>
  </outline>
</glyph>
<glyph name="dvDDHA" format="1">
  <advance width="564"/>
  <unicode hex="0922"/>
  <outline>
    <contour>
      <point x="464" y="671" type="move" name="abvm.candra"/>
    </contour>
    <contour>
      <point x="464" y="671" type="move" name="abvm.e"/>
    </contour>
    <contour>
      <point x="464" y="671" type="move" name="abvm.bindu"/>
    </contour>
    <contour>
      <point x="240" y="9" type="move" name="blwm.virama"/>
    </contour>
    <contour>
      <point x="464" y="671" type="move" name="abvm.reph"/>
    </contour>
    <contour>
      <point x="240" y="-26" type="move" name="blwm.u"/>
    </contour>
    <contour>
      <point x="266" y="200" type="line"/>
      <point x="281" y="211"/>
      <point x="316" y="222"/>
      <point x="338" y="222" type="curve" smooth="yes"/>
      <point x="374" y="222"/>
      <point x="395" y="205"/>
      <point x="395" y="180" type="curve" smooth="yes"/>
      <point x="395" y="140"/>
      <point x="353" y="122"/>
      <point x="306" y="122" type="curve" smooth="yes"/>
      <point x="224" y="122"/>
      <point x="173" y="185"/>
      <point x="173" y="250" type="curve" smooth="yes"/>
      <point x="173" y="348"/>
      <point x="269" y="378"/>
      <point x="363" y="378" type="curve" smooth="yes"/>
      <point x="398" y="378"/>
      <point x="434" y="374"/>
      <point x="464" y="367" type="curve"/>
      <point x="464" y="559" type="line"/>
      <point x="594" y="559" type="line"/>
      <point x="594" y="671" type="line"/>
      <point x="-30" y="671" type="line"/>
      <point x="-30" y="559" type="line"/>
      <point x="324" y="559" type="line"/>
      <point x="324" y="486" type="line"/>
      <point x="321" y="486"/>
      <point x="318" y="486"/>
      <point x="315" y="486" type="curve" smooth="yes"/>
      <point x="159" y="483"/>
      <point x="30" y="416"/>
      <point x="30" y="251" type="curve" smooth="yes"/>
      <point x="30" y="116"/>
      <point x="136" y="9"/>
      <point x="298" y="9" type="curve" smooth="yes"/>
      <point x="445" y="9"/>
      <point x="529" y="82"/>
      <point x="529" y="183" type="curve" smooth="yes"/>
      <point x="529" y="271"/>
      <point x="461" y="322"/>
      <point x="369" y="322" type="curve" smooth="yes"/>
      <point x="332" y="322"/>
      <point x="293" y="313"/>
      <point x="266" y="299" type="curve"/>
    </contour>
  </outline>
</glyph>
<glyph name="dvNNA" format="1">
  <advance width="754"/>
  <unicode hex="0923"/>
  <outline>
    <contour>
      <point x="426" y="617" type="line"/>
      <point x="287" y="617" type="line"/>
      <point x="287" y="342" type="line" smooth="yes"/>
      <point x="287" y="293"/>
      <point x="266" y="275"/>
      <point x="229" y="275" type="curve" smooth="yes"/>
      <point x="194" y="275"/>
      <point x="170" y="292"/>
      <point x="170" y="341" type="curve" smooth="yes"/>
      <point x="170" y="615" type="line"/>
      <point x="30" y="615" type="line"/>
      <point x="30" y="351" type="line" smooth="yes"/>
      <point x="30" y="221"/>
      <point x="101" y="157"/>
      <point x="226" y="157" type="curve" smooth="yes"/>
      <point x="349" y="157"/>
      <point x="426" y="223"/>
      <point x="426" y="354" type="curve" smooth="yes"/>
    </contour>
    <contour>
      <point x="684" y="614" type="line"/>
      <point x="543" y="614" type="line"/>
      <point x="543" y="0" type="line"/>
      <point x="684" y="0" type="line"/>
    </contour>
    <contour>
      <point x="784" y="559" type="line"/>
      <point x="784" y="671" type="line"/>
      <point x="-30" y="671" type="line"/>
      <point x="-30" y="559" type="line"/>
    </contour>
  </outline>
</glyph>
<glyph name="dvTA" format="1">
  <advance width="608"/>
  <unicode hex="0924"/>
  <outline>
    <contour>
      <point x="486" y="360" type="line"/>
      <point x="486" y="474" type="line"/>
      <point x="322" y="474" type="line" smooth="yes"/>
      <point x="133" y="474"/>
      <point x="45" y="378"/>
      <point x="45" y="242" type="curve" smooth="yes"/>
      <point x="45" y="102"/>
      <point x="125" y="1"/>
      <point x="269" y="1" type="curve" smooth="yes"/>
      <point x="284" y="1"/>
      <point x="297" y="2"/>
      <point x="309" y="3" type="curve"/>
      <point x="309" y="120" type="line"/>
      <point x="303" y="119"/>
      <point x="297" y="119"/>
      <point x="292" y="119" type="curve" smooth="yes"/>
      <point x="219" y="119"/>
      <point x="187" y="165"/>
      <point x="187" y="241" type="curve" smooth="yes"/>
      <point x="187" y="319"/>
      <point x="236" y="360"/>
      <point x="326" y="360" type="curve" smooth="yes"/>
    </contour>
    <contour>
      <point x="396" y="0" type="line"/>
      <point x="538" y="0" type="line"/>
      <point x="538" y="612" type="line"/>
      <point x="396" y="612" type="line"/>
    </contour>
    <contour>
      <point x="-30" y="559" type="line"/>
      <point x="638" y="559" type="line"/>
      <point x="638" y="671" type="line"/>
      <point x="-30" y="671" type="line"/>
    </contour>
  </outline>
</glyph>
<glyph name="dvTHA" format="1">
  <advance width="674"/>
  <unicode hex="0925"/>
  <outline>
    <contour>
      <point x="409" y="507" type="curve" smooth="yes"/>
      <point x="409" y="619"/>
      <point x="335" y="681"/>
      <point x="235" y="681" type="curve" smooth="yes"/>
      <point x="118" y="681"/>
      <point x="57" y="611"/>
      <point x="57" y="524" type="curve" smooth="yes"/>
      <point x="57" y="503"/>
      <point x="60" y="480"/>
      <point x="68" y="457" type="curve"/>
      <point x="202" y="457" type="line"/>
      <point x="195" y="473"/>
      <point x="190" y="494"/>
      <point x="190" y="512" type="curve" smooth="yes"/>
      <point x="190" y="541"/>
      <point x="203" y="564"/>
      <point x="235" y="564" type="curve" smooth="yes"/>
      <point x="264" y="564"/>
      <point x="278" y="542"/>
      <point x="278" y="512" type="curve" smooth="yes"/>
      <point x="278" y="442"/>
      <point x="191" y="410"/>
      <point x="20" y="366" type="curve"/>
      <point x="31" y="197"/>
      <point x="155" y="90"/>
      <point x="294" y="90" type="curve" smooth="yes"/>
      <point x="365" y="90"/>
      <point x="434" y="113"/>
      <point x="462" y="150" type="curve"/>
      <point x="462" y="0" type="line"/>
      <point x="604" y="0" type="line"/>
      <point x="604" y="559" type="line"/>
      <point x="694" y="559" type="line"/>
      <point x="694" y="671" type="line"/>
      <point x="462" y="671" type="line"/>
      <point x="462" y="351" type="line" smooth="yes"/>
      <point x="462" y="240"/>
      <point x="374" y="211"/>
      <point x="309" y="211" type="curve" smooth="yes"/>
      <point x="252" y="211"/>
      <point x="202" y="241"/>
      <point x="182" y="289" type="curve"/>
      <point x="322" y="333"/>
      <point x="409" y="403"/>
    </contour>
  </outline>
</glyph>
<glyph name="dvDA" format="1">
  <advance width="579"/>
  <unicode hex="0926"/>
  <outline>
    <contour>
      <point x="497" y="671" type="move" name="abvm.candra"/>
    </contour>
    <contour>
      <point x="497" y="671" type="move" name="abvm.e"/>
    </contour>
    <contour>
      <point x="497" y="671" type="move" name="abvm.bindu"/>
    </contour>
    <contour>
      <point x="379" y="-10" type="move" name="blwm.virama"/>
    </contour>
    <contour>
      <point x="497" y="671" type="move" name="abvm.reph"/>
    </contour>
    <contour>
      <point x="379" y="-10" type="move" name="blwm.u"/>
    </contour>
    <contour>
      <point x="-30" y="671" type="line"/>
      <point x="-30" y="559" type="line"/>
      <point x="354" y="559" type="line"/>
      <point x="354" y="495" type="line"/>
      <point x="283" y="495" type="line" smooth="yes"/>
      <point x="115" y="495"/>
      <point x="30" y="402"/>
      <point x="30" y="278" type="curve" smooth="yes"/>
      <point x="30" y="156"/>
      <point x="113" y="62"/>
      <point x="246" y="62" type="curve" smooth="yes"/>
      <point x="286" y="62"/>
      <point x="353" y="77"/>
      <point x="379" y="115" type="curve"/>
      <point x="379" y="-10" type="line"/>
      <point x="519" y="-10" type="line"/>
      <point x="519" y="279" type="line"/>
      <point x="381" y="279" type="line"/>
      <point x="370" y="209"/>
      <point x="326" y="179"/>
      <point x="271" y="179" type="curve" smooth="yes"/>
      <point x="213" y="179"/>
      <point x="173" y="215"/>
      <point x="173" y="280" type="curve" smooth="yes"/>
      <point x="173" y="343"/>
      <point x="218" y="383"/>
      <point x="289" y="383" type="curve" smooth="yes"/>
      <point x="497" y="383" type="line"/>
      <point x="497" y="559" type="line"/>
      <point x="609" y="559" type="line"/>
      <point x="609" y="671" type="line"/>
    </contour>
  </outline>
</glyph>
<glyph name="dvYA" format="1">
  <advance width="634"/>
  <unicode hex="092F"/>
  <outline>
    <contour>
      <point x="276" y="106" type="curve" smooth="yes"/>
      <point x="343" y="106"/>
      <point x="400" y="132"/>
      <point x="423" y="170" type="curve"/>
      <point x="423" y="0" type="line"/>
      <point x="564" y="0" type="line"/>
      <point x="564" y="559" type="line"/>
      <point x="664" y="559" type="line"/>
      <point x="664" y="671" type="line"/>
      <point x="-30" y="671" type="line"/>
      <point x="-30" y="559" type="line"/>
      <point x="146" y="559" type="line"/>
      <point x="165" y="540"/>
      <point x="175" y="514"/>
      <point x="175" y="480" type="curve" smooth="yes"/>
      <point x="175" y="432"/>
      <point x="130" y="392"/>
      <point x="19" y="376" type="curve"/>
      <point x="40" y="203"/>
      <point x="148" y="106"/>
    </contour>
    <contour>
      <point x="300" y="230" type="curve" smooth="yes"/>
      <point x="236" y="230"/>
      <point x="197" y="260"/>
      <point x="183" y="306" type="curve"/>
      <point x="251" y="329"/>
      <point x="314" y="379"/>
      <point x="314" y="473" type="curve" smooth="yes"/>
      <point x="314" y="510"/>
      <point x="304" y="542"/>
      <point x="293" y="559" type="curve"/>
      <point x="423" y="559" type="line"/>
      <point x="423" y="362" type="line" smooth="yes"/>
      <point x="423" y="272"/>
      <point x="374" y="230"/>
    </contour>
  </outline>
</glyph>
<glyph name="dvRA" format="1">
  <advance width="417"/>
  <unicode hex="0930"/>
  <outline>
    <contour>
      <point x="343" y="671" type="move" name="abvm.candra"/>
    </contour>
    <contour>
      <point x="343" y="671" type="move" name="abvm.e"/>
    </contour>
    <contour>
      <point x="343" y="671" type="move" name="abvm.bindu"/>
    </contour>
    <contour>
      <point x="169" y="0" type="move" name="blwm.virama"/>
    </contour>
    <contour>
      <point x="343" y="671" type="move" name="abvm.reph"/>
    </contour>
    <contour>
      <point x="219" y="0" type="move" name="blwm.u"/>
    </contour>
    <contour>
      <point x="35" y="256" type="line"/>
      <point x="233" y="0" type="line"/>
      <point x="403" y="0" type="line"/>
      <point x="198" y="262" type="line"/>
      <point x="201" y="262"/>
      <point x="209" y="263"/>
      <point x="213" y="264" type="curve" smooth="yes"/>
      <point x="298" y="280"/>
      <point x="343" y="346"/>
      <point x="343" y="434" type="curve" smooth="yes"/>
      <point x="343" y="559" type="line"/>
      <point x="447" y="559" type="line"/>
      <point x="447" y="671" type="line"/>
      <point x="-30" y="671" type="line"/>
      <point x="-30" y="559" type="line"/>
      <point x="203" y="559" type="line"/>
      <point x="203" y="442" type="line" smooth="yes"/>
      <point x="203" y="392"/>
      <point x="174" y="366"/>
      <point x="111" y="366" type="curve" smooth="yes"/>
      <point x="35" y="366" type="line"/>
    </contour>
  </outline>
</glyph>
<glyph name="dvRxA" format="1">
  <advance width="417"/>
  <unicode hex="0931"/>
  <outline>
    <contour>
      <point x="343" y="671" type="move" name="abvm.candra"/>
    </contour>
    <contour>
      <point x="343" y="671" type="move" name="abvm.e"/>
    </contour>
    <contour>
      <point x="343" y="671" type="move" name="abvm.bindu"/>
    </contour>
    <contour>
      <point x="169" y="0" type="move" name="blwm.virama"/>
    </contour>
    <contour>
      <point x="343" y="671" type="move" name="abvm.reph"/>
    </contour>
    <contour>
      <point x="219" y="0" type="move" name="blwm.u"/>
    </contour>
    <contour>
      <point x="-40" y="30" type="curve" smooth="yes"/>
      <point x="-40" y="-12"/>
      <point x="-6" y="-46"/>
      <point x="36" y="-46" type="curve" smooth="yes"/>
      <point x="78" y="-46"/>
      <point x="112" y="-12"/>
      <point x="112" y="30" type="curve" smooth="yes"/>
      <point x="112" y="72"/>
      <point x="78" y="106"/>
      <point x="36" y="106" type="curve" smooth="yes"/>
      <point x="-6" y="106"/>
      <point x="-40" y="72"/>
    </contour>
    <component base="dvRA"/>
  </outline>
</glyph>
<glyph name="dvAvagraha" format="1">
  <advance width="583"/>
  <unicode hex="093D"/>
  <outline>
    <contour>
      <point x="296" y="-3" type="curve" smooth="yes"/>
      <point x="451" y="-3"/>
      <point x="523" y="76"/>
      <point x="523" y="179" type="curve" smooth="yes"/>
      <point x="523" y="370"/>
      <point x="227" y="416"/>
      <point x="227" y="506" type="curve" smooth="yes"/>
      <point x="227" y="534"/>
      <point x="247" y="542"/>
      <point x="275" y="542" type="curve" smooth="yes"/>
      <point x="488" y="542" type="line"/>
      <point x="488" y="671" type="line"/>
      <point x="259" y="671" type="line" smooth="yes"/>
      <point x="140" y="671"/>
      <point x="71" y="611"/>
      <point x="71" y="517" type="curve" smooth="yes"/>
      <point x="71" y="326"/>
      <point x="377" y="271"/>
      <point x="377" y="182" type="curve" smooth="yes"/>
      <point x="377" y="145"/>
      <point x="351" y="126"/>
      <point x="295" y="126" type="curve" smooth="yes"/>
      <point x="214" y="126"/>
      <point x="117" y="170"/>
      <point x="67" y="203" type="curve"/>
      <point x="67" y="58" type="line"/>
      <point x="113" y="32"/>
      <point x="187" y="-3"/>
    </contour>
  </outline>
</glyph>
<glyph name="dvmAA" format="1">
  <advance width="281"/>
  <unicode hex="093E"/>
  <outline>
    <contour>
      <point x="-30" y="559" type="line"/>
      <point x="70" y="559" type="line"/>
      <point x="70" y="0" type="line"/>
      <point x="211" y="0" type="line"/>
      <point x="211" y="559" type="line"/>
      <point x="311" y="559" type="line"/>
      <point x="311" y="671" type="line"/>
      <point x="-30" y="671" type="line"/>
    </contour>
  </outline>
</glyph>
<glyph name="dvmI" format="1">
  <advance width="281"/>
  <unicode hex="093F"/>
  <outline>
    <contour>
      <point x="70" y="735" type="curve"/>
      <point x="70" y="623" type="line"/>
      <point x="211" y="623" type="line"/>
      <point x="211" y="734" type="line" smooth="yes"/>
      <point x="211" y="783"/>
      <point x="240" y="814"/>
      <point x="294" y="814" type="curve" smooth="yes"/>
      <point x="376" y="814"/>
      <point x="529" y="781"/>
      <point x="671" y="730" type="curve"/>
      <point x="671" y="854" type="line"/>
      <point x="526" y="899"/>
      <point x="422" y="931"/>
      <point x="291" y="931" type="curve" smooth="yes"/>
      <point x="149" y="931"/>
      <point x="70" y="849"/>
    </contour>
    <contour>
      <point x="-30" y="559" type="line"/>
      <point x="70" y="559" type="line"/>
      <point x="70" y="0" type="line"/>
      <point x="211" y="0" type="line"/>
      <point x="211" y="559" type="line"/>
      <point x="311" y="559" type="line"/>
      <point x="311" y="671" type="line"/>
      <point x="-30" y="671" type="line"/>
    </contour>
  </outline>
</glyph>
<glyph name="dvmUU" format="1">
  <advance width="0"/>
  <unicode hex="0942"/>
  <outline>
    <contour>
      <point x="-211" y="0" type="move" name="_blwm.u"/>
    </contour>
    <contour>
      <point x="-83" y="-173" type="line"/>
      <point x="-101" y="-181"/>
      <point x="-118" y="-184"/>
      <point x="-134" y="-184" type="curve" smooth="yes"/>
      <point x="-171" y="-184"/>
      <point x="-193" y="-162"/>
      <point x="-193" y="-137" type="curve" smooth="yes"/>
      <point x="-193" y="-113"/>
      <point x="-174" y="-95"/>
      <point x="-146" y="-95" type="curve" smooth="yes"/>
      <point x="-64" y="-95"/>
      <point x="-10" y="-186"/>
      <point x="-10" y="-292" type="curve"/>
      <point x="121" y="-292" type="line"/>
      <point x="121" y="-159"/>
      <point x="40" y="18"/>
      <point x="-151" y="18" type="curve" smooth="yes"/>
      <point x="-258" y="18"/>
      <point x="-326" y="-52"/>
      <point x="-326" y="-133" type="curve" smooth="yes"/>
      <point x="-326" y="-243"/>
      <point x="-243" y="-290"/>
      <point x="-144" y="-290" type="curve" smooth="yes"/>
      <point x="-130" y="-290"/>
      <point x="-105" y="-288"/>
      <point x="-83" y="-279" type="curve"/>
    </contour>
  </outline>
</glyph>
<glyph name="dvmO" format="1">
  <advance width="280"/>
  <unicode hex="094B"/>
  <outline>
    <contour>
      <point x="-30" y="559" type="line"/>
      <point x="70" y="559" type="line"/>
      <point x="70" y="0" type="line"/>
      <point x="210" y="0" type="line"/>
      <point x="210" y="559" type="line"/>
      <point x="310" y="559" type="line"/>
      <point x="310" y="671" type="line"/>
      <point x="-30" y="671" type="line"/>
    </contour>
    <component base="dvmE" xOffset="280"/>
  </outline>
</glyph>
<glyph name="dvmAU" format="1">
  <advance width="281"/>
  <unicode hex="094C"/>
  <outline>
    <contour>
      <point x="-30" y="559" type="line"/>
      <point x="70" y="559" type="line"/>
      <point x="70" y="0" type="line"/>
      <point x="211" y="0" type="line"/>
      <point x="211" y="559" type="line"/>
      <point x="311" y="559" type="line"/>
      <point x="311" y="671" type="line"/>
      <point x="-30" y="671" type="line"/>
    </contour>
    <component base="dvmAI" xOffset="283"/>
  </outline>
</glyph>
<glyph name="dvKxA" format="1">
  <advance width="809"/>
  <unicode hex="0958"/>
  <outline>
    <contour>
      <point x="475" y="671" type="move" name="abvm.candra"/>
    </contour>
    <contour>
      <point x="475" y="671" type="move" name="abvm.e"/>
    </contour>
    <contour>
      <point x="475" y="671" type="move" name="abvm.bindu"/>
    </contour>
    <contour>
      <point x="333" y="0" type="move" name="blwm.virama"/>
    </contour>
    <contour>
      <point x="475" y="671" type="move" name="abvm.reph"/>
    </contour>
    <contour>
      <point x="333" y="0" type="move" name="blwm.u"/>
    </contour>
    <component base="dvKA"/>
    <component base="dvNukta" xOffset="460" yOffset="80"/>
  </outline>
</glyph>
<glyph name="dvPHxA" format="1">
  <advance width="844"/>
  <unicode hex="095E"/>
  <outline>
    <contour>
      <point x="507" y="671" type="move" name="abvm.candra"/>
    </contour>
    <contour>
      <point x="507" y="671" type="move" name="abvm.e"/>
    </contour>
    <contour>
      <point x="507" y="671" type="move" name="abvm.bindu"/>
    </contour>
    <contour>
      <point x="365" y="0" type="move" name="blwm.virama"/>
    </contour>
    <contour>
      <point x="507" y="671" type="move" name="abvm.reph"/>
    </contour>
    <contour>
      <point x="365" y="0" type="move" name="blwm.u"/>
    </contour>
    <component base="dvPHA"/>
    <component base="dvNukta" xOffset="430" yOffset="160"/>
  </outline>
</glyph>
<glyph name="dvvRR" format="1">
  <advance width="808"/>
  <unicode hex="0960"/>
  <outline>
    <contour>
      <point x="686" y="498" type="line"/>
      <point x="551" y="498" type="line"/>
      <point x="551" y="349" type="line"/>
      <point x="552" y="349"/>
      <point x="559" y="352"/>
      <point x="566" y="357" type="curve"/>
      <point x="581" y="292"/>
      <point x="640" y="263"/>
      <point x="640" y="225" type="curve" smooth="yes"/>
      <point x="640" y="185"/>
      <point x="610" y="174"/>
      <point x="579" y="175" type="curve" smooth="yes"/>
      <point x="567" y="175"/>
      <point x="556" y="177"/>
      <point x="546" y="180" type="curve"/>
      <point x="544" y="62" type="line"/>
      <point x="564" y="58"/>
      <point x="583" y="57"/>
      <point x="598" y="57" type="curve" smooth="yes"/>
      <point x="706" y="57"/>
      <point x="779" y="101"/>
      <point x="774" y="218" type="curve" smooth="yes"/>
      <point x="770" y="303"/>
      <point x="686" y="327"/>
      <point x="686" y="455" type="curve" smooth="yes"/>
    </contour>
    <contour>
      <point x="211" y="267" type="curve"/>
      <point x="322" y="311" type="line"/>
      <point x="306" y="447"/>
      <point x="228" y="496"/>
      <point x="124" y="496" type="curve" smooth="yes"/>
      <point x="104" y="496"/>
      <point x="68" y="492"/>
      <point x="44" y="484" type="curve"/>
      <point x="44" y="361" type="line"/>
      <point x="75" y="374"/>
      <point x="97" y="375"/>
      <point x="110" y="375" type="curve" smooth="yes"/>
      <point x="176" y="375"/>
      <point x="207" y="337"/>
    </contour>
    <contour>
      <point x="354" y="340" type="line"/>
      <point x="45" y="196" type="line"/>
      <point x="45" y="58" type="line"/>
      <point x="354" y="208" type="line"/>
    </contour>
    <contour>
      <point x="482" y="0" type="line"/>
      <point x="482" y="619" type="line"/>
      <point x="345" y="619" type="line"/>
      <point x="345" y="0" type="line"/>
    </contour>
    <contour>
      <point x="838" y="559" type="line"/>
      <point x="838" y="671" type="line"/>
      <point x="-30" y="671" type="line"/>
      <point x="-30" y="559" type="line"/>
    </contour>
    <contour>
      <point x="447" y="229" type="line"/>
      <point x="660" y="333" type="line"/>
      <point x="619" y="448" type="line"/>
      <point x="447" y="361" type="line"/>
    </contour>
  </outline>
</glyph>
<glyph name="quoteright" format="1">
  <advance width="267"/>
  <unicode hex="2019"/>
  <outline>
    <contour>
      <point x="28" y="433" type="line"/>
      <point x="154" y="433" type="line"/>
      <point x="290" y="694" type="line"/>
      <point x="129" y="694" type="line"/>
    </contour>
  </outline>
</glyph>
<glyph name="quotesinglbase" format="1">
  <advance width="267"/>
  <unicode hex="201A"/>
  <outline>
    <contour>
      <point x="-7" y="-127" type="line"/>
      <point x="119" y="-127" type="line"/>
      <point x="255" y="134" type="line"/>
      <point x="94" y="134" type="line"/>
    </contour>
  </outline>
</glyph>
<glyph name="quotedblleft" format="1">
  <advance width="452"/>
  <unicode hex="201C"/>
  <outline>
    <contour>
      <point x="289" y="694" type="line"/>
      <point x="168" y="694" type="line"/>
      <point x="27" y="433" type="line"/>
      <point x="185" y="433" type="line"/>
    </contour>
    <contour>
      <point x="474" y="694" type="line"/>
      <point x="353" y="694" type="line"/>
      <point x="232" y="433" type="line"/>
      <point x="378" y="433" type="line"/>
    </contour>
  </outline>
</glyph>
<glyph name="dagger" format="1">
  <advance width="559"/>
  <unicode hex="2020"/>
  <outline>
    <contour>
      <point x="214" y="0" type="line"/>
      <point x="344" y="0" type="line"/>
      <point x="344" y="674" type="line"/>
      <point x="214" y="674" type="line"/>
    </contour>
    <contour>
      <point x="30" y="405" type="line"/>
      <point x="529" y="405" type="line"/>
      <point x="529" y="523" type="line"/>
      <point x="30" y="523" type="line"/>
    </contour>
  </outline>
</glyph>
<glyph name="daggerdbl" format="1">
  <advance width="589"/>
  <unicode hex="2021"/>
  <outline>
    <contour>
      <point x="229" y="0" type="line"/>
      <point x="359" y="0" type="line"/>
      <point x="359" y="674" type="line"/>
      <point x="229" y="674" type="line"/>
    </contour>
    <contour>
      <point x="45" y="405" type="line"/>
      <point x="544" y="405" type="line"/>
      <point x="544" y="523" type="line"/>
      <point x="45" y="523" type="line"/>
    </contour>
    <contour>
      <point x="45" y="151" type="line"/>
      <point x="544" y="151" type="line"/>
      <point x="544" y="269" type="line"/>
      <point x="45" y="269" type="line"/>
    </contour>
  </outline>
</glyph>
<glyph name="guilsinglright" format="1">
  <advance width="371"/>
  <unicode hex="203A"/>
  <outline>
    <contour>
      <point x="345" y="253" type="line"/>
      <point x="193" y="415" type="line"/>
      <point x="41" y="415" type="line"/>
      <point x="187" y="253" type="line"/>
    </contour>
    <contour>
      <point x="187" y="253" type="line"/>
      <point x="41" y="91" type="line"/>
      <point x="193" y="91" type="line"/>
      <point x="345" y="253" type="line"/>
    </contour>
  </outline>
</glyph>
<glyph name="fraction" format="1">
  <advance width="264"/>
  <unicode hex="2044"/>
  <outline>
    <contour>
      <point x="-68" y="0" type="line"/>
      <point x="360" y="711" type="line"/>
      <point x="252" y="711" type="line"/>
      <point x="-177" y="0" type="line"/>
    </contour>
  </outline>
</glyph>
<glyph name="Euro" format="1">
  <advance width="622"/>
  <unicode hex="20AC"/>
  <outline>
    <contour>
      <point x="269" y="319" type="curve" smooth="yes"/>
      <point x="269" y="198"/>
      <point x="337" y="126"/>
      <point x="440" y="126" type="curve" smooth="yes"/>
      <point x="507" y="126"/>
      <point x="550" y="149"/>
      <point x="582" y="175" type="curve"/>
      <point x="582" y="27" type="line"/>
      <point x="549" y="9"/>
      <point x="514" y="-8"/>
      <point x="426" y="-8" type="curve" smooth="yes"/>
      <point x="238" y="-8"/>
      <point x="115" y="132"/>
      <point x="115" y="320" type="curve" smooth="yes"/>
      <point x="115" y="544"/>
      <point x="258" y="663"/>
      <point x="421" y="663" type="curve" smooth="yes"/>
      <point x="501" y="663"/>
      <point x="542" y="649"/>
      <point x="582" y="625" type="curve"/>
      <point x="582" y="478" type="line"/>
      <point x="550" y="504"/>
      <point x="510" y="526"/>
      <point x="445" y="526" type="curve" smooth="yes"/>
      <point x="337" y="526"/>
      <point x="269" y="444"/>
    </contour>
    <contour>
      <point x="40" y="445" type="line"/>
      <point x="477" y="445" type="line"/>
      <point x="477" y="355" type="line"/>
      <point x="40" y="355" type="line"/>
    </contour>
    <contour>
      <point x="40" y="291" type="line"/>
      <point x="477" y="291" type="line"/>
      <point x="477" y="201" type="line"/>
      <point x="40" y="201" type="line"/>
    </contour>
  </outline>
</glyph>
<glyph name="estimated" format="1">
  <advance width="838"/>
  <unicode hex="212E"/>
  <outline>
    <contour>
      <point x="223" y="291" type="line"/>
      <point x="223" y="142" type="line"/>
      <point x="262" y="93"/>
      <point x="328" y="61"/>
      <point x="398" y="61" type="curve" smooth="yes"/>
      <point x="489" y="61"/>
      <point x="554" y="102"/>
      <point x="599" y="165" type="curve"/>
      <point x="747" y="165" type="line"/>
      <point x="666" y="59"/>
      <point x="547" y="-10"/>
      <point x="398" y="-10" type="curve" smooth="yes"/>
      <point x="180" y="-10"/>
      <point x="6" y="140"/>
      <point x="6" y="327" type="curve" smooth="yes"/>
      <point x="6" y="516"/>
      <point x="180" y="683"/>
      <point x="398" y="683" type="curve" smooth="yes"/>
      <point x="616" y="683"/>
      <point x="792" y="516"/>
      <point x="792" y="327" type="curve" smooth="yes"/>
      <point x="792" y="291" type="line"/>
    </contour>
    <contour>
      <point x="574" y="538" type="line"/>
      <point x="539" y="574"/>
      <point x="479" y="609"/>
      <point x="395" y="609" type="curve" smooth="yes"/>
      <point x="315" y="609"/>
      <point x="251" y="576"/>
      <point x="223" y="533" type="curve"/>
      <point x="223" y="363" type="line"/>
      <point x="574" y="363" type="line"/>
    </contour>
  </outline>
</glyph>
<glyph name="Delta.math" format="1">
  <advance width="681"/>
  <unicode hex="2206"/>
  <outline>
    <contour>
      <point x="646" y="101" type="line"/>
      <point x="439" y="674" type="line"/>
      <point x="245" y="674" type="line"/>
      <point x="35" y="101" type="line"/>
      <point x="35" y="0" type="line"/>
      <point x="158" y="0" type="line"/>
      <point x="245" y="268" type="line" smooth="yes"/>
      <point x="316" y="488"/>
      <point x="340" y="562"/>
      <point x="340" y="562" type="curve"/>
      <point x="340" y="562"/>
      <point x="364" y="488"/>
      <point x="435" y="268" type="curve" smooth="yes"/>
      <point x="522" y="0" type="line"/>
      <point x="646" y="0" type="line"/>
    </contour>
    <contour>
      <point x="146" y="0" type="line"/>
      <point x="561" y="0" type="line"/>
      <point x="561" y="124" type="line"/>
      <point x="146" y="124" type="line"/>
    </contour>
  </outline>
</glyph>
<glyph name="summation" format="1">
  <advance width="484"/>
  <unicode hex="2211"/>
  <outline>
    <contour>
      <point x="30" y="550" type="line"/>
      <point x="494" y="550" type="line"/>
      <point x="494" y="674" type="line"/>
      <point x="30" y="674" type="line"/>
    </contour>
    <contour>
      <point x="30" y="-200" type="line"/>
      <point x="494" y="-200" type="line"/>
      <point x="494" y="-76" type="line"/>
      <point x="30" y="-76" type="line"/>
    </contour>
    <contour>
      <point x="192" y="550" type="line"/>
      <point x="30" y="550" type="line"/>
      <point x="176" y="244" type="line"/>
      <point x="30" y="-76" type="line"/>
      <point x="191" y="-76" type="line"/>
      <point x="334" y="244" type="line"/>
    </contour>
  </outline>
</glyph>
<glyph name="divisionslash" format="1">
  <advance width="488"/>
  <unicode hex="2215"/>
  <outline>
    <contour>
      <point x="88" y="0" type="line"/>
      <point x="516" y="711" type="line"/>
      <point x="408" y="711" type="line"/>
      <point x="-21" y="0" type="line"/>
    </contour>
  </outline>
</glyph>
<glyph name="radical" format="1">
  <advance width="825"/>
  <unicode hex="221A"/>
  <outline>
    <contour>
      <point x="283" y="461" type="line"/>
      <point x="57" y="461" type="line"/>
      <point x="27" y="348" type="line"/>
      <point x="158" y="348" type="line"/>
      <point x="352" y="-190" type="line"/>
      <point x="522" y="-190" type="line"/>
      <point x="871" y="907" type="line"/>
      <point x="717" y="907" type="line"/>
      <point x="504" y="215" type="line" smooth="yes"/>
      <point x="455" y="57"/>
      <point x="440" y="-45"/>
      <point x="439" y="-50" type="curve"/>
      <point x="437" y="-40"/>
      <point x="416" y="63"/>
      <point x="365" y="215" type="curve" smooth="yes"/>
    </contour>
  </outline>
</glyph>
<glyph name="integral" format="1">
  <advance width="326"/>
  <unicode hex="222B"/>
  <outline>
    <contour>
      <point x="366" y="579" type="line"/>
      <point x="346" y="587"/>
      <point x="330" y="590"/>
      <point x="314" y="590" type="curve" smooth="yes"/>
      <point x="268" y="590"/>
      <point x="241" y="574"/>
      <point x="241" y="513" type="curve" smooth="yes"/>
      <point x="241" y="-4" type="line"/>
      <point x="241" y="-128"/>
      <point x="168" y="-198"/>
      <point x="47" y="-198" type="curve" smooth="yes"/>
      <point x="21" y="-198"/>
      <point x="-3" y="-197"/>
      <point x="-29" y="-188" type="curve"/>
      <point x="-29" y="-70" type="line"/>
      <point x="-9" y="-78"/>
      <point x="7" y="-81"/>
      <point x="23" y="-81" type="curve" smooth="yes"/>
      <point x="69" y="-81"/>
      <point x="96" y="-65"/>
      <point x="96" y="-4" type="curve"/>
      <point x="96" y="513" type="line" smooth="yes"/>
      <point x="96" y="637"/>
      <point x="169" y="707"/>
      <point x="290" y="707" type="curve" smooth="yes"/>
      <point x="316" y="707"/>
      <point x="340" y="706"/>
      <point x="366" y="697" type="curve"/>
    </contour>
  </outline>
</glyph>
<glyph name="approxequal" format="1">
  <advance width="589"/>
  <unicode hex="2248"/>
  <outline>
    <contour>
      <point x="473" y="329" type="line"/>
      <point x="446" y="297"/>
      <point x="423" y="275"/>
      <point x="379" y="275" type="curve" smooth="yes"/>
      <point x="323" y="275"/>
      <point x="285" y="320"/>
      <point x="178" y="320" type="curve" smooth="yes"/>
      <point x="108" y="320"/>
      <point x="51" y="263"/>
      <point x="21" y="221" type="curve"/>
      <point x="113" y="148" type="line"/>
      <point x="140" y="180"/>
      <point x="163" y="201"/>
      <point x="207" y="201" type="curve" smooth="yes"/>
      <point x="276" y="201"/>
      <point x="310" y="156"/>
      <point x="407" y="156" type="curve" smooth="yes"/>
      <point x="484" y="156"/>
      <point x="535" y="212"/>
      <point x="565" y="255" type="curve"/>
    </contour>
    <contour>
      <point x="473" y="533" type="line"/>
      <point x="446" y="501"/>
      <point x="423" y="479"/>
      <point x="379" y="479" type="curve" smooth="yes"/>
      <point x="323" y="479"/>
      <point x="285" y="524"/>
      <point x="178" y="524" type="curve" smooth="yes"/>
      <point x="108" y="524"/>
      <point x="51" y="467"/>
      <point x="21" y="425" type="curve"/>
      <point x="113" y="352" type="line"/>
      <point x="140" y="384"/>
      <point x="163" y="405"/>
      <point x="207" y="405" type="curve" smooth="yes"/>
      <point x="276" y="405"/>
      <point x="310" y="360"/>
      <point x="407" y="360" type="curve" smooth="yes"/>
      <point x="484" y="360"/>
      <point x="535" y="416"/>
      <point x="565" y="459" type="curve"/>
    </contour>
  </outline>
</glyph>
<glyph name="greaterequal" format="1">
  <advance width="584"/>
  <unicode hex="2265"/>
  <outline>
    <contour>
      <point x="544" y="432" type="line"/>
      <point x="45" y="369" type="line"/>
      <point x="45" y="243" type="line"/>
      <point x="544" y="329" type="line"/>
    </contour>
    <contour>
      <point x="544" y="509" type="line"/>
      <point x="45" y="595" type="line"/>
      <point x="45" y="469" type="line"/>
      <point x="544" y="406" type="line"/>
    </contour>
    <contour>
      <point x="45" y="83" type="line"/>
      <point x="544" y="83" type="line"/>
      <point x="544" y="199" type="line"/>
      <point x="45" y="199" type="line"/>
    </contour>
  </outline>
</glyph>
<glyph name="lozenge" format="1">
  <advance width="604"/>
  <unicode hex="25CA"/>
  <outline>
    <contour>
      <point x="29" y="337" type="line"/>
      <point x="177" y="337" type="line"/>
      <point x="202" y="295" type="line" smooth="yes"/>
      <point x="274" y="174"/>
      <point x="302" y="113"/>
      <point x="302" y="113" type="curve"/>
      <point x="302" y="113"/>
      <point x="329" y="174"/>
      <point x="404" y="295" type="curve" smooth="yes"/>
      <point x="430" y="337" type="line"/>
      <point x="575" y="337" type="line"/>
      <point x="376" y="0" type="line"/>
      <point x="226" y="0" type="line"/>
    </contour>
    <contour>
      <point x="226" y="674" type="line"/>
      <point x="376" y="674" type="line"/>
      <point x="575" y="337" type="line"/>
      <point x="430" y="337" type="line"/>
      <point x="404" y="379" type="line" smooth="yes"/>
      <point x="329" y="500"/>
      <point x="302" y="561"/>
      <point x="302" y="561" type="curve"/>
      <point x="302" y="561"/>
      <point x="274" y="500"/>
      <point x="202" y="379" type="curve" smooth="yes"/>
      <point x="177" y="337" type="line"/>
      <point x="29" y="337" type="line"/>
    </contour>
  </outline>
</glyph>
<glyph name="f_f" format="1">
  <advance width="636"/>
  <unicode hex="FB00"/>
  <outline>
    <contour>
      <point x="455" y="564" type="line"/>
      <point x="424" y="579"/>
      <point x="357" y="603"/>
      <point x="314" y="603" type="curve" smooth="yes"/>
      <point x="268" y="603"/>
      <point x="241" y="587"/>
      <point x="241" y="526" type="curve" smooth="yes"/>
      <point x="241" y="0" type="line"/>
      <point x="96" y="0" type="line"/>
      <point x="96" y="526" type="line" smooth="yes"/>
      <point x="96" y="650"/>
      <point x="169" y="720"/>
      <point x="290" y="720" type="curve" smooth="yes"/>
      <point x="355" y="720"/>
      <point x="432" y="698"/>
      <point x="465" y="681" type="curve"/>
    </contour>
    <contour>
      <point x="30" y="507" type="line"/>
      <point x="336" y="507" type="line"/>
      <point x="336" y="400" type="line"/>
      <point x="30" y="400" type="line"/>
    </contour>
    <contour>
      <point x="656" y="592" type="line"/>
      <point x="636" y="600"/>
      <point x="620" y="603"/>
      <point x="604" y="603" type="curve" smooth="yes"/>
      <point x="558" y="603"/>
      <point x="531" y="587"/>
      <point x="531" y="526" type="curve" smooth="yes"/>
      <point x="531" y="0" type="line"/>
      <point x="386" y="0" type="line"/>
      <point x="386" y="526" type="line" smooth="yes"/>
      <point x="386" y="650"/>
      <point x="459" y="720"/>
      <point x="580" y="720" type="curve" smooth="yes"/>
      <point x="606" y="720"/>
      <point x="630" y="719"/>
      <point x="656" y="710" type="curve"/>
    </contour>
    <contour>
      <point x="320" y="507" type="line"/>
      <point x="626" y="507" type="line"/>
      <point x="626" y="400" type="line"/>
      <point x="320" y="400" type="line"/>
    </contour>
  </outline>
</glyph>
<glyph name="fi" format="1">
  <advance width="575"/>
  <unicode hex="FB01"/>
  <outline>
    <contour>
      <point x="386" y="0" type="line"/>
      <point x="532" y="0" type="line"/>
      <point x="532" y="507" type="line"/>
      <point x="386" y="507" type="line"/>
    </contour>
    <contour>
      <point x="479" y="678" type="line"/>
      <point x="427" y="702"/>
      <point x="363" y="720"/>
      <point x="290" y="720" type="curve" smooth="yes"/>
      <point x="169" y="720"/>
      <point x="96" y="650"/>
      <point x="96" y="526" type="curve" smooth="yes"/>
      <point x="96" y="0" type="line"/>
      <point x="241" y="0" type="line"/>
      <point x="241" y="526" type="line" smooth="yes"/>
      <point x="241" y="587"/>
      <point x="268" y="603"/>
      <point x="314" y="603" type="curve" smooth="yes"/>
      <point x="371" y="603"/>
      <point x="428" y="583"/>
      <point x="479" y="560" type="curve"/>
    </contour>
    <contour>
      <point x="30" y="400" type="line"/>
      <point x="459" y="400" type="line"/>
      <point x="459" y="507" type="line"/>
      <point x="30" y="507" type="line"/>
    </contour>
  </outline>
</glyph>
<glyph name="doubledanda" format="1">
  <advance width="727"/>
  <outline>
    <contour>
      <point x="215" y="0" type="line"/>
      <point x="357" y="0" type="line"/>
      <point x="357" y="671" type="line"/>
      <point x="215" y="671" type="line"/>
    </contour>
    <contour>
      <point x="465" y="0" type="line"/>
      <point x="607" y="0" type="line"/>
      <point x="607" y="671" type="line"/>
      <point x="465" y="671" type="line"/>
    </contour>
  </outline>
</glyph>
<glyph name="dvBH" format="1">
  <advance width="359"/>
  <outline>
    <contour>
      <point x="453" y="378" type="line"/>
      <point x="230" y="378" type="line"/>
      <point x="230" y="531" type="line" smooth="yes"/>
      <point x="230" y="626"/>
      <point x="181" y="676"/>
      <point x="77" y="676" type="curve" smooth="yes"/>
      <point x="47" y="676"/>
      <point x="10" y="666"/>
      <point x="-9" y="656" type="curve"/>
      <point x="-9" y="547" type="line"/>
      <point x="3" y="553"/>
      <point x="23" y="561"/>
      <point x="45" y="561" type="curve" smooth="yes"/>
      <point x="77" y="561"/>
      <point x="91" y="543"/>
      <point x="91" y="514" type="curve" smooth="yes"/>
      <point x="91" y="371" type="line"/>
      <point x="62" y="363"/>
      <point x="45" y="339"/>
      <point x="45" y="306" type="curve" smooth="yes"/>
      <point x="45" y="284"/>
      <point x="52" y="260"/>
      <point x="72" y="218" type="curve" smooth="yes"/>
      <point x="108" y="141" type="line"/>
      <point x="230" y="141" type="line"/>
      <point x="230" y="267" type="line"/>
      <point x="453" y="267" type="line"/>
    </contour>
  </outline>
</glyph>
<glyph name="dvBH_RA" format="1">
  <advance width="606"/>
  <outline>
    <contour>
      <point x="420" y="292" type="line"/>
      <point x="33" y="-40" type="line"/>
      <point x="226" y="-40" type="line"/>
      <point x="510" y="210" type="line"/>
    </contour>
    <contour>
      <point x="398" y="428" type="line"/>
      <point x="245" y="428" type="line"/>
      <point x="245" y="531" type="line" smooth="yes"/>
      <point x="245" y="626"/>
      <point x="196" y="676"/>
      <point x="92" y="676" type="curve" smooth="yes"/>
      <point x="62" y="676"/>
      <point x="25" y="666"/>
      <point x="6" y="656" type="curve"/>
      <point x="6" y="547" type="line"/>
      <point x="18" y="553"/>
      <point x="38" y="561"/>
      <point x="60" y="561" type="curve" smooth="yes"/>
      <point x="92" y="561"/>
      <point x="106" y="543"/>
      <point x="106" y="514" type="curve" smooth="yes"/>
      <point x="106" y="421" type="line"/>
      <point x="77" y="413"/>
      <point x="60" y="389"/>
      <point x="60" y="356" type="curve" smooth="yes"/>
      <point x="60" y="334"/>
      <point x="67" y="310"/>
      <point x="87" y="268" type="curve" smooth="yes"/>
      <point x="123" y="191" type="line"/>
      <point x="245" y="191" type="line"/>
      <point x="245" y="317" type="line"/>
      <point x="398" y="317" type="line"/>
      <point x="398" y="0" type="line"/>
      <point x="536" y="0" type="line"/>
      <point x="536" y="559" type="line"/>
      <point x="636" y="559" type="line"/>
      <point x="636" y="671" type="line"/>
      <point x="397" y="671" type="line"/>
    </contour>
  </outline>
</glyph>
<glyph name="dvBH_YA" format="1">
  <advance width="1014"/>
  <outline>
    <contour>
      <point x="626" y="106" type="curve" smooth="yes"/>
      <point x="693" y="106"/>
      <point x="750" y="132"/>
      <point x="773" y="170" type="curve"/>
      <point x="773" y="0" type="line"/>
      <point x="914" y="0" type="line"/>
      <point x="914" y="559" type="line"/>
      <point x="1014" y="559" type="line"/>
      <point x="1014" y="671" type="line"/>
      <point x="330" y="671" type="line"/>
      <point x="330" y="559" type="line"/>
      <point x="496" y="559" type="line"/>
      <point x="515" y="540"/>
      <point x="525" y="519"/>
      <point x="525" y="485" type="curve" smooth="yes"/>
      <point x="525" y="397"/>
      <point x="429" y="378"/>
      <point x="297" y="378" type="curve" smooth="yes"/>
      <point x="230" y="378" type="line"/>
      <point x="230" y="531" type="line" smooth="yes"/>
      <point x="230" y="626"/>
      <point x="181" y="676"/>
      <point x="77" y="676" type="curve" smooth="yes"/>
      <point x="47" y="676"/>
      <point x="10" y="666"/>
      <point x="-9" y="656" type="curve"/>
      <point x="-9" y="547" type="line"/>
      <point x="3" y="553"/>
      <point x="23" y="561"/>
      <point x="45" y="561" type="curve" smooth="yes"/>
      <point x="77" y="561"/>
      <point x="91" y="543"/>
      <point x="91" y="514" type="curve" smooth="yes"/>
      <point x="91" y="371" type="line"/>
      <point x="62" y="363"/>
      <point x="45" y="339"/>
      <point x="45" y="306" type="curve" smooth="yes"/>
      <point x="45" y="284"/>
      <point x="52" y="260"/>
      <point x="72" y="218" type="curve" smooth="yes"/>
      <point x="108" y="141" type="line"/>
      <point x="230" y="141" type="line"/>
      <point x="230" y="267" type="line"/>
      <point x="287" y="267" type="line" smooth="yes"/>
      <point x="320" y="267"/>
      <point x="360" y="268"/>
      <point x="397" y="272" type="curve"/>
      <point x="438" y="165"/>
      <point x="526" y="106"/>
    </contour>
    <contour>
      <point x="650" y="230" type="curve" smooth="yes"/>
      <point x="586" y="230"/>
      <point x="548" y="260"/>
      <point x="533" y="306" type="curve"/>
      <point x="601" y="327"/>
      <point x="664" y="384"/>
      <point x="664" y="473" type="curve" smooth="yes"/>
      <point x="664" y="510"/>
      <point x="654" y="542"/>
      <point x="643" y="559" type="curve"/>
      <point x="773" y="559" type="line"/>
      <point x="773" y="362" type="line" smooth="yes"/>
      <point x="773" y="272"/>
      <point x="724" y="230"/>
    </contour>
  </outline>
</glyph>
<glyph name="dvB" format="1">
  <advance width="395"/>
  <outline>
    <contour>
      <point x="277" y="74" type="curve" smooth="yes"/>
      <point x="402" y="74"/>
      <point x="493" y="144"/>
      <point x="538" y="242" type="curve"/>
      <point x="460" y="306" type="line"/>
      <point x="421" y="240"/>
      <point x="369" y="184"/>
      <point x="285" y="184" type="curve"/>
      <point x="223" y="184"/>
      <point x="178" y="224"/>
      <point x="178" y="288" type="curve" smooth="yes"/>
      <point x="178" y="353"/>
      <point x="221" y="391"/>
      <point x="279" y="391" type="curve" smooth="yes"/>
      <point x="300" y="391"/>
      <point x="327" y="388"/>
      <point x="348" y="381" type="curve"/>
      <point x="348" y="503" type="line"/>
      <point x="326" y="508"/>
      <point x="293" y="511"/>
      <point x="267" y="511" type="curve" smooth="yes"/>
      <point x="123" y="511"/>
      <point x="35" y="414"/>
      <point x="35" y="292" type="curve" smooth="yes"/>
      <point x="35" y="161"/>
      <point x="144" y="74"/>
    </contour>
    <contour>
      <point x="425" y="559" type="line"/>
      <point x="425" y="671" type="line"/>
      <point x="-30" y="671" type="line"/>
      <point x="-30" y="559" type="line"/>
    </contour>
    <contour>
      <point x="462" y="206" type="line"/>
      <point x="146" y="466" type="line"/>
      <point x="113" y="413" type="line"/>
      <point x="411" y="163" type="line"/>
    </contour>
  </outline>
</glyph>
<glyph name="dvB_DA" format="1">
  <advance width="979"/>
  <outline>
    <contour>
      <point x="897" y="671" type="move" name="abvm.candra"/>
    </contour>
    <contour>
      <point x="897" y="671" type="move" name="abvm.e"/>
    </contour>
    <contour>
      <point x="897" y="671" type="move" name="abvm.bindu"/>
    </contour>
    <contour>
      <point x="779" y="-10" type="move" name="blwm.virama"/>
    </contour>
    <contour>
      <point x="897" y="671" type="move" name="abvm.reph"/>
    </contour>
    <contour>
      <point x="779" y="-10" type="move" name="blwm.u"/>
    </contour>
    <component base="dvDA" xOffset="400"/>
    <component base="dvB"/>
  </outline>
</glyph>
<glyph name="dvB_JA" format="1">
  <advance width="1058"/>
  <outline>
    <contour>
      <point x="277" y="74" type="curve" smooth="yes"/>
      <point x="329" y="74"/>
      <point x="376" y="85"/>
      <point x="408" y="106" type="curve"/>
      <point x="445" y="74"/>
      <point x="505" y="55"/>
      <point x="560" y="55" type="curve" smooth="yes"/>
      <point x="679" y="55"/>
      <point x="763" y="119"/>
      <point x="763" y="230" type="curve" smooth="yes"/>
      <point x="763" y="290"/>
      <point x="739" y="343"/>
      <point x="663" y="367" type="curve"/>
      <point x="487" y="348" type="line"/>
      <point x="584" y="348"/>
      <point x="630" y="312"/>
      <point x="630" y="257" type="curve" smooth="yes"/>
      <point x="630" y="209"/>
      <point x="602" y="175"/>
      <point x="558" y="175" type="curve" smooth="yes"/>
      <point x="504" y="175"/>
      <point x="475" y="197"/>
      <point x="416" y="244" type="curve"/>
      <point x="382" y="207"/>
      <point x="340" y="184"/>
      <point x="285" y="184" type="curve" smooth="yes"/>
      <point x="223" y="184"/>
      <point x="178" y="224"/>
      <point x="178" y="288" type="curve" smooth="yes"/>
      <point x="178" y="353"/>
      <point x="221" y="391"/>
      <point x="279" y="391" type="curve" smooth="yes"/>
      <point x="300" y="391"/>
      <point x="327" y="388"/>
      <point x="348" y="381" type="curve"/>
      <point x="348" y="503" type="line"/>
      <point x="326" y="508"/>
      <point x="293" y="511"/>
      <point x="267" y="511" type="curve" smooth="yes"/>
      <point x="123" y="511"/>
      <point x="35" y="414"/>
      <point x="35" y="292" type="curve" smooth="yes"/>
      <point x="35" y="161"/>
      <point x="144" y="74"/>
    </contour>
    <contour>
      <point x="425" y="559" type="line"/>
      <point x="425" y="671" type="line"/>
      <point x="-30" y="671" type="line"/>
      <point x="-30" y="559" type="line"/>
    </contour>
    <contour>
      <point x="462" y="206" type="line"/>
      <point x="146" y="466" type="line"/>
      <point x="113" y="413" type="line"/>
      <point x="411" y="163" type="line"/>
    </contour>
    <contour>
      <point x="487" y="348" type="line"/>
      <point x="925" y="348" type="line"/>
      <point x="925" y="463" type="line"/>
      <point x="487" y="463" type="line"/>
    </contour>
    <contour>
      <point x="370" y="559" type="line"/>
      <point x="846" y="559" type="line"/>
      <point x="846" y="0" type="line"/>
      <point x="988" y="0" type="line"/>
      <point x="988" y="559" type="line"/>
      <point x="1089" y="559" type="line"/>
      <point x="1089" y="671" type="line"/>
      <point x="370" y="671" type="line"/>
    </contour>
  </outline>
</glyph>
<glyph name="dvB_R" format="1">
  <advance width="377"/>
  <outline>
    <contour>
      <point x="186" y="89" type="curve"/>
      <point x="24" y="-65" type="line"/>
      <point x="218" y="-65" type="line"/>
      <point x="532" y="237" type="line"/>
      <point x="448" y="310" type="line"/>
      <point x="395" y="210"/>
      <point x="349" y="184"/>
      <point x="285" y="184" type="curve" smooth="yes"/>
      <point x="223" y="184"/>
      <point x="178" y="224"/>
      <point x="178" y="288" type="curve" smooth="yes"/>
      <point x="178" y="353"/>
      <point x="221" y="391"/>
      <point x="279" y="391" type="curve" smooth="yes"/>
      <point x="300" y="391"/>
      <point x="327" y="388"/>
      <point x="348" y="381" type="curve"/>
      <point x="348" y="503" type="line"/>
      <point x="326" y="508"/>
      <point x="293" y="511"/>
      <point x="267" y="511" type="curve" smooth="yes"/>
      <point x="123" y="511"/>
      <point x="35" y="414"/>
      <point x="35" y="292" type="curve" smooth="yes"/>
      <point x="35" y="194"/>
      <point x="102" y="115"/>
    </contour>
    <contour>
      <point x="407" y="559" type="line"/>
      <point x="407" y="671" type="line"/>
      <point x="-30" y="671" type="line"/>
      <point x="-30" y="559" type="line"/>
    </contour>
    <contour>
      <point x="462" y="206" type="line"/>
      <point x="146" y="466" type="line"/>
      <point x="113" y="413" type="line"/>
      <point x="411" y="163" type="line"/>
    </contour>
  </outline>
</glyph>
<glyph name="dvCH_RA" format="1">
  <advance width="657"/>
  <outline>
    <contour>
      <point x="548" y="671" type="move" name="abvm.candra"/>
    </contour>
    <contour>
      <point x="548" y="671" type="move" name="abvm.e"/>
    </contour>
    <contour>
      <point x="548" y="671" type="move" name="abvm.bindu"/>
    </contour>
    <contour>
      <point x="259" y="-100" type="move" name="blwm.virama"/>
    </contour>
    <contour>
      <point x="548" y="671" type="move" name="abvm.reph"/>
    </contour>
    <contour>
      <point x="259" y="-135" type="move" name="blwm.u"/>
    </contour>
    <contour>
      <point x="352" y="389" type="line"/>
      <point x="363" y="392"/>
      <point x="383" y="394"/>
      <point x="401" y="394" type="curve" smooth="yes"/>
      <point x="443" y="394"/>
      <point x="479" y="367"/>
      <point x="479" y="310" type="curve" smooth="yes"/>
      <point x="479" y="221"/>
      <point x="407" y="165"/>
      <point x="300" y="165" type="curve" smooth="yes"/>
      <point x="235" y="165"/>
      <point x="187" y="189"/>
      <point x="187" y="229" type="curve" smooth="yes"/>
      <point x="187" y="268"/>
      <point x="210" y="289"/>
      <point x="268" y="289" type="curve" smooth="yes"/>
      <point x="305" y="289" type="line"/>
      <point x="305" y="407" type="line"/>
      <point x="268" y="407" type="line" smooth="yes"/>
      <point x="220" y="407"/>
      <point x="196" y="439"/>
      <point x="196" y="477" type="curve" smooth="yes"/>
      <point x="196" y="529"/>
      <point x="230" y="565"/>
      <point x="298" y="592" type="curve"/>
      <point x="138" y="592" type="line"/>
      <point x="83" y="571"/>
      <point x="55" y="523"/>
      <point x="55" y="475" type="curve" smooth="yes"/>
      <point x="55" y="408"/>
      <point x="99" y="350"/>
      <point x="188" y="348" type="curve"/>
      <point x="97" y="343"/>
      <point x="45" y="297"/>
      <point x="45" y="222" type="curve" smooth="yes"/>
      <point x="45" y="106"/>
      <point x="168" y="49"/>
      <point x="299" y="49" type="curve" smooth="yes"/>
      <point x="484" y="49"/>
      <point x="622" y="154"/>
      <point x="622" y="322" type="curve" smooth="yes"/>
      <point x="622" y="442"/>
      <point x="538" y="508"/>
      <point x="424" y="508" type="curve" smooth="yes"/>
      <point x="402" y="508"/>
      <point x="370" y="505"/>
      <point x="352" y="500" type="curve"/>
    </contour>
    <contour>
      <point x="687" y="559" type="line"/>
      <point x="687" y="671" type="line"/>
      <point x="-30" y="671" type="line"/>
      <point x="-30" y="559" type="line"/>
    </contour>
    <contour>
      <point x="414" y="428" type="line"/>
      <point x="548" y="428" type="line"/>
      <point x="548" y="620" type="line"/>
      <point x="414" y="620" type="line"/>
    </contour>
    <contour>
      <point x="230" y="99" type="line"/>
      <point x="74" y="-100" type="line"/>
      <point x="244" y="-100" type="line"/>
      <point x="328" y="29" type="line"/>
      <point x="408" y="-100" type="line"/>
      <point x="578" y="-100" type="line"/>
      <point x="422" y="99" type="line"/>
    </contour>
  </outline>
</glyph>
<glyph name="dvCH_YA" format="1">
  <advance width="1284"/>
  <outline>
    <contour>
      <point x="532" y="357" type="line"/>
      <point x="600" y="385"/>
      <point x="713" y="411"/>
      <point x="773" y="411" type="curve" smooth="yes"/>
      <point x="810" y="411"/>
      <point x="830" y="395"/>
      <point x="830" y="377" type="curve" smooth="yes"/>
      <point x="830" y="324"/>
      <point x="745" y="302"/>
      <point x="679" y="286" type="curve"/>
      <point x="700" y="113"/>
      <point x="798" y="36"/>
      <point x="926" y="36" type="curve" smooth="yes"/>
      <point x="993" y="36"/>
      <point x="1050" y="62"/>
      <point x="1073" y="100" type="curve"/>
      <point x="1073" y="0" type="line"/>
      <point x="1214" y="0" type="line"/>
      <point x="1214" y="579" type="line"/>
      <point x="1073" y="579" type="line"/>
      <point x="1073" y="292" type="line" smooth="yes"/>
      <point x="1073" y="202"/>
      <point x="1024" y="160"/>
      <point x="950" y="160" type="curve" smooth="yes"/>
      <point x="893" y="160"/>
      <point x="858" y="183"/>
      <point x="842" y="228" type="curve"/>
      <point x="912" y="252"/>
      <point x="968" y="306"/>
      <point x="968" y="377" type="curve" smooth="yes"/>
      <point x="968" y="465"/>
      <point x="911" y="517"/>
      <point x="773" y="517" type="curve" smooth="yes"/>
      <point x="711" y="517"/>
      <point x="602" y="500"/>
      <point x="532" y="473" type="curve"/>
    </contour>
    <contour>
      <point x="1333" y="671" type="line"/>
      <point x="620" y="671" type="line"/>
      <point x="620" y="559" type="line"/>
      <point x="1333" y="559" type="line"/>
    </contour>
    <component base="dvCHA"/>
  </outline>
</glyph>
<glyph name="dvC_CA" format="1">
  <advance width="1040"/>
  <outline>
    <contour>
      <point x="649" y="91" type="curve"/>
      <point x="776" y="91"/>
      <point x="834" y="157"/>
      <point x="849" y="205" type="curve"/>
      <point x="830" y="323" type="line"/>
      <point x="830" y="284"/>
      <point x="784" y="204"/>
      <point x="687" y="204" type="curve" smooth="yes"/>
      <point x="630" y="204"/>
      <point x="594" y="228"/>
      <point x="594" y="273" type="curve" smooth="yes"/>
      <point x="594" y="337"/>
      <point x="656" y="359"/>
      <point x="759" y="359" type="curve"/>
      <point x="595" y="382" type="line"/>
      <point x="541" y="381"/>
      <point x="459" y="356"/>
      <point x="459" y="253" type="curve" smooth="yes"/>
      <point x="459" y="167"/>
      <point x="528" y="91"/>
    </contour>
    <contour>
      <point x="970" y="0" type="line"/>
      <point x="970" y="641" type="line"/>
      <point x="830" y="641" type="line"/>
      <point x="830" y="0" type="line"/>
    </contour>
    <contour>
      <point x="1070" y="559" type="line"/>
      <point x="1070" y="671" type="line"/>
      <point x="350" y="671" type="line"/>
      <point x="350" y="559" type="line"/>
    </contour>
    <contour>
      <point x="759" y="359" type="line"/>
      <point x="759" y="474" type="line"/>
      <point x="430" y="474" type="line"/>
      <point x="430" y="359" type="line"/>
    </contour>
    <component base="dvC"/>
  </outline>
</glyph>
<glyph name="dvC_CH_VA" format="1">
  <advance width="1077"/>
  <outline>
    <contour>
      <point x="968" y="671" type="move" name="abvm.candra"/>
    </contour>
    <contour>
      <point x="968" y="671" type="move" name="abvm.e"/>
    </contour>
    <contour>
      <point x="968" y="671" type="move" name="abvm.bindu"/>
    </contour>
    <contour>
      <point x="831" y="-320" type="move" name="blwm.virama"/>
    </contour>
    <contour>
      <point x="968" y="671" type="move" name="abvm.reph"/>
    </contour>
    <contour>
      <point x="831" y="-320" type="move" name="blwm.u"/>
    </contour>
    <contour>
      <point x="459" y="275" type="line"/>
      <point x="422" y="232"/>
      <point x="370" y="204"/>
      <point x="307" y="204" type="curve" smooth="yes"/>
      <point x="250" y="204"/>
      <point x="214" y="231"/>
      <point x="214" y="273" type="curve" smooth="yes"/>
      <point x="214" y="337"/>
      <point x="276" y="359"/>
      <point x="379" y="359" type="curve" smooth="yes"/>
      <point x="225" y="385" type="line"/>
      <point x="156" y="383"/>
      <point x="79" y="348"/>
      <point x="79" y="250" type="curve" smooth="yes"/>
      <point x="79" y="152"/>
      <point x="158" y="91"/>
      <point x="290" y="91" type="curve" smooth="yes"/>
      <point x="394" y="91"/>
      <point x="476" y="139"/>
      <point x="525" y="200" type="curve"/>
    </contour>
    <contour>
      <point x="690" y="559" type="line"/>
      <point x="690" y="671" type="line"/>
      <point x="-30" y="671" type="line"/>
      <point x="-30" y="559" type="line"/>
    </contour>
    <contour>
      <point x="379" y="359" type="line"/>
      <point x="379" y="474" type="line"/>
      <point x="20" y="474" type="line"/>
      <point x="20" y="359" type="line"/>
    </contour>
    <contour>
      <point x="772" y="389" type="line"/>
      <point x="783" y="392"/>
      <point x="803" y="394"/>
      <point x="821" y="394" type="curve" smooth="yes"/>
      <point x="863" y="394"/>
      <point x="899" y="367"/>
      <point x="899" y="310" type="curve" smooth="yes"/>
      <point x="899" y="221"/>
      <point x="827" y="165"/>
      <point x="720" y="165" type="curve" smooth="yes"/>
      <point x="633" y="165"/>
      <point x="586" y="193"/>
      <point x="586" y="237" type="curve" smooth="yes"/>
      <point x="586" y="267"/>
      <point x="615" y="289"/>
      <point x="668" y="289" type="curve" smooth="yes"/>
      <point x="705" y="289" type="line"/>
      <point x="705" y="407" type="line"/>
      <point x="668" y="407" type="line" smooth="yes"/>
      <point x="620" y="407"/>
      <point x="596" y="439"/>
      <point x="596" y="477" type="curve" smooth="yes"/>
      <point x="596" y="529"/>
      <point x="630" y="565"/>
      <point x="698" y="592" type="curve"/>
      <point x="538" y="592" type="line"/>
      <point x="483" y="571"/>
      <point x="455" y="523"/>
      <point x="455" y="475" type="curve" smooth="yes"/>
      <point x="455" y="408"/>
      <point x="499" y="350"/>
      <point x="588" y="348" type="curve"/>
      <point x="497" y="343"/>
      <point x="445" y="297"/>
      <point x="445" y="222" type="curve" smooth="yes"/>
      <point x="445" y="106"/>
      <point x="582" y="49"/>
      <point x="719" y="49" type="curve" smooth="yes"/>
      <point x="904" y="49"/>
      <point x="1042" y="154"/>
      <point x="1042" y="322" type="curve" smooth="yes"/>
      <point x="1042" y="442"/>
      <point x="958" y="508"/>
      <point x="844" y="508" type="curve" smooth="yes"/>
      <point x="822" y="508"/>
      <point x="790" y="505"/>
      <point x="772" y="500" type="curve"/>
    </contour>
    <contour>
      <point x="1107" y="559" type="line"/>
      <point x="1107" y="671" type="line"/>
      <point x="370" y="671" type="line"/>
      <point x="370" y="559" type="line"/>
    </contour>
    <contour>
      <point x="834" y="428" type="line"/>
      <point x="968" y="428" type="line"/>
      <point x="968" y="620" type="line"/>
      <point x="834" y="620" type="line"/>
    </contour>
    <contour>
      <point x="968" y="-320" type="line"/>
      <point x="968" y="168" type="line"/>
      <point x="831" y="168" type="line"/>
      <point x="831" y="-320" type="line"/>
    </contour>
    <contour>
      <point x="684" y="145" type="line"/>
      <point x="563" y="145"/>
      <point x="475" y="66"/>
      <point x="475" y="-38" type="curve" smooth="yes"/>
      <point x="475" y="-172"/>
      <point x="576" y="-244"/>
      <point x="692" y="-244" type="curve" smooth="yes"/>
      <point x="787" y="-244"/>
      <point x="849" y="-195"/>
      <point x="873" y="-112" type="curve"/>
      <point x="831" y="-39" type="line"/>
      <point x="831" y="-95"/>
      <point x="770" y="-132"/>
      <point x="721" y="-132" type="curve" smooth="yes"/>
      <point x="656" y="-132"/>
      <point x="618" y="-99"/>
      <point x="618" y="-41" type="curve" smooth="yes"/>
      <point x="618" y="21"/>
      <point x="659" y="49"/>
      <point x="709" y="49" type="curve"/>
    </contour>
  </outline>
</glyph>
<glyph name="dvC_NA" format="1">
  <advance width="660"/>
  <outline>
    <contour>
      <point x="214" y="273" type="curve" smooth="yes"/>
      <point x="214" y="337"/>
      <point x="276" y="359"/>
      <point x="379" y="359" type="curve" smooth="yes"/>
      <point x="215" y="382" type="line"/>
      <point x="161" y="381"/>
      <point x="79" y="356"/>
      <point x="79" y="253" type="curve" smooth="yes"/>
      <point x="79" y="167"/>
      <point x="148" y="91"/>
      <point x="269" y="91" type="curve" smooth="yes"/>
      <point x="396" y="91"/>
      <point x="454" y="157"/>
      <point x="469" y="205" type="curve"/>
      <point x="450" y="323" type="line"/>
      <point x="450" y="284"/>
      <point x="404" y="204"/>
      <point x="307" y="204" type="curve" smooth="yes"/>
      <point x="250" y="204"/>
      <point x="214" y="228"/>
    </contour>
    <contour>
      <point x="590" y="0" type="line"/>
      <point x="590" y="641" type="line"/>
      <point x="450" y="641" type="line"/>
      <point x="450" y="0" type="line"/>
    </contour>
    <contour>
      <point x="690" y="559" type="line"/>
      <point x="690" y="671" type="line"/>
      <point x="-30" y="671" type="line"/>
      <point x="-30" y="559" type="line"/>
    </contour>
    <contour>
      <point x="197" y="-154" type="curve"/>
      <point x="277" y="-103" type="line"/>
      <point x="252" y="-74"/>
      <point x="229" y="-44"/>
      <point x="229" y="-22" type="curve" smooth="yes"/>
      <point x="229" y="-10"/>
      <point x="235" y="1"/>
      <point x="247" y="10" type="curve" smooth="yes"/>
      <point x="409" y="129" type="line"/>
      <point x="327" y="177" type="line"/>
      <point x="147" y="71" type="line" smooth="yes"/>
      <point x="108" y="48"/>
      <point x="91" y="20"/>
      <point x="91" y="-15" type="curve" smooth="yes"/>
      <point x="91" y="-71"/>
      <point x="140" y="-124"/>
    </contour>
    <contour>
      <point x="379" y="359" type="line"/>
      <point x="379" y="474" type="line"/>
      <point x="20" y="474" type="line"/>
      <point x="20" y="359" type="line"/>
    </contour>
  </outline>
</glyph>
<glyph name="dvC_RA" format="1">
  <advance width="660"/>
  <outline>
    <contour>
      <point x="471" y="188" type="line"/>
      <point x="450" y="323" type="line"/>
      <point x="450" y="255"/>
      <point x="380" y="204"/>
      <point x="307" y="204" type="curve" smooth="yes"/>
      <point x="250" y="204"/>
      <point x="214" y="228"/>
      <point x="214" y="273" type="curve" smooth="yes"/>
      <point x="214" y="337"/>
      <point x="276" y="359"/>
      <point x="379" y="359" type="curve"/>
      <point x="215" y="382" type="line"/>
      <point x="161" y="381"/>
      <point x="79" y="356"/>
      <point x="79" y="253" type="curve" smooth="yes"/>
      <point x="79" y="185"/>
      <point x="123" y="122"/>
      <point x="202" y="100" type="curve"/>
      <point x="52" y="-45" type="line"/>
      <point x="236" y="-45" type="line"/>
    </contour>
    <contour>
      <point x="590" y="0" type="line"/>
      <point x="590" y="641" type="line"/>
      <point x="450" y="641" type="line"/>
      <point x="450" y="0" type="line"/>
    </contour>
    <contour>
      <point x="690" y="559" type="line"/>
      <point x="690" y="671" type="line"/>
      <point x="-30" y="671" type="line"/>
      <point x="-30" y="559" type="line"/>
    </contour>
    <contour>
      <point x="379" y="359" type="line"/>
      <point x="379" y="474" type="line"/>
      <point x="20" y="474" type="line"/>
      <point x="20" y="359" type="line"/>
    </contour>
  </outline>
</glyph>
<glyph name="dvC_R" format="1">
  <advance width="419"/>
  <outline>
    <contour>
      <point x="555" y="255" type="line"/>
      <point x="488" y="338" type="line"/>
      <point x="437" y="257"/>
      <point x="372" y="204"/>
      <point x="307" y="204" type="curve" smooth="yes"/>
      <point x="250" y="204"/>
      <point x="214" y="228"/>
      <point x="214" y="273" type="curve" smooth="yes"/>
      <point x="214" y="337"/>
      <point x="276" y="359"/>
      <point x="379" y="359" type="curve"/>
      <point x="215" y="382" type="line"/>
      <point x="161" y="381"/>
      <point x="79" y="356"/>
      <point x="79" y="253" type="curve" smooth="yes"/>
      <point x="79" y="179"/>
      <point x="135" y="113"/>
      <point x="212" y="100" type="curve"/>
      <point x="62" y="-45" type="line"/>
      <point x="246" y="-45" type="line"/>
    </contour>
    <contour>
      <point x="449" y="559" type="line"/>
      <point x="449" y="671" type="line"/>
      <point x="-30" y="671" type="line"/>
      <point x="-30" y="559" type="line"/>
    </contour>
    <contour>
      <point x="379" y="359" type="line"/>
      <point x="379" y="474" type="line"/>
      <point x="20" y="474" type="line"/>
      <point x="20" y="359" type="line"/>
    </contour>
  </outline>
</glyph>
<glyph name="dvDA_mvR" format="1">
  <advance width="481"/>
  <outline>
    <contour>
      <point x="409" y="671" type="move" name="abvm.candra"/>
    </contour>
    <contour>
      <point x="409" y="671" type="move" name="abvm.e"/>
    </contour>
    <contour>
      <point x="409" y="671" type="move" name="abvm.bindu"/>
    </contour>
    <contour>
      <point x="210" y="-9" type="move" name="blwm.virama"/>
    </contour>
    <contour>
      <point x="409" y="671" type="move" name="abvm.reph"/>
    </contour>
    <contour>
      <point x="210" y="-44" type="move" name="blwm.u"/>
    </contour>
    <contour>
      <point x="451" y="157" type="line"/>
      <point x="416" y="130"/>
      <point x="356" y="103"/>
      <point x="290" y="103" type="curve" smooth="yes"/>
      <point x="222" y="103"/>
      <point x="177" y="115"/>
      <point x="177" y="154" type="curve" smooth="yes"/>
      <point x="177" y="184"/>
      <point x="205" y="205"/>
      <point x="276" y="205" type="curve" smooth="yes"/>
      <point x="355" y="205" type="line"/>
      <point x="355" y="323" type="line"/>
      <point x="284" y="323" type="line" smooth="yes"/>
      <point x="210" y="323"/>
      <point x="191" y="344"/>
      <point x="191" y="369" type="curve" smooth="yes"/>
      <point x="191" y="403"/>
      <point x="236" y="416"/>
      <point x="287" y="416" type="curve" smooth="yes"/>
      <point x="330" y="416"/>
      <point x="378" y="407"/>
      <point x="409" y="394" type="curve"/>
      <point x="409" y="479" type="line"/>
      <point x="369" y="493"/>
      <point x="301" y="505"/>
      <point x="230" y="505" type="curve" smooth="yes"/>
      <point x="116" y="505"/>
      <point x="46" y="458"/>
      <point x="46" y="381" type="curve" smooth="yes"/>
      <point x="46" y="311"/>
      <point x="92" y="269"/>
      <point x="182" y="267" type="curve"/>
      <point x="91" y="265"/>
      <point x="35" y="224"/>
      <point x="35" y="145" type="curve" smooth="yes"/>
      <point x="35" y="37"/>
      <point x="160" y="-9"/>
      <point x="290" y="-9" type="curve" smooth="yes"/>
      <point x="358" y="-9"/>
      <point x="423" y="12"/>
      <point x="451" y="30" type="curve"/>
    </contour>
    <contour>
      <point x="409" y="397" type="line"/>
      <point x="409" y="559" type="line"/>
      <point x="269" y="569" type="line"/>
      <point x="269" y="429" type="line"/>
    </contour>
    <contour>
      <point x="511" y="559" type="line"/>
      <point x="511" y="671" type="line"/>
      <point x="-30" y="671" type="line"/>
      <point x="-30" y="559" type="line"/>
    </contour>
  </outline>
</glyph>
<glyph name="dvDDH_DDHA" format="1">
  <advance width="634"/>
  <outline>
    <contour>
      <point x="514" y="671" type="move" name="abvm.candra"/>
    </contour>
    <contour>
      <point x="514" y="671" type="move" name="abvm.e"/>
    </contour>
    <contour>
      <point x="514" y="671" type="move" name="abvm.bindu"/>
    </contour>
    <contour>
      <point x="296" y="-297" type="move" name="blwm.virama"/>
    </contour>
    <contour>
      <point x="514" y="671" type="move" name="abvm.reph"/>
    </contour>
    <contour>
      <point x="296" y="-332" type="move" name="blwm.u"/>
    </contour>
    <contour>
      <point x="306" y="234" type="line"/>
      <point x="332" y="245"/>
      <point x="375" y="256"/>
      <point x="408" y="256" type="curve" smooth="yes"/>
      <point x="444" y="256"/>
      <point x="465" y="239"/>
      <point x="465" y="214" type="curve" smooth="yes"/>
      <point x="465" y="174"/>
      <point x="415" y="162"/>
      <point x="346" y="162" type="curve" smooth="yes"/>
      <point x="256" y="162"/>
      <point x="183" y="202"/>
      <point x="183" y="280" type="curve" smooth="yes"/>
      <point x="183" y="375"/>
      <point x="294" y="408"/>
      <point x="403" y="408" type="curve" smooth="yes"/>
      <point x="438" y="408"/>
      <point x="484" y="404"/>
      <point x="514" y="397" type="curve"/>
      <point x="514" y="559" type="line"/>
      <point x="664" y="559" type="line"/>
      <point x="664" y="671" type="line"/>
      <point x="-30" y="671" type="line"/>
      <point x="-30" y="559" type="line"/>
      <point x="374" y="559" type="line"/>
      <point x="374" y="516" type="line"/>
      <point x="368" y="516"/>
      <point x="363" y="516"/>
      <point x="357" y="516" type="curve" smooth="yes"/>
      <point x="189" y="512"/>
      <point x="40" y="444"/>
      <point x="40" y="281" type="curve" smooth="yes"/>
      <point x="40" y="146"/>
      <point x="172" y="49"/>
      <point x="338" y="49" type="curve" smooth="yes"/>
      <point x="485" y="49"/>
      <point x="599" y="114"/>
      <point x="599" y="217" type="curve" smooth="yes"/>
      <point x="599" y="310"/>
      <point x="522" y="356"/>
      <point x="423" y="356" type="curve" smooth="yes"/>
      <point x="376" y="356"/>
      <point x="330" y="345"/>
      <point x="306" y="333" type="curve"/>
    </contour>
    <contour>
      <point x="347" y="123" type="line"/>
      <point x="212" y="123"/>
      <point x="51" y="59"/>
      <point x="51" y="-75" type="curve" smooth="yes"/>
      <point x="51" y="-217"/>
      <point x="187" y="-297"/>
      <point x="349" y="-297" type="curve" smooth="yes"/>
      <point x="496" y="-297"/>
      <point x="610" y="-224"/>
      <point x="610" y="-123" type="curve" smooth="yes"/>
      <point x="610" y="-40"/>
      <point x="546" y="16"/>
      <point x="438" y="16" type="curve" smooth="yes"/>
      <point x="393" y="16"/>
      <point x="344" y="7"/>
      <point x="317" y="-7" type="curve"/>
      <point x="317" y="-106" type="line"/>
      <point x="343" y="-94"/>
      <point x="389" y="-84"/>
      <point x="419" y="-84" type="curve" smooth="yes"/>
      <point x="455" y="-84"/>
      <point x="476" y="-101"/>
      <point x="476" y="-126" type="curve" smooth="yes"/>
      <point x="476" y="-166"/>
      <point x="404" y="-184"/>
      <point x="357" y="-184" type="curve" smooth="yes"/>
      <point x="264" y="-184"/>
      <point x="194" y="-141"/>
      <point x="194" y="-76" type="curve" smooth="yes"/>
      <point x="194" y="43"/>
      <point x="335" y="44"/>
      <point x="414" y="58" type="curve"/>
    </contour>
  </outline>
</glyph>
<glyph name="dvDDH_YA" format="1">
  <advance width="1168"/>
  <outline>
    <contour>
      <point x="618" y="393" type="curve" smooth="yes"/>
      <point x="685" y="393"/>
      <point x="714" y="383"/>
      <point x="714" y="352" type="curve" smooth="yes"/>
      <point x="714" y="299"/>
      <point x="629" y="290"/>
      <point x="563" y="274" type="curve"/>
      <point x="584" y="101"/>
      <point x="682" y="36"/>
      <point x="810" y="36" type="curve" smooth="yes"/>
      <point x="873" y="36"/>
      <point x="941" y="66"/>
      <point x="957" y="100" type="curve"/>
      <point x="957" y="0" type="line"/>
      <point x="1098" y="0" type="line"/>
      <point x="1098" y="559" type="line"/>
      <point x="1198" y="559" type="line"/>
      <point x="1198" y="671" type="line"/>
      <point x="-30" y="671" type="line"/>
      <point x="-30" y="559" type="line"/>
      <point x="324" y="559" type="line"/>
      <point x="324" y="488" type="line"/>
      <point x="163" y="479"/>
      <point x="30" y="416"/>
      <point x="30" y="251" type="curve" smooth="yes"/>
      <point x="30" y="116"/>
      <point x="136" y="9"/>
      <point x="298" y="9" type="curve" smooth="yes"/>
      <point x="445" y="9"/>
      <point x="529" y="82"/>
      <point x="529" y="183" type="curve" smooth="yes"/>
      <point x="529" y="271"/>
      <point x="461" y="322"/>
      <point x="369" y="322" type="curve" smooth="yes"/>
      <point x="332" y="322"/>
      <point x="293" y="313"/>
      <point x="266" y="299" type="curve"/>
      <point x="266" y="200" type="line"/>
      <point x="281" y="211"/>
      <point x="316" y="222"/>
      <point x="338" y="222" type="curve" smooth="yes"/>
      <point x="374" y="222"/>
      <point x="395" y="205"/>
      <point x="395" y="180" type="curve" smooth="yes"/>
      <point x="395" y="140"/>
      <point x="353" y="122"/>
      <point x="306" y="122" type="curve" smooth="yes"/>
      <point x="224" y="122"/>
      <point x="173" y="185"/>
      <point x="173" y="250" type="curve" smooth="yes"/>
      <point x="173" y="367"/>
      <point x="279" y="373"/>
      <point x="449" y="385" type="curve" smooth="yes"/>
      <point x="515" y="390"/>
      <point x="580" y="393"/>
    </contour>
    <contour>
      <point x="464" y="559" type="line"/>
      <point x="957" y="559" type="line"/>
      <point x="957" y="292" type="line" smooth="yes"/>
      <point x="957" y="202"/>
      <point x="908" y="160"/>
      <point x="834" y="160" type="curve" smooth="yes"/>
      <point x="777" y="160"/>
      <point x="742" y="171"/>
      <point x="726" y="216" type="curve"/>
      <point x="796" y="240"/>
      <point x="852" y="284"/>
      <point x="852" y="355" type="curve" smooth="yes"/>
      <point x="852" y="458"/>
      <point x="775" y="503"/>
      <point x="637" y="503" type="curve" smooth="yes"/>
      <point x="596" y="503"/>
      <point x="520" y="502"/>
      <point x="464" y="498" type="curve"/>
    </contour>
  </outline>
</glyph>
<glyph name="dvDD_DDA" format="1">
  <advance width="574"/>
  <outline>
    <contour>
      <point x="478" y="671" type="move" name="abvm.candra"/>
    </contour>
    <contour>
      <point x="478" y="671" type="move" name="abvm.e"/>
    </contour>
    <contour>
      <point x="478" y="671" type="move" name="abvm.bindu"/>
    </contour>
    <contour>
      <point x="262" y="-340" type="move" name="blwm.virama"/>
    </contour>
    <contour>
      <point x="478" y="671" type="move" name="abvm.reph"/>
    </contour>
    <contour>
      <point x="262" y="-375" type="move" name="blwm.u"/>
    </contour>
    <contour>
      <point x="138" y="77" type="line"/>
      <point x="114" y="57"/>
      <point x="95" y="16"/>
      <point x="95" y="-23" type="curve" smooth="yes"/>
      <point x="95" y="-101"/>
      <point x="171" y="-140"/>
      <point x="258" y="-140" type="curve" smooth="yes"/>
      <point x="351" y="-132" type="line" smooth="yes"/>
      <point x="388" y="-134"/>
      <point x="404" y="-149"/>
      <point x="404" y="-176" type="curve" smooth="yes"/>
      <point x="404" y="-207"/>
      <point x="370" y="-223"/>
      <point x="309" y="-223" type="curve" smooth="yes"/>
      <point x="231" y="-223"/>
      <point x="126" y="-200"/>
      <point x="60" y="-158" type="curve"/>
      <point x="60" y="-288" type="line"/>
      <point x="125" y="-319"/>
      <point x="220" y="-340"/>
      <point x="306" y="-340" type="curve" smooth="yes"/>
      <point x="436" y="-340"/>
      <point x="544" y="-281"/>
      <point x="544" y="-164" type="curve" smooth="yes"/>
      <point x="544" y="-83"/>
      <point x="492" y="-24"/>
      <point x="365" y="-20" type="curve" smooth="yes"/>
      <point x="273" y="-26" type="line" smooth="yes"/>
      <point x="245" y="-24"/>
      <point x="235" y="-11"/>
      <point x="235" y="5" type="curve" smooth="yes"/>
      <point x="235" y="25"/>
      <point x="252" y="45"/>
      <point x="267" y="54" type="curve"/>
    </contour>
    <contour>
      <point x="534" y="211" type="curve"/>
      <point x="534" y="289"/>
      <point x="478" y="348"/>
      <point x="374" y="348" type="curve" smooth="yes"/>
      <point x="307" y="348"/>
      <point x="265" y="344"/>
      <point x="242" y="344" type="curve" smooth="yes"/>
      <point x="212" y="344"/>
      <point x="202" y="356"/>
      <point x="202" y="372" type="curve" smooth="yes"/>
      <point x="202" y="396"/>
      <point x="225" y="404"/>
      <point x="258" y="404" type="curve" smooth="yes"/>
      <point x="478" y="404" type="line"/>
      <point x="457" y="516" type="line"/>
      <point x="250" y="516" type="line" smooth="yes"/>
      <point x="158" y="516"/>
      <point x="59" y="477"/>
      <point x="59" y="368" type="curve" smooth="yes"/>
      <point x="59" y="298"/>
      <point x="108" y="233"/>
      <point x="220" y="233" type="curve" smooth="yes"/>
      <point x="254" y="233"/>
      <point x="291" y="238"/>
      <point x="336" y="238" type="curve" smooth="yes"/>
      <point x="374" y="238"/>
      <point x="394" y="225"/>
      <point x="394" y="201" type="curve" smooth="yes"/>
      <point x="394" y="163"/>
      <point x="356" y="157"/>
      <point x="289" y="157" type="curve" smooth="yes"/>
      <point x="218" y="157"/>
      <point x="123" y="182"/>
      <point x="60" y="222" type="curve"/>
      <point x="60" y="92" type="line"/>
      <point x="105" y="67"/>
      <point x="203" y="40"/>
      <point x="296" y="40" type="curve" smooth="yes"/>
      <point x="413" y="40"/>
      <point x="534" y="86"/>
    </contour>
    <contour>
      <point x="-30" y="559" type="line"/>
      <point x="338" y="559" type="line"/>
      <point x="338" y="404" type="line"/>
      <point x="478" y="404" type="line"/>
      <point x="478" y="559" type="line"/>
      <point x="604" y="559" type="line"/>
      <point x="604" y="671" type="line"/>
      <point x="-30" y="671" type="line"/>
    </contour>
  </outline>
</glyph>
<glyph name="dvDD_DDHA" format="1">
  <advance width="574"/>
  <outline>
    <contour>
      <point x="478" y="671" type="move" name="abvm.candra"/>
    </contour>
    <contour>
      <point x="478" y="671" type="move" name="abvm.e"/>
    </contour>
    <contour>
      <point x="478" y="671" type="move" name="abvm.bindu"/>
    </contour>
    <contour>
      <point x="261" y="-307" type="move" name="blwm.virama"/>
    </contour>
    <contour>
      <point x="478" y="671" type="move" name="abvm.reph"/>
    </contour>
    <contour>
      <point x="261" y="-342" type="move" name="blwm.u"/>
    </contour>
    <contour>
      <point x="534" y="207" type="curve" smooth="yes"/>
      <point x="534" y="290"/>
      <point x="479" y="348"/>
      <point x="363" y="348" type="curve" smooth="yes"/>
      <point x="307" y="348"/>
      <point x="270" y="344"/>
      <point x="245" y="344" type="curve" smooth="yes"/>
      <point x="211" y="344"/>
      <point x="202" y="356"/>
      <point x="202" y="373" type="curve" smooth="yes"/>
      <point x="202" y="396"/>
      <point x="228" y="404"/>
      <point x="256" y="404" type="curve" smooth="yes"/>
      <point x="478" y="404" type="line"/>
      <point x="457" y="516" type="line"/>
      <point x="250" y="516" type="line" smooth="yes"/>
      <point x="158" y="516"/>
      <point x="59" y="477"/>
      <point x="59" y="368" type="curve" smooth="yes"/>
      <point x="59" y="285"/>
      <point x="125" y="230"/>
      <point x="232" y="230" type="curve" smooth="yes"/>
      <point x="263" y="230"/>
      <point x="295" y="236"/>
      <point x="333" y="236" type="curve" smooth="yes"/>
      <point x="371" y="236"/>
      <point x="394" y="224"/>
      <point x="394" y="200" type="curve" smooth="yes"/>
      <point x="394" y="163"/>
      <point x="355" y="157"/>
      <point x="289" y="157" type="curve" smooth="yes"/>
      <point x="218" y="157"/>
      <point x="123" y="182"/>
      <point x="60" y="222" type="curve"/>
      <point x="60" y="92" type="line"/>
      <point x="105" y="67"/>
      <point x="203" y="40"/>
      <point x="296" y="40" type="curve" smooth="yes"/>
      <point x="409" y="40"/>
      <point x="534" y="86"/>
    </contour>
    <contour>
      <point x="312" y="113" type="line"/>
      <point x="177" y="113"/>
      <point x="46" y="49"/>
      <point x="46" y="-85" type="curve" smooth="yes"/>
      <point x="46" y="-220"/>
      <point x="152" y="-307"/>
      <point x="314" y="-307" type="curve" smooth="yes"/>
      <point x="461" y="-307"/>
      <point x="545" y="-234"/>
      <point x="545" y="-133" type="curve" smooth="yes"/>
      <point x="545" y="-45"/>
      <point x="477" y="6"/>
      <point x="385" y="6" type="curve" smooth="yes"/>
      <point x="348" y="6"/>
      <point x="309" y="-3"/>
      <point x="282" y="-17" type="curve"/>
      <point x="282" y="-116" type="line"/>
      <point x="297" y="-105"/>
      <point x="332" y="-94"/>
      <point x="354" y="-94" type="curve" smooth="yes"/>
      <point x="390" y="-94"/>
      <point x="411" y="-111"/>
      <point x="411" y="-136" type="curve" smooth="yes"/>
      <point x="411" y="-176"/>
      <point x="369" y="-194"/>
      <point x="322" y="-194" type="curve" smooth="yes"/>
      <point x="240" y="-194"/>
      <point x="189" y="-151"/>
      <point x="189" y="-86" type="curve" smooth="yes"/>
      <point x="189" y="33"/>
      <point x="300" y="34"/>
      <point x="379" y="48" type="curve"/>
    </contour>
    <contour>
      <point x="-30" y="559" type="line"/>
      <point x="338" y="559" type="line"/>
      <point x="338" y="404" type="line"/>
      <point x="478" y="404" type="line"/>
      <point x="478" y="559" type="line"/>
      <point x="604" y="559" type="line"/>
      <point x="604" y="671" type="line"/>
      <point x="-30" y="671" type="line"/>
    </contour>
  </outline>
</glyph>
<glyph name="dvDD_RA" format="1">
  <advance width="539"/>
  <outline>
    <contour>
      <point x="438" y="671" type="move" name="abvm.candra"/>
    </contour>
    <contour>
      <point x="438" y="671" type="move" name="abvm.e"/>
    </contour>
    <contour>
      <point x="438" y="671" type="move" name="abvm.bindu"/>
    </contour>
    <contour>
      <point x="190" y="-149" type="move" name="blwm.virama"/>
    </contour>
    <contour>
      <point x="438" y="671" type="move" name="abvm.reph"/>
    </contour>
    <contour>
      <point x="190" y="-184" type="move" name="blwm.u"/>
    </contour>
    <contour>
      <point x="494" y="175" type="curve" smooth="yes"/>
      <point x="494" y="255"/>
      <point x="451" y="318"/>
      <point x="324" y="327" type="curve"/>
      <point x="315" y="328"/>
      <point x="305" y="328"/>
      <point x="294" y="328" type="curve"/>
      <point x="224" y="328"/>
      <point x="178" y="330"/>
      <point x="178" y="365" type="curve" smooth="yes"/>
      <point x="178" y="393"/>
      <point x="201" y="404"/>
      <point x="229" y="404" type="curve" smooth="yes"/>
      <point x="438" y="404" type="line"/>
      <point x="417" y="516" type="line"/>
      <point x="230" y="516" type="line" smooth="yes"/>
      <point x="138" y="516"/>
      <point x="39" y="472"/>
      <point x="39" y="362" type="curve" smooth="yes"/>
      <point x="39" y="242"/>
      <point x="151" y="211"/>
      <point x="248" y="211" type="curve"/>
      <point x="258" y="211"/>
      <point x="268" y="211"/>
      <point x="277" y="211" type="curve"/>
      <point x="331" y="209"/>
      <point x="354" y="200"/>
      <point x="354" y="167" type="curve" smooth="yes"/>
      <point x="354" y="140"/>
      <point x="323" y="117"/>
      <point x="257" y="117" type="curve" smooth="yes"/>
      <point x="175" y="117"/>
      <point x="105" y="142"/>
      <point x="40" y="182" type="curve"/>
      <point x="40" y="52" type="line"/>
      <point x="85" y="27"/>
      <point x="153" y="0"/>
      <point x="256" y="0" type="curve" smooth="yes"/>
      <point x="406" y="0"/>
      <point x="492" y="77"/>
    </contour>
    <contour>
      <point x="-30" y="559" type="line"/>
      <point x="298" y="559" type="line"/>
      <point x="298" y="407" type="line"/>
      <point x="438" y="407" type="line"/>
      <point x="438" y="559" type="line"/>
      <point x="569" y="559" type="line"/>
      <point x="569" y="671" type="line"/>
      <point x="-30" y="671" type="line"/>
    </contour>
    <contour>
      <point x="165" y="50" type="line"/>
      <point x="9" y="-149" type="line"/>
      <point x="179" y="-149" type="line"/>
      <point x="261" y="-20" type="line"/>
      <point x="343" y="-149" type="line"/>
      <point x="513" y="-149" type="line"/>
      <point x="357" y="50" type="line"/>
    </contour>
  </outline>
</glyph>
<glyph name="dvDD_VA" format="1">
  <advance width="589"/>
  <outline>
    <contour>
      <point x="488" y="671" type="move" name="abvm.candra"/>
    </contour>
    <contour>
      <point x="488" y="671" type="move" name="abvm.e"/>
    </contour>
    <contour>
      <point x="488" y="671" type="move" name="abvm.bindu"/>
    </contour>
    <contour>
      <point x="375" y="-289" type="move" name="blwm.virama"/>
    </contour>
    <contour>
      <point x="488" y="671" type="move" name="abvm.reph"/>
    </contour>
    <contour>
      <point x="375" y="-289" type="move" name="blwm.u"/>
    </contour>
    <contour>
      <point x="544" y="210" type="curve" smooth="yes"/>
      <point x="544" y="285"/>
      <point x="494" y="350"/>
      <point x="382" y="350" type="curve" smooth="yes"/>
      <point x="314" y="350"/>
      <point x="268" y="345"/>
      <point x="242" y="345" type="curve" smooth="yes"/>
      <point x="212" y="345"/>
      <point x="202" y="358"/>
      <point x="202" y="374" type="curve" smooth="yes"/>
      <point x="202" y="400"/>
      <point x="228" y="404"/>
      <point x="258" y="404" type="curve" smooth="yes"/>
      <point x="488" y="404" type="line"/>
      <point x="467" y="516" type="line"/>
      <point x="250" y="516" type="line" smooth="yes"/>
      <point x="158" y="516"/>
      <point x="59" y="477"/>
      <point x="59" y="368" type="curve" smooth="yes"/>
      <point x="59" y="292"/>
      <point x="113" y="233"/>
      <point x="228" y="233" type="curve" smooth="yes"/>
      <point x="259" y="233"/>
      <point x="302" y="238"/>
      <point x="347" y="238" type="curve" smooth="yes"/>
      <point x="385" y="238"/>
      <point x="404" y="224"/>
      <point x="404" y="200" type="curve"/>
      <point x="404" y="162"/>
      <point x="352" y="157"/>
      <point x="299" y="157" type="curve" smooth="yes"/>
      <point x="228" y="157"/>
      <point x="123" y="183"/>
      <point x="60" y="222" type="curve"/>
      <point x="60" y="92" type="line"/>
      <point x="105" y="67"/>
      <point x="213" y="40"/>
      <point x="306" y="40" type="curve" smooth="yes"/>
      <point x="426" y="40"/>
      <point x="544" y="89"/>
    </contour>
    <contour>
      <point x="269" y="117" type="line"/>
      <point x="155" y="117"/>
      <point x="50" y="68"/>
      <point x="50" y="-47" type="curve" smooth="yes"/>
      <point x="50" y="-159"/>
      <point x="146" y="-228"/>
      <point x="257" y="-228" type="curve" smooth="yes"/>
      <point x="348" y="-228"/>
      <point x="409" y="-180"/>
      <point x="435" y="-88" type="curve"/>
      <point x="375" y="-23" type="line"/>
      <point x="375" y="-79"/>
      <point x="335" y="-116"/>
      <point x="281" y="-116" type="curve" smooth="yes"/>
      <point x="229" y="-116"/>
      <point x="193" y="-90"/>
      <point x="193" y="-40" type="curve" smooth="yes"/>
      <point x="193" y="18"/>
      <point x="234" y="41"/>
      <point x="284" y="41" type="curve"/>
    </contour>
    <contour>
      <point x="-30" y="559" type="line"/>
      <point x="348" y="559" type="line"/>
      <point x="348" y="404" type="line"/>
      <point x="488" y="404" type="line"/>
      <point x="488" y="559" type="line"/>
      <point x="619" y="559" type="line"/>
      <point x="619" y="671" type="line"/>
      <point x="-30" y="671" type="line"/>
    </contour>
    <contour>
      <point x="509" y="-289" type="line"/>
      <point x="509" y="134" type="line"/>
      <point x="375" y="134" type="line"/>
      <point x="375" y="-289" type="line"/>
    </contour>
  </outline>
</glyph>
<glyph name="dvDH_N_YA" format="1">
  <advance width="1014"/>
  <outline>
    <contour>
      <point x="131" y="571" type="line"/>
      <point x="77" y="559"/>
      <point x="54" y="523"/>
      <point x="54" y="475" type="curve" smooth="yes"/>
      <point x="54" y="408"/>
      <point x="107" y="370"/>
      <point x="197" y="368" type="curve"/>
      <point x="103" y="361"/>
      <point x="40" y="319"/>
      <point x="40" y="244" type="curve" smooth="yes"/>
      <point x="40" y="136"/>
      <point x="139" y="79"/>
      <point x="258" y="79" type="curve" smooth="yes"/>
      <point x="387" y="79"/>
      <point x="473" y="162"/>
      <point x="549" y="233" type="curve"/>
      <point x="490" y="314" type="line"/>
      <point x="426" y="229"/>
      <point x="366" y="196"/>
      <point x="274" y="196" type="curve" smooth="yes"/>
      <point x="222" y="196"/>
      <point x="182" y="214"/>
      <point x="182" y="258" type="curve" smooth="yes"/>
      <point x="182" y="293"/>
      <point x="222" y="309"/>
      <point x="277" y="309" type="curve" smooth="yes"/>
      <point x="325" y="309" type="line"/>
      <point x="325" y="427" type="line"/>
      <point x="285" y="427" type="line" smooth="yes"/>
      <point x="227" y="427"/>
      <point x="196" y="445"/>
      <point x="196" y="488" type="curve" smooth="yes"/>
      <point x="196" y="535"/>
      <point x="229" y="559"/>
      <point x="293" y="559" type="curve"/>
    </contour>
    <contour>
      <point x="296" y="559" type="line"/>
      <point x="296" y="671" type="line"/>
      <point x="-30" y="671" type="line"/>
      <point x="-30" y="559" type="line"/>
    </contour>
    <contour>
      <point x="148" y="62" type="line"/>
      <point x="105" y="37"/>
      <point x="89" y="6"/>
      <point x="89" y="-25" type="curve" smooth="yes"/>
      <point x="89" y="-83"/>
      <point x="142" y="-136"/>
      <point x="195" y="-164" type="curve"/>
      <point x="275" y="-115" type="line"/>
      <point x="249" y="-90"/>
      <point x="232" y="-69"/>
      <point x="232" y="-45" type="curve" smooth="yes"/>
      <point x="232" y="-32"/>
      <point x="238" y="-19"/>
      <point x="251" y="-10" type="curve" smooth="yes"/>
      <point x="401" y="117" type="line"/>
      <point x="385" y="203" type="line"/>
    </contour>
    <contour>
      <point x="656" y="106" type="curve" smooth="yes"/>
      <point x="723" y="106"/>
      <point x="780" y="132"/>
      <point x="803" y="170" type="curve"/>
      <point x="803" y="0" type="line"/>
      <point x="944" y="0" type="line"/>
      <point x="944" y="559" type="line"/>
      <point x="1044" y="559" type="line"/>
      <point x="1044" y="671" type="line"/>
      <point x="350" y="671" type="line"/>
      <point x="350" y="559" type="line"/>
      <point x="526" y="559" type="line"/>
      <point x="545" y="540"/>
      <point x="555" y="514"/>
      <point x="555" y="480" type="curve" smooth="yes"/>
      <point x="555" y="432"/>
      <point x="510" y="392"/>
      <point x="399" y="376" type="curve"/>
      <point x="420" y="203"/>
      <point x="528" y="106"/>
    </contour>
    <contour>
      <point x="680" y="230" type="curve" smooth="yes"/>
      <point x="616" y="230"/>
      <point x="577" y="260"/>
      <point x="563" y="306" type="curve"/>
      <point x="631" y="329"/>
      <point x="694" y="379"/>
      <point x="694" y="473" type="curve" smooth="yes"/>
      <point x="694" y="510"/>
      <point x="684" y="542"/>
      <point x="673" y="559" type="curve"/>
      <point x="803" y="559" type="line"/>
      <point x="803" y="362" type="line" smooth="yes"/>
      <point x="803" y="272"/>
      <point x="754" y="230"/>
    </contour>
  </outline>
</glyph>
<glyph name="dvDH_RA" format="1">
  <advance width="649"/>
  <outline>
    <contour>
      <point x="136" y="571" type="line"/>
      <point x="82" y="559"/>
      <point x="59" y="523"/>
      <point x="59" y="475" type="curve" smooth="yes"/>
      <point x="59" y="408"/>
      <point x="112" y="370"/>
      <point x="202" y="368" type="curve"/>
      <point x="101" y="364"/>
      <point x="45" y="313"/>
      <point x="45" y="242" type="curve" smooth="yes"/>
      <point x="45" y="156"/>
      <point x="114" y="102"/>
      <point x="195" y="86" type="curve"/>
      <point x="54" y="-45" type="line"/>
      <point x="245" y="-45" type="line"/>
      <point x="439" y="146" type="line"/>
      <point x="439" y="0" type="line"/>
      <point x="579" y="0" type="line"/>
      <point x="579" y="626" type="line"/>
      <point x="439" y="626" type="line"/>
      <point x="439" y="342" type="line" smooth="yes"/>
      <point x="439" y="239"/>
      <point x="371" y="196"/>
      <point x="279" y="196" type="curve" smooth="yes"/>
      <point x="227" y="196"/>
      <point x="187" y="212"/>
      <point x="187" y="252" type="curve" smooth="yes"/>
      <point x="187" y="288"/>
      <point x="223" y="309"/>
      <point x="282" y="309" type="curve" smooth="yes"/>
      <point x="330" y="309" type="line"/>
      <point x="330" y="427" type="line"/>
      <point x="290" y="427" type="line" smooth="yes"/>
      <point x="232" y="427"/>
      <point x="201" y="445"/>
      <point x="201" y="488" type="curve" smooth="yes"/>
      <point x="201" y="535"/>
      <point x="234" y="559"/>
      <point x="298" y="559" type="curve"/>
    </contour>
    <contour>
      <point x="679" y="559" type="line"/>
      <point x="679" y="671" type="line"/>
      <point x="439" y="671" type="line"/>
      <point x="439" y="559" type="line"/>
    </contour>
    <contour>
      <point x="301" y="559" type="line"/>
      <point x="301" y="671" type="line"/>
      <point x="-30" y="671" type="line"/>
      <point x="-30" y="559" type="line"/>
    </contour>
  </outline>
</glyph>
<glyph name="dvD_BA" format="1">
  <advance width="628"/>
  <outline>
    <contour>
      <point x="558" y="671" type="move" name="abvm.candra"/>
    </contour>
    <contour>
      <point x="558" y="671" type="move" name="abvm.e"/>
    </contour>
    <contour>
      <point x="558" y="671" type="move" name="abvm.bindu"/>
    </contour>
    <contour>
      <point x="418" y="-255" type="move" name="blwm.virama"/>
    </contour>
    <contour>
      <point x="558" y="671" type="move" name="abvm.reph"/>
    </contour>
    <contour>
      <point x="418" y="-255" type="move" name="blwm.u"/>
    </contour>
    <contour>
      <point x="-30" y="671" type="line"/>
      <point x="-30" y="559" type="line"/>
      <point x="415" y="559" type="line"/>
      <point x="415" y="495" type="line"/>
      <point x="302" y="495" type="line" smooth="yes"/>
      <point x="134" y="495"/>
      <point x="39" y="402"/>
      <point x="39" y="278" type="curve" smooth="yes"/>
      <point x="39" y="156"/>
      <point x="134" y="62"/>
      <point x="275" y="62" type="curve" smooth="yes"/>
      <point x="315" y="62"/>
      <point x="392" y="77"/>
      <point x="418" y="115" type="curve"/>
      <point x="418" y="-255" type="line"/>
      <point x="558" y="-255" type="line"/>
      <point x="558" y="269" type="line"/>
      <point x="420" y="269" type="line"/>
      <point x="409" y="197"/>
      <point x="354" y="179"/>
      <point x="294" y="179" type="curve" smooth="yes"/>
      <point x="233" y="179"/>
      <point x="182" y="217"/>
      <point x="182" y="280" type="curve" smooth="yes"/>
      <point x="182" y="343"/>
      <point x="227" y="383"/>
      <point x="308" y="383" type="curve" smooth="yes"/>
      <point x="558" y="383" type="line"/>
      <point x="558" y="559" type="line"/>
      <point x="658" y="559" type="line"/>
      <point x="658" y="671" type="line"/>
    </contour>
    <contour>
      <point x="263" y="133" type="line"/>
      <point x="150" y="133"/>
      <point x="64" y="77"/>
      <point x="64" y="-37" type="curve" smooth="yes"/>
      <point x="64" y="-147"/>
      <point x="157" y="-217"/>
      <point x="277" y="-217" type="curve" smooth="yes"/>
      <point x="395" y="-217"/>
      <point x="455" y="-150"/>
      <point x="468" y="-56" type="curve"/>
      <point x="418" y="-1" type="line"/>
      <point x="418" y="-61"/>
      <point x="377" y="-105"/>
      <point x="306" y="-105" type="curve" smooth="yes"/>
      <point x="247" y="-105"/>
      <point x="207" y="-75"/>
      <point x="207" y="-20" type="curve" smooth="yes"/>
      <point x="207" y="26"/>
      <point x="238" y="59"/>
      <point x="282" y="64" type="curve"/>
    </contour>
    <contour>
      <point x="497" y="-122" type="line"/>
      <point x="233" y="103" type="line"/>
      <point x="202" y="64" type="line"/>
      <point x="465" y="-162" type="line"/>
    </contour>
  </outline>
</glyph>
<glyph name="dvD_BHA" format="1">
  <advance width="816"/>
  <outline>
    <contour>
      <point x="729" y="671" type="move" name="abvm.candra"/>
    </contour>
    <contour>
      <point x="729" y="671" type="move" name="abvm.e"/>
    </contour>
    <contour>
      <point x="729" y="671" type="move" name="abvm.bindu"/>
    </contour>
    <contour>
      <point x="611" y="-10" type="move" name="blwm.virama"/>
    </contour>
    <contour>
      <point x="729" y="671" type="move" name="abvm.reph"/>
    </contour>
    <contour>
      <point x="611" y="-10" type="move" name="blwm.u"/>
    </contour>
    <contour>
      <point x="-30" y="671" type="line"/>
      <point x="-30" y="559" type="line"/>
      <point x="586" y="559" type="line"/>
      <point x="586" y="495" type="line"/>
      <point x="515" y="495" type="line" smooth="yes"/>
      <point x="347" y="495"/>
      <point x="262" y="402"/>
      <point x="262" y="278" type="curve" smooth="yes"/>
      <point x="262" y="156"/>
      <point x="345" y="62"/>
      <point x="478" y="62" type="curve" smooth="yes"/>
      <point x="518" y="62"/>
      <point x="585" y="77"/>
      <point x="611" y="115" type="curve"/>
      <point x="611" y="-10" type="line"/>
      <point x="751" y="-10" type="line"/>
      <point x="751" y="279" type="line"/>
      <point x="613" y="279" type="line"/>
      <point x="602" y="209"/>
      <point x="558" y="179"/>
      <point x="503" y="179" type="curve" smooth="yes"/>
      <point x="445" y="179"/>
      <point x="405" y="215"/>
      <point x="405" y="280" type="curve" smooth="yes"/>
      <point x="405" y="343"/>
      <point x="450" y="383"/>
      <point x="521" y="383" type="curve" smooth="yes"/>
      <point x="729" y="383" type="line"/>
      <point x="729" y="559" type="line"/>
      <point x="846" y="559" type="line"/>
      <point x="846" y="671" type="line"/>
    </contour>
    <contour>
      <point x="547" y="77" type="line"/>
      <point x="501" y="163" type="line"/>
      <point x="287" y="53" type="line"/>
      <point x="236" y="147" type="line" smooth="yes"/>
      <point x="210" y="194"/>
      <point x="177" y="219"/>
      <point x="131" y="219" type="curve" smooth="yes"/>
      <point x="82" y="219"/>
      <point x="28" y="191"/>
      <point x="-2" y="144" type="curve"/>
      <point x="43" y="59" type="line"/>
      <point x="52" y="73"/>
      <point x="75" y="99"/>
      <point x="101" y="99" type="curve" smooth="yes"/>
      <point x="116" y="99"/>
      <point x="127" y="91"/>
      <point x="134" y="75" type="curve" smooth="yes"/>
      <point x="181" y="-12" type="line"/>
      <point x="169" y="-23"/>
      <point x="162" y="-36"/>
      <point x="162" y="-51" type="curve" smooth="yes"/>
      <point x="162" y="-80"/>
      <point x="183" y="-113"/>
      <point x="293" y="-182" type="curve"/>
      <point x="385" y="-133" type="line"/>
      <point x="332" y="-34" type="line"/>
    </contour>
  </outline>
</glyph>
<glyph name="dvD_DA" format="1">
  <advance width="576"/>
  <outline>
    <contour>
      <point x="476" y="671" type="move" name="abvm.candra"/>
    </contour>
    <contour>
      <point x="476" y="671" type="move" name="abvm.e"/>
    </contour>
    <contour>
      <point x="476" y="671" type="move" name="abvm.bindu"/>
    </contour>
    <contour>
      <point x="391" y="-80" type="move" name="blwm.virama"/>
    </contour>
    <contour>
      <point x="476" y="671" type="move" name="abvm.reph"/>
    </contour>
    <contour>
      <point x="391" y="-80" type="move" name="blwm.u"/>
    </contour>
    <contour>
      <point x="44" y="121" type="curve" smooth="yes"/>
      <point x="44" y="27"/>
      <point x="135" y="-31"/>
      <point x="242" y="-31" type="curve" smooth="yes"/>
      <point x="301" y="-31"/>
      <point x="374" y="-6"/>
      <point x="391" y="31" type="curve"/>
      <point x="391" y="-80" type="line"/>
      <point x="531" y="-80" type="line"/>
      <point x="531" y="209" type="line"/>
      <point x="393" y="209" type="line"/>
      <point x="393" y="122"/>
      <point x="333" y="82"/>
      <point x="270" y="82" type="curve" smooth="yes"/>
      <point x="222" y="82"/>
      <point x="185" y="100"/>
      <point x="185" y="134" type="curve" smooth="yes"/>
      <point x="185" y="172"/>
      <point x="226" y="195"/>
      <point x="286" y="195" type="curve" smooth="yes"/>
      <point x="328" y="195" type="line"/>
      <point x="328" y="309" type="line"/>
      <point x="285" y="309" type="line" smooth="yes"/>
      <point x="233" y="309"/>
      <point x="200" y="324"/>
      <point x="200" y="356" type="curve" smooth="yes"/>
      <point x="200" y="388"/>
      <point x="239" y="403"/>
      <point x="296" y="403" type="curve" smooth="yes"/>
      <point x="353" y="403"/>
      <point x="419" y="391"/>
      <point x="476" y="374" type="curve"/>
      <point x="476" y="479" type="line"/>
      <point x="436" y="498"/>
      <point x="341" y="513"/>
      <point x="280" y="513" type="curve" smooth="yes"/>
      <point x="128" y="513"/>
      <point x="55" y="449"/>
      <point x="55" y="365" type="curve" smooth="yes"/>
      <point x="55" y="304"/>
      <point x="100" y="252"/>
      <point x="192" y="250" type="curve"/>
      <point x="101" y="248"/>
      <point x="44" y="194"/>
    </contour>
    <contour>
      <point x="476" y="396" type="line"/>
      <point x="476" y="559" type="line"/>
      <point x="336" y="569" type="line"/>
      <point x="336" y="419" type="line"/>
    </contour>
    <contour>
      <point x="606" y="559" type="line"/>
      <point x="606" y="671" type="line"/>
      <point x="-30" y="671" type="line"/>
      <point x="-30" y="559" type="line"/>
    </contour>
  </outline>
</glyph>
